<?xml version="1.0" encoding="utf-8"?>
<!-- Generator: Adobe Illustrator 21.0.2, SVG Export Plug-In . SVG Version: 6.00 Build 0)  -->
<svg version="1.1" id="レイヤー_1" xmlns="http://www.w3.org/2000/svg" xmlns:xlink="http://www.w3.org/1999/xlink" x="0px"
	 y="0px" viewBox="0 0 1280 502" style="enable-background:new 0 0 1280 502;" xml:space="preserve">
<style type="text/css">
	.st0{fill:url(#SVGID_1_);}
	.st1{fill:url(#SVGID_2_);}
	.st2{fill:url(#SVGID_3_);}
	.st3{fill:url(#SVGID_4_);}
	.st4{fill:url(#SVGID_5_);}
	.st5{fill:url(#SVGID_6_);}
	.st6{fill:url(#SVGID_7_);}
	.st7{fill:url(#SVGID_8_);}
	.st8{fill:#FFFFFF;}
	.st9{opacity:0.5;}
	.st10{fill:none;stroke:#FFFFFF;stroke-width:0.9501;stroke-miterlimit:10;}
</style>
<linearGradient id="SVGID_1_" gradientUnits="userSpaceOnUse" x1="445.5" y1="502" x2="445.5" y2="0">
	<stop  offset="0" style="stop-color:#A18CD1"/>
	<stop  offset="1" style="stop-color:#FBC2EB"/>
</linearGradient>
<polygon class="st0" points="0,0 0,146 356,502 891,502 389,0 "/>
<linearGradient id="SVGID_2_" gradientUnits="userSpaceOnUse" x1="178" y1="502" x2="178" y2="0">
	<stop  offset="0" style="stop-color:#30CFD0"/>
	<stop  offset="1" style="stop-color:#330867"/>
</linearGradient>
<polygon class="st1" points="0,502 356,502 0,146 "/>
<linearGradient id="SVGID_3_" gradientUnits="userSpaceOnUse" x1="1102" y1="-146" x2="1102" y2="356">
	<stop  offset="0" style="stop-color:#84FAB0"/>
	<stop  offset="1" style="stop-color:#8FD3F4"/>
</linearGradient>
<polygon class="st2" points="1280,0 924,0 1280,356 "/>
<linearGradient id="SVGID_4_" gradientUnits="userSpaceOnUse" x1="834.5" y1="0" x2="834.5" y2="502">
	<stop  offset="0" style="stop-color:#A1C4FD"/>
	<stop  offset="1" style="stop-color:#C2E9FB"/>
</linearGradient>
<polygon class="st3" points="1280,356 924,0 389,0 891,502 1280,502 "/>
<linearGradient id="SVGID_5_" gradientUnits="userSpaceOnUse" x1="445.5" y1="1152" x2="445.5" y2="650">
	<stop  offset="0" style="stop-color:#A1C4FD"/>
	<stop  offset="1" style="stop-color:#C2E9FB"/>
</linearGradient>
<polygon class="st4" points="0,650 0,796 356,1152 891,1152 389,650 "/>
<linearGradient id="SVGID_6_" gradientUnits="userSpaceOnUse" x1="178" y1="1152" x2="178" y2="650">
	<stop  offset="0" style="stop-color:#A18CD1"/>
	<stop  offset="1" style="stop-color:#FBC2EB"/>
</linearGradient>
<polygon class="st5" points="0,1152 356,1152 0,796 "/>
<linearGradient id="SVGID_7_" gradientUnits="userSpaceOnUse" x1="1102" y1="1152" x2="1102" y2="650">
	<stop  offset="0" style="stop-color:#30CFD0"/>
	<stop  offset="1" style="stop-color:#330867"/>
</linearGradient>
<polygon class="st6" points="1280,650 924,650 1280,1006 "/>
<linearGradient id="SVGID_8_" gradientUnits="userSpaceOnUse" x1="834.5" y1="1152" x2="834.5" y2="650">
	<stop  offset="0" style="stop-color:#84FAB0"/>
	<stop  offset="1" style="stop-color:#8FD3F4"/>
</linearGradient>
<polygon class="st7" points="1280,1006 924,650 389,650 891,1152 1280,1152 "/>
<g>
	<path class="st8" d="M86,221.6c-0.3-0.3-0.5-0.9-0.1-1.4l6.1-7c0.3-0.4,0.8-0.4,1.2-0.1c3.6,2.9,8.5,5.6,14.2,5.6
		c5.7,0,8.9-2.6,8.9-6.5c0-3.2-1.9-5.2-8.4-6.1l-2.9-0.4c-11-1.5-17.2-6.7-17.2-16.3c0-10,7.5-16.6,19.3-16.6
		c7.2,0,13.9,2.2,18.5,5.7c0.5,0.3,0.6,0.6,0.2,1.2l-4.9,7.3c-0.3,0.4-0.7,0.5-1.1,0.2c-4.2-2.7-8.2-4.2-12.6-4.2
		c-4.8,0-7.3,2.5-7.3,5.9c0,3.1,2.2,5.1,8.5,6l2.9,0.4c11.2,1.5,17.1,6.6,17.1,16.5c0,9.8-7.3,17.1-21.4,17.1
		C98.5,229,90.2,225.7,86,221.6z"/>
	<path class="st8" d="M160.2,228.1c-0.5,0-0.8-0.3-0.8-0.8v-22.2c0-4.2-2-7-6-7c-3.8,0-6.1,2.8-6.1,7v22.2c0,0.5-0.3,0.8-0.8,0.8
		h-9.6c-0.5,0-0.8-0.3-0.8-0.8v-52.8c0-0.5,0.3-0.8,0.8-0.8h9.6c0.5,0,0.8,0.3,0.8,0.8v18.4h0.1c1.8-2.4,5-4.4,10-4.4
		c8.6,0,13.2,5.9,13.2,14.4v24.4c0,0.5-0.3,0.8-0.8,0.8H160.2z"/>
	<path class="st8" d="M181.1,183.3c-0.5,0-0.8-0.3-0.8-0.8v-7.9c0-0.5,0.3-0.8,0.8-0.8h9.6c0.5,0,0.8,0.3,0.8,0.8v7.9
		c0,0.5-0.3,0.8-0.8,0.8H181.1z M181.1,228.1c-0.5,0-0.8-0.3-0.8-0.8v-37.1c0-0.5,0.3-0.8,0.8-0.8h9.6c0.5,0,0.8,0.3,0.8,0.8v37.1
		c0,0.5-0.3,0.8-0.8,0.8H181.1z"/>
	<path class="st8" d="M203.8,228.1c-0.5,0-0.8-0.3-0.8-0.8v-29.2c0-0.3-0.2-0.5-0.5-0.5h-2.4c-0.5,0-0.8-0.3-0.8-0.8v-6.6
		c0-0.5,0.3-0.8,0.8-0.8h2.4c0.3,0,0.5-0.2,0.5-0.5v-1.8c0-9.4,4.4-13.4,13.6-13.4h4.4c0.5,0,0.8,0.3,0.8,0.8v7.5
		c0,0.5-0.3,0.8-0.8,0.8h-2.5c-3.5,0-4.4,0.9-4.4,4.2v1.9c0,0.3,0.2,0.5,0.5,0.5h6.3c0.5,0,0.8,0.3,0.8,0.8v6.6
		c0,0.5-0.3,0.8-0.8,0.8h-6.3c-0.3,0-0.5,0.2-0.5,0.5v29.2c0,0.5-0.3,0.8-0.8,0.8H203.8z"/>
	<path class="st8" d="M241.8,228.6c-9,0-12.3-4-12.3-12.9v-17.6c0-0.3-0.2-0.5-0.5-0.5h-2.4c-0.5,0-0.8-0.3-0.8-0.8v-6.6
		c0-0.5,0.3-0.8,0.8-0.8h2.4c0.3,0,0.5-0.2,0.5-0.5v-10.4c0-0.5,0.3-0.8,0.8-0.8h9.5c0.5,0,0.8,0.3,0.8,0.8v10.4
		c0,0.3,0.2,0.5,0.5,0.5h5c0.5,0,0.8,0.3,0.8,0.8v6.6c0,0.5-0.3,0.8-0.8,0.8h-5c-0.3,0-0.5,0.2-0.5,0.5v17.1c0,2.9,1,3.8,3.5,3.8
		h1.9c0.5,0,0.8,0.3,0.8,0.8v7.9c0,0.5-0.3,0.8-0.8,0.8H241.8z"/>
	<path class="st8" d="M270,174.5c0.2-0.5,0.5-0.8,1-0.8h10.1c0.6,0,0.9,0.3,1,0.8l18.4,52.8c0.2,0.5,0,0.8-0.6,0.8h-10.4
		c-0.6,0-0.9-0.2-1-0.8l-3.1-9.5h-19l-3,9.5c-0.2,0.6-0.5,0.8-1,0.8h-10.5c-0.6,0-0.7-0.3-0.6-0.8L270,174.5z M282.2,207.8l-6.2-19
		h-0.2l-6.2,19H282.2z"/>
	<path class="st8" d="M349.7,228.1c-0.5,0-0.8-0.3-0.8-0.8v-22.2c0-4.2-2-7-6-7c-3.8,0-6.1,2.8-6.1,7v22.2c0,0.5-0.3,0.8-0.8,0.8
		h-9.6c-0.5,0-0.8-0.3-0.8-0.8v-37.1c0-0.5,0.3-0.8,0.8-0.8h9.6c0.5,0,0.8,0.3,0.8,0.8v2.7h0.1c1.8-2.4,5-4.4,10-4.4
		c8.6,0,13.2,5.9,13.2,14.4v24.4c0,0.5-0.3,0.8-0.8,0.8H349.7z"/>
	<path class="st8" d="M369.2,218.1c-0.9-2.8-1.3-5.5-1.3-9.4s0.4-6.6,1.3-9.4c2.2-7,8.6-10.9,16.8-10.9s14.6,3.8,16.8,10.9
		c0.9,2.8,1.3,5.5,1.3,9.4s-0.4,6.6-1.3,9.4c-2.2,7-8.6,10.9-16.8,10.9S371.4,225.2,369.2,218.1z M392,215.4
		c0.6-1.8,0.7-3.4,0.7-6.6s-0.2-4.9-0.7-6.6c-0.9-2.7-3-4.2-6-4.2c-3,0-5.1,1.4-6,4.2c-0.6,1.8-0.7,3.4-0.7,6.6s0.2,4.9,0.7,6.6
		c0.9,2.7,3,4.2,6,4.2C389,219.6,391.1,218.1,392,215.4z"/>
	<path class="st8" d="M444.5,228.1c-0.5,0-0.8-0.3-1-0.8l-6.6-22.5h-0.2l-6.8,22.5c-0.2,0.5-0.5,0.8-1,0.8H421c-0.5,0-0.8-0.3-1-0.8
		l-12.4-37.1c-0.2-0.5,0.1-0.8,0.6-0.8h9.8c0.6,0,1,0.2,1.1,0.8l6.4,23h0.2l6.6-23c0.2-0.6,0.6-0.8,1.1-0.8h6.7c0.6,0,0.9,0.2,1,0.8
		l6.8,23h0.2l6.1-23c0.2-0.6,0.5-0.8,1-0.8h9.8c0.6,0,0.8,0.3,0.6,0.8l-12.4,37.1c-0.2,0.5-0.5,0.8-1,0.8H444.5z"/>
	<path class="st8" d="M490.5,218.1c-0.8-2.3-1.2-5.2-1.2-9.3s0.4-7,1.2-9.3c2.3-7.2,8.6-11,16.7-11c6.6,0,11.8,3,14.6,7.3
		c0.2,0.4,0.2,0.8-0.2,1.1l-7,4.6c-0.5,0.3-0.9,0.2-1.2-0.2c-1.7-2.3-3.4-3.4-6.2-3.4c-3,0-5.1,1.4-6,4.2c-0.6,1.6-0.7,3.4-0.7,6.6
		s0.2,5,0.7,6.6c0.9,2.8,3,4.2,6,4.2c2.8,0,4.5-1,6.2-3.4c0.3-0.4,0.7-0.5,1.2-0.2l7,4.6c0.4,0.3,0.4,0.7,0.2,1.1
		c-2.8,4.2-8,7.3-14.6,7.3C499,229,492.8,225.3,490.5,218.1z"/>
	<path class="st8" d="M527.6,218.1c-0.9-2.8-1.3-5.5-1.3-9.4s0.4-6.6,1.3-9.4c2.2-7,8.6-10.9,16.8-10.9s14.6,3.8,16.8,10.9
		c0.9,2.8,1.3,5.5,1.3,9.4s-0.4,6.6-1.3,9.4c-2.2,7-8.6,10.9-16.8,10.9S529.8,225.2,527.6,218.1z M550.4,215.4
		c0.6-1.8,0.7-3.4,0.7-6.6s-0.2-4.9-0.7-6.6c-0.9-2.7-3-4.2-6-4.2c-3,0-5.1,1.4-6,4.2c-0.6,1.8-0.7,3.4-0.7,6.6s0.2,4.9,0.7,6.6
		c0.9,2.7,3,4.2,6,4.2C547.4,219.6,549.5,218.1,550.4,215.4z"/>
	<path class="st8" d="M594.2,228.1c-0.5,0-0.8-0.3-0.8-0.8v-2.8h-0.1c-1.8,2.6-5,4.5-10.2,4.5c-6.5,0-11.1-3.2-13.1-9.3
		c-1-3-1.4-6-1.4-11c0-5,0.4-7.9,1.4-11c2-6.2,6.6-9.3,13.1-9.3c5.1,0,8.3,1.8,10.2,4.5h0.1v-18.5c0-0.5,0.3-0.8,0.8-0.8h9.6
		c0.5,0,0.8,0.3,0.8,0.8v52.8c0,0.5-0.3,0.8-0.8,0.8H594.2z M592.7,215.4c0.5-1.5,0.7-3.2,0.7-6.6s-0.2-5.1-0.7-6.6
		c-0.9-2.8-3-4.2-5.9-4.2c-3,0-5.1,1.4-6,4.2c-0.5,1.5-0.7,3.2-0.7,6.6s0.2,5.1,0.7,6.6c0.9,2.7,3,4.2,6,4.2
		C589.8,219.6,591.8,218.1,592.7,215.4z"/>
	<path class="st8" d="M615.5,183.3c-0.5,0-0.8-0.3-0.8-0.8v-7.9c0-0.5,0.3-0.8,0.8-0.8h9.6c0.5,0,0.8,0.3,0.8,0.8v7.9
		c0,0.5-0.3,0.8-0.8,0.8H615.5z M615.5,228.1c-0.5,0-0.8-0.3-0.8-0.8v-37.1c0-0.5,0.3-0.8,0.8-0.8h9.6c0.5,0,0.8,0.3,0.8,0.8v37.1
		c0,0.5-0.3,0.8-0.8,0.8H615.5z"/>
	<path class="st8" d="M660.1,228.1c-0.5,0-0.8-0.3-0.8-0.8v-22.2c0-4.2-2-7-6-7c-3.8,0-6.1,2.8-6.1,7v22.2c0,0.5-0.3,0.8-0.8,0.8
		h-9.6c-0.5,0-0.8-0.3-0.8-0.8v-37.1c0-0.5,0.3-0.8,0.8-0.8h9.6c0.5,0,0.8,0.3,0.8,0.8v2.7h0.1c1.8-2.4,5-4.4,10-4.4
		c8.6,0,13.2,5.9,13.2,14.4v24.4c0,0.5-0.3,0.8-0.8,0.8H660.1z"/>
	<path class="st8" d="M679.7,237.6c-0.3-0.4-0.3-0.8,0.1-1.2l5.7-5.8c0.4-0.4,0.8-0.4,1.2,0c2.4,2.2,5,3.4,8,3.4
		c5.4,0,7.8-2.9,7.8-8.6v-3.3h-0.1c-1.7,2.7-5,4.5-9.9,4.5c-6.4,0-11-3.2-13-9.4c-0.9-2.9-1.3-5.5-1.3-9.7s0.4-6.9,1.3-9.7
		c2-6.2,6.6-9.4,13-9.4c4.9,0,8.2,1.8,9.9,4.5h0.1v-2.8c0-0.5,0.3-0.8,0.8-0.8h9.6c0.5,0,0.8,0.3,0.8,0.8V224
		c0,13-6.6,19.4-19.3,19.4C688.6,243.4,682.5,240.9,679.7,237.6z M701.7,213c0.5-1.4,0.7-3,0.7-5.4s-0.2-4-0.7-5.4
		c-0.9-2.7-2.6-4.2-5.8-4.2c-3,0-4.8,1.4-5.8,4.2c-0.4,1.4-0.6,3-0.6,5.4s0.2,4,0.6,5.4c1,2.7,2.7,4.2,5.8,4.2
		C699,217.2,700.8,215.7,701.7,213z"/>
	<path class="st8" d="M723.4,217.7c0-0.5,0.3-0.8,0.8-0.8h9.5c0.5,0,0.8,0.3,0.8,0.8v9.6c0,0.5-0.3,0.8-0.8,0.8h-9.5
		c-0.5,0-0.8-0.3-0.8-0.8V217.7z"/>
	<path class="st8" d="M89.4,308.1c-0.5,0-0.8-0.3-0.8-0.8v-52.8c0-0.5,0.3-0.8,0.8-0.8h21.1c11.8,0,19,7.1,19,17.5
		c0,10.2-7.2,17.4-19,17.4h-9.7c-0.3,0-0.5,0.2-0.5,0.5v18.2c0,0.5-0.3,0.8-0.8,0.8H89.4z M117.8,271.3c0-4.4-3-7.4-7.9-7.4h-9
		c-0.3,0-0.5,0.2-0.5,0.5v13.7c0,0.3,0.2,0.5,0.5,0.5h9C114.8,278.5,117.8,275.7,117.8,271.3z"/>
	<path class="st8" d="M148.7,308.6c-8.6,0-12-3.8-12-12.3v-41.8c0-0.5,0.3-0.8,0.8-0.8h9.6c0.5,0,0.8,0.3,0.8,0.8v40.9
		c0,2.6,1,3.7,3.4,3.7h1.7c0.5,0,0.8,0.3,0.8,0.8v7.9c0,0.5-0.3,0.8-0.8,0.8H148.7z"/>
	<path class="st8" d="M160.6,298c-0.8-2.4-1.4-5.2-1.4-9.2c0-4.1,0.5-6.9,1.3-9.3c2.2-7,8.4-11,16.6-11c8.6,0,14.5,4.1,16.7,10.9
		c0.8,2.6,1.3,5.4,1.3,11.9c0,0.5-0.3,0.8-0.9,0.8h-23.4c-0.3,0-0.5,0.2-0.5,0.5c0.1,0.8,0.2,1.5,0.5,2.2c1,3.4,4,5.1,8,5.1
		c3.8,0,6.6-1.4,8.9-3.4c0.4-0.3,0.8-0.4,1.1,0l5.3,5c0.4,0.3,0.4,0.8,0.1,1.1c-3.7,3.9-9.4,6.5-16.5,6.5
		C169,309,162.9,304.9,160.6,298z M183.7,284.7c0.3,0,0.5-0.2,0.5-0.5c0-1.2-0.2-2.1-0.4-2.9c-0.9-2.6-3.3-4.2-6.5-4.2
		s-5.6,1.6-6.5,4.2c-0.2,0.8-0.4,1.7-0.4,2.9c0,0.3,0.2,0.5,0.5,0.5H183.7z"/>
	<path class="st8" d="M226.1,308.1c-0.5,0-0.8-0.3-0.8-0.8v-2.6h-0.1c-2,2.6-5.4,4.2-10.6,4.2c-6.9,0-12.9-3.6-12.9-11.8
		c0-8.6,6.5-12.5,16.1-12.5h6.9c0.3,0,0.5-0.2,0.5-0.5v-1.4c0-3.6-1.8-5.3-7.9-5.3c-3.9,0-6.8,1.1-8.6,2.5c-0.4,0.3-0.8,0.2-1-0.2
		l-3.6-6.3c-0.2-0.5-0.2-0.9,0.2-1.1c3.3-2.3,8-3.8,14.4-3.8c12.6,0,17.2,4.3,17.2,14v24.8c0,0.5-0.3,0.8-0.8,0.8H226.1z
		 M225.1,295.3v-2.6c0-0.3-0.2-0.5-0.5-0.5h-5.4c-4.7,0-6.9,1.4-6.9,4.4c0,2.7,1.9,4.1,5.6,4.1C222.7,300.6,225.1,298.9,225.1,295.3
		z"/>
	<path class="st8" d="M243.2,303c-0.3-0.3-0.3-0.8,0-1.1l5.2-5.8c0.3-0.3,0.7-0.3,1.1,0c3.4,2.6,7.8,4.2,11.8,4.2c4.1,0,6-1.5,6-3.7
		c0-1.8-1-3-5.5-3.4l-4.3-0.5c-8.2-0.8-12.6-4.9-12.6-11.8c0-7.6,5.8-12.4,15.9-12.4c6.6,0,12.1,2.1,15.7,4.8
		c0.3,0.3,0.4,0.8,0.1,1.2l-4.5,5.5c-0.3,0.4-0.7,0.4-1.1,0.2c-2.6-1.7-6.5-3.1-10.5-3.1c-3.3,0-4.9,1.3-4.9,3.2
		c0,1.8,1,2.8,5.4,3.2l4.2,0.5c9.1,0.9,12.9,5.3,12.9,11.8c-0.1,7.9-6.2,13.3-17.3,13.3C252.7,309,246.9,306.2,243.2,303z"/>
	<path class="st8" d="M285.4,298c-0.8-2.4-1.4-5.2-1.4-9.2c0-4.1,0.5-6.9,1.3-9.3c2.2-7,8.4-11,16.6-11c8.6,0,14.5,4.1,16.7,10.9
		c0.8,2.6,1.3,5.4,1.3,11.9c0,0.5-0.3,0.8-0.9,0.8h-23.4c-0.3,0-0.5,0.2-0.5,0.5c0.1,0.8,0.2,1.5,0.5,2.2c1,3.4,4,5.1,8,5.1
		c3.8,0,6.6-1.4,8.9-3.4c0.4-0.3,0.8-0.4,1.1,0l5.3,5c0.4,0.3,0.4,0.8,0.1,1.1c-3.7,3.9-9.4,6.5-16.5,6.5
		C293.8,309,287.7,304.9,285.4,298z M308.5,284.7c0.3,0,0.5-0.2,0.5-0.5c0-1.2-0.2-2.1-0.4-2.9c-0.9-2.6-3.3-4.2-6.5-4.2
		c-3.2,0-5.6,1.6-6.5,4.2c-0.2,0.8-0.4,1.7-0.4,2.9c0,0.3,0.2,0.5,0.5,0.5H308.5z"/>
	<path class="st8" d="M380.2,308.1c-0.5,0-0.8-0.3-1-0.8l-6.6-22.5h-0.2l-6.8,22.5c-0.2,0.5-0.5,0.8-1,0.8h-7.9
		c-0.5,0-0.8-0.3-1-0.8l-12.4-37.1c-0.2-0.5,0.1-0.8,0.6-0.8h9.8c0.6,0,1,0.2,1.1,0.8l6.4,23h0.2l6.6-23c0.2-0.6,0.6-0.8,1.1-0.8
		h6.7c0.6,0,0.9,0.2,1,0.8l6.8,23h0.2l6.1-23c0.2-0.6,0.5-0.8,1-0.8h9.8c0.6,0,0.8,0.3,0.6,0.8l-12.4,37.1c-0.2,0.5-0.5,0.8-1,0.8
		H380.2z"/>
	<path class="st8" d="M430.5,308.1c-0.5,0-0.8-0.3-0.8-0.8v-2.6h-0.1c-2,2.6-5.4,4.2-10.6,4.2c-6.9,0-12.9-3.6-12.9-11.8
		c0-8.6,6.5-12.5,16.1-12.5h6.9c0.3,0,0.5-0.2,0.5-0.5v-1.4c0-3.6-1.8-5.3-7.9-5.3c-3.9,0-6.8,1.1-8.6,2.5c-0.4,0.3-0.8,0.2-1-0.2
		l-3.6-6.3c-0.2-0.5-0.2-0.9,0.2-1.1c3.3-2.3,8-3.8,14.4-3.8c12.6,0,17.2,4.3,17.2,14v24.8c0,0.5-0.3,0.8-0.8,0.8H430.5z
		 M429.5,295.3v-2.6c0-0.3-0.2-0.5-0.5-0.5h-5.4c-4.7,0-6.9,1.4-6.9,4.4c0,2.7,1.9,4.1,5.6,4.1C427.1,300.6,429.5,298.9,429.5,295.3
		z"/>
	<path class="st8" d="M450.8,263.3c-0.5,0-0.8-0.3-0.8-0.8v-7.9c0-0.5,0.3-0.8,0.8-0.8h9.6c0.5,0,0.8,0.3,0.8,0.8v7.9
		c0,0.5-0.3,0.8-0.8,0.8H450.8z M450.8,308.1c-0.5,0-0.8-0.3-0.8-0.8v-37.1c0-0.5,0.3-0.8,0.8-0.8h9.6c0.5,0,0.8,0.3,0.8,0.8v37.1
		c0,0.5-0.3,0.8-0.8,0.8H450.8z"/>
	<path class="st8" d="M484.4,308.6c-9,0-12.3-4-12.3-12.9v-17.6c0-0.3-0.2-0.5-0.5-0.5h-2.4c-0.5,0-0.8-0.3-0.8-0.8v-6.6
		c0-0.5,0.3-0.8,0.8-0.8h2.4c0.3,0,0.5-0.2,0.5-0.5v-10.4c0-0.5,0.3-0.8,0.8-0.8h9.5c0.5,0,0.8,0.3,0.8,0.8v10.4
		c0,0.3,0.2,0.5,0.5,0.5h5c0.5,0,0.8,0.3,0.8,0.8v6.6c0,0.5-0.3,0.8-0.8,0.8h-5c-0.3,0-0.5,0.2-0.5,0.5v17.1c0,2.9,1,3.8,3.5,3.8
		h1.9c0.5,0,0.8,0.3,0.8,0.8v7.9c0,0.5-0.3,0.8-0.8,0.8H484.4z"/>
	<path class="st8" d="M518.9,308.1c-0.5,0-0.8-0.3-0.8-0.8v-29.2c0-0.3-0.2-0.5-0.5-0.5h-2.4c-0.5,0-0.8-0.3-0.8-0.8v-6.6
		c0-0.5,0.3-0.8,0.8-0.8h2.4c0.3,0,0.5-0.2,0.5-0.5v-1.8c0-9.4,4.4-13.4,13.6-13.4h4.4c0.5,0,0.8,0.3,0.8,0.8v7.5
		c0,0.5-0.3,0.8-0.8,0.8h-2.5c-3.5,0-4.4,0.9-4.4,4.2v1.9c0,0.3,0.2,0.5,0.5,0.5h6.3c0.5,0,0.8,0.3,0.8,0.8v6.6
		c0,0.5-0.3,0.8-0.8,0.8h-6.3c-0.3,0-0.5,0.2-0.5,0.5v29.2c0,0.5-0.3,0.8-0.8,0.8H518.9z"/>
	<path class="st8" d="M543,298c-0.8-2.4-1.4-5.2-1.4-9.2c0-4.1,0.5-6.9,1.3-9.3c2.2-7,8.4-11,16.6-11c8.6,0,14.5,4.1,16.7,10.9
		c0.8,2.6,1.3,5.4,1.3,11.9c0,0.5-0.3,0.8-0.9,0.8h-23.4c-0.3,0-0.5,0.2-0.5,0.5c0.1,0.8,0.2,1.5,0.5,2.2c1,3.4,4,5.1,8,5.1
		c3.8,0,6.6-1.4,8.9-3.4c0.4-0.3,0.8-0.4,1.1,0l5.3,5c0.4,0.3,0.4,0.8,0.1,1.1c-3.7,3.9-9.4,6.5-16.5,6.5
		C551.4,309,545.3,304.9,543,298z M566.1,284.7c0.3,0,0.5-0.2,0.5-0.5c0-1.2-0.2-2.1-0.4-2.9c-0.9-2.6-3.3-4.2-6.5-4.2
		c-3.2,0-5.6,1.6-6.5,4.2c-0.2,0.8-0.4,1.7-0.4,2.9c0,0.3,0.2,0.5,0.5,0.5H566.1z"/>
	<path class="st8" d="M618.5,308.1c-0.5,0-0.8-0.3-1-0.8l-6.6-22.5h-0.2l-6.8,22.5c-0.2,0.5-0.5,0.8-1,0.8H595c-0.5,0-0.8-0.3-1-0.8
		l-12.4-37.1c-0.2-0.5,0.1-0.8,0.6-0.8h9.8c0.6,0,1,0.2,1.1,0.8l6.4,23h0.2l6.6-23c0.2-0.6,0.6-0.8,1.1-0.8h6.7c0.6,0,0.9,0.2,1,0.8
		l6.8,23h0.2l6.1-23c0.2-0.6,0.5-0.8,1-0.8h9.8c0.6,0,0.8,0.3,0.6,0.8l-12.4,37.1c-0.2,0.5-0.5,0.8-1,0.8H618.5z"/>
	<path class="st8" d="M678.3,308.6c-9,0-12.3-4-12.3-12.9v-17.6c0-0.3-0.2-0.5-0.5-0.5h-2.4c-0.5,0-0.8-0.3-0.8-0.8v-6.6
		c0-0.5,0.3-0.8,0.8-0.8h2.4c0.3,0,0.5-0.2,0.5-0.5v-10.4c0-0.5,0.3-0.8,0.8-0.8h9.5c0.5,0,0.8,0.3,0.8,0.8v10.4
		c0,0.3,0.2,0.5,0.5,0.5h5c0.5,0,0.8,0.3,0.8,0.8v6.6c0,0.5-0.3,0.8-0.8,0.8h-5c-0.3,0-0.5,0.2-0.5,0.5v17.1c0,2.9,1,3.8,3.5,3.8
		h1.9c0.5,0,0.8,0.3,0.8,0.8v7.9c0,0.5-0.3,0.8-0.8,0.8H678.3z"/>
	<path class="st8" d="M692.5,263.3c-0.5,0-0.8-0.3-0.8-0.8v-7.9c0-0.5,0.3-0.8,0.8-0.8h9.6c0.5,0,0.8,0.3,0.8,0.8v7.9
		c0,0.5-0.3,0.8-0.8,0.8H692.5z M692.5,308.1c-0.5,0-0.8-0.3-0.8-0.8v-37.1c0-0.5,0.3-0.8,0.8-0.8h9.6c0.5,0,0.8,0.3,0.8,0.8v37.1
		c0,0.5-0.3,0.8-0.8,0.8H692.5z"/>
	<path class="st8" d="M760.3,308.1c-0.5,0-0.8-0.3-0.8-0.8v-22.2c0-4.2-2.1-7-6.1-7c-3.8,0-6,2.8-6,7v22.2c0,0.5-0.3,0.8-0.8,0.8
		H737c-0.5,0-0.8-0.3-0.8-0.8v-22.2c0-4.2-2-7-6-7c-3.8,0-6.1,2.8-6.1,7v22.2c0,0.5-0.3,0.8-0.8,0.8h-9.6c-0.5,0-0.8-0.3-0.8-0.8
		v-37.1c0-0.5,0.3-0.8,0.8-0.8h9.6c0.5,0,0.8,0.3,0.8,0.8v2.7h0.1c1.8-2.4,5-4.4,10-4.4c4.7,0,8.2,1.7,10.4,4.9h0.1
		c2.9-3,6.7-4.9,12.2-4.9c9.1,0,13.8,5.8,13.8,14.4v24.4c0,0.5-0.3,0.8-0.8,0.8H760.3z"/>
	<path class="st8" d="M779.9,298c-0.8-2.4-1.4-5.2-1.4-9.2c0-4.1,0.5-6.9,1.3-9.3c2.2-7,8.4-11,16.6-11c8.6,0,14.5,4.1,16.7,10.9
		c0.8,2.6,1.3,5.4,1.3,11.9c0,0.5-0.3,0.8-0.9,0.8h-23.4c-0.3,0-0.5,0.2-0.5,0.5c0.1,0.8,0.2,1.5,0.5,2.2c1,3.4,4,5.1,8,5.1
		c3.8,0,6.6-1.4,8.9-3.4c0.4-0.3,0.8-0.4,1.1,0l5.3,5c0.4,0.3,0.4,0.8,0.1,1.1c-3.7,3.9-9.4,6.5-16.5,6.5
		C788.2,309,782.2,304.9,779.9,298z M803,284.7c0.3,0,0.5-0.2,0.5-0.5c0-1.2-0.2-2.1-0.4-2.9c-0.9-2.6-3.3-4.2-6.5-4.2
		s-5.6,1.6-6.5,4.2c-0.2,0.8-0.4,1.7-0.4,2.9c0,0.3,0.2,0.5,0.5,0.5H803z"/>
	<path class="st8" d="M820.2,303c-0.3-0.3-0.3-0.8,0-1.1l5.2-5.8c0.3-0.3,0.7-0.3,1.1,0c3.4,2.6,7.8,4.2,11.8,4.2c4.1,0,6-1.5,6-3.7
		c0-1.8-1-3-5.5-3.4l-4.3-0.5c-8.2-0.8-12.6-4.9-12.6-11.8c0-7.6,5.8-12.4,15.9-12.4c6.6,0,12.1,2.1,15.7,4.8
		c0.3,0.3,0.4,0.8,0.1,1.2l-4.5,5.5c-0.3,0.4-0.7,0.4-1.1,0.2c-2.6-1.7-6.5-3.1-10.5-3.1c-3.3,0-4.9,1.3-4.9,3.2
		c0,1.8,1,2.8,5.4,3.2l4.2,0.5c9.1,0.9,12.9,5.3,12.9,11.8c-0.1,7.9-6.2,13.3-17.3,13.3C829.8,309,823.9,306.2,820.2,303z"/>
	<path class="st8" d="M862.8,297.7c0-0.5,0.3-0.8,0.8-0.8h9.5c0.5,0,0.8,0.3,0.8,0.8v9.6c0,0.5-0.3,0.8-0.8,0.8h-9.5
		c-0.5,0-0.8-0.3-0.8-0.8V297.7z"/>
	<path class="st8" d="M883.5,297.7c0-0.5,0.3-0.8,0.8-0.8h9.5c0.5,0,0.8,0.3,0.8,0.8v9.6c0,0.5-0.3,0.8-0.8,0.8h-9.5
		c-0.5,0-0.8-0.3-0.8-0.8V297.7z"/>
	<path class="st8" d="M904.2,297.7c0-0.5,0.3-0.8,0.8-0.8h9.5c0.5,0,0.8,0.3,0.8,0.8v9.6c0,0.5-0.3,0.8-0.8,0.8H905
		c-0.5,0-0.8-0.3-0.8-0.8V297.7z"/>
</g>
<path class="st8" d="M1126.2,51.3c-0.2-0.2-0.3-0.5,0-0.8l3.8-4.3c0.2-0.2,0.5-0.2,0.7,0c2.2,1.8,5.3,3.5,8.8,3.5
	c3.5,0,5.5-1.6,5.5-4c0-2-1.2-3.2-5.2-3.8l-1.8-0.2c-6.8-0.9-10.7-4.2-10.7-10.1c0-6.2,4.7-10.3,11.9-10.3c4.5,0,8.6,1.3,11.4,3.5
	c0.3,0.2,0.3,0.4,0.1,0.7l-3,4.5c-0.2,0.2-0.4,0.3-0.7,0.1c-2.6-1.7-5.1-2.6-7.8-2.6c-3,0-4.5,1.5-4.5,3.7c0,1.9,1.4,3.2,5.3,3.7
	l1.8,0.2c6.9,0.9,10.6,4.1,10.6,10.2c0,6.1-4.5,10.6-13.2,10.6C1134,55.9,1128.9,53.8,1126.2,51.3z"/>
<path class="st8" d="M1172.2,55.4c-0.3,0-0.5-0.2-0.5-0.5V41.1c0-2.6-1.2-4.4-3.7-4.4c-2.4,0-3.8,1.7-3.8,4.4v13.8
	c0,0.3-0.2,0.5-0.5,0.5h-5.9c-0.3,0-0.5-0.2-0.5-0.5V22.2c0-0.3,0.2-0.5,0.5-0.5h5.9c0.3,0,0.5,0.2,0.5,0.5v11.4h0
	c1.1-1.5,3.1-2.7,6.2-2.7c5.3,0,8.2,3.7,8.2,8.9v15.1c0,0.3-0.2,0.5-0.5,0.5H1172.2z"/>
<path class="st8" d="M1185.2,27.6c-0.3,0-0.5-0.2-0.5-0.5v-4.9c0-0.3,0.2-0.5,0.5-0.5h5.9c0.3,0,0.5,0.2,0.5,0.5v4.9
	c0,0.3-0.2,0.5-0.5,0.5H1185.2z M1185.2,55.4c-0.3,0-0.5-0.2-0.5-0.5v-23c0-0.3,0.2-0.5,0.5-0.5h5.9c0.3,0,0.5,0.2,0.5,0.5v23
	c0,0.3-0.2,0.5-0.5,0.5H1185.2z"/>
<path class="st8" d="M1239.2,22.2c0.1-0.3,0.3-0.5,0.6-0.5h6.2c0.3,0,0.5,0.2,0.6,0.5l11.4,32.7c0.1,0.3,0,0.5-0.3,0.5h-6.4
	c-0.3,0-0.5-0.1-0.6-0.5l-1.9-5.9H1237l-1.9,5.9c-0.1,0.3-0.3,0.5-0.6,0.5h-6.5c-0.3,0-0.4-0.2-0.3-0.5L1239.2,22.2z M1246.8,42.8
	L1243,31h-0.1l-3.8,11.8H1246.8z"/>
<g>
	<path class="st8" d="M1210.7,33.9l-2.6-2.6h-2.4c-0.1,0-0.2-0.1-0.2-0.3v-1.2c0-2,0.5-2.6,2.7-2.6h1.5c0.3,0,0.5-0.2,0.5-0.5v-4.7
		c0-0.3-0.2-0.5-0.5-0.5h-2.7c-5.7,0-8.4,2.4-8.4,8.3v1.1c0,0.1-0.1,0.2-0.2,0.3h-1.2v0h-0.4c-0.3,0-0.5,0.2-0.5,0.5V36
		c0,0.3,0.2,0.5,0.5,0.5h1.5c0.2,0,0.3,0.1,0.3,0.3v18.1c0,0.3,0.2,0.5,0.5,0.5h5.9c0.3,0,0.5-0.2,0.5-0.5V36.8
		c0-0.2,0.1-0.3,0.3-0.3h2.2L1210.7,33.9z"/>
	<path class="st8" d="M1222.3,36.5h3.1c0.3,0,0.5-0.2,0.5-0.5v-4.1c0-0.3-0.2-0.5-0.5-0.5h-3.1c-0.2,0-0.3-0.1-0.3-0.3v-6.4
		c0-0.3-0.2-0.5-0.5-0.5h-5.9c-0.3,0-0.5,0.2-0.5,0.5v6.4c0,0.1-0.1,0.2-0.2,0.3h-3.9l2.2,2.2c0.1,0.1,0.2,0.2,0.2,0.4
		c0,0.1-0.1,0.3-0.2,0.4l-2.2,2.2h2.6c0,0-0.4,0-0.4,0h1.5c0.2,0,0.3,0.1,0.3,0.3v10.9c0,5.5,2.1,8,7.6,8h2.6c0.3,0,0.5-0.2,0.5-0.5
		v-4.9c0-0.3-0.2-0.5-0.5-0.5h-1.2c-1.6,0-2.2-0.6-2.2-2.4V36.8C1222,36.6,1222.1,36.5,1222.3,36.5z"/>
</g>
<g>
	<path class="st8" d="M1120.1,35.3l-15-15l-4.9-4.9c-0.3-0.3-0.7-0.3-0.9,0l-0.5,0.5c0,0,0,0,0,0l-19.5,19.5
		c-0.5,0.5-0.3,0.9,0.4,0.9h6.4h2.7c0.4,0,0.8,0.2,1.1,0.5l4.9,4.9c0.3,0.3,0.7,0.5,1.1,0.5h7.6c0.4,0,0.8-0.2,1.1-0.5l4.9-4.9
		c0.3-0.3,0.6-0.5,0.7-0.5h0.9h5.2h3.4C1120.4,36.2,1120.6,35.8,1120.1,35.3z"/>
	<path class="st8" d="M1109.1,52.2l-8.4-8.4l-0.5-0.5c-0.3-0.3-0.7-0.3-0.9,0l-0.5,0.5l-8.4,8.4l-0.5,0.5c-0.3,0.3-0.5,0.7-0.5,1.1
		v2.4c0,0.4,0.3,0.6,0.6,0.6h19.3c0.4,0,0.6-0.3,0.6-0.6v-2.4c0-0.4-0.2-0.8-0.5-1.1L1109.1,52.2z"/>
</g>
<g class="st9">
	<path class="st10" d="M1254,218.6L1045.7,10.3L977-58.4c-3.5-3.5-9.2-3.5-12.7,0l-6.3,6.3c0,0,0,0,0,0L687.3,218.6
		c-7,7-4.6,12.7,5.2,12.7h88.9H819c4.9,0,11.8,2.8,15.3,6.3l68.1,68.1c3.5,3.5,10.4,6.3,15.3,6.3h106c4.9,0,11.8-2.8,15.3-6.3
		l68.1-68.1c3.5-3.5,8-6.3,10-6.3h12.7h72.2h46.9C1258.6,231.3,1261,225.6,1254,218.6z"/>
	<path class="st10" d="M1100.7,453.2L983.3,335.9l-6.3-6.3c-3.5-3.5-9.2-3.5-12.7,0l-6.3,6.3L840.6,453.2l-6.3,6.3
		c-3.5,3.5-6.3,10.4-6.3,15.3v32.8c0,4.9,4,9,9,9h267.4c4.9,0,9-4,9-9v-32.8c0-4.9-2.8-11.8-6.3-15.3L1100.7,453.2z"/>
</g>
<g class="st9">
	<path d="M86.5,327.3c0-0.3,0.2-0.5,0.5-0.5h20.9c0.3,0,0.5,0.2,0.5,0.5v5.1c0,0.3-0.2,0.5-0.5,0.5H93.9c-0.2,0-0.3,0.1-0.3,0.3v6.9
		c0,0.2,0.1,0.3,0.3,0.3h11.7c0.3,0,0.5,0.2,0.5,0.5v5.1c0,0.3-0.2,0.5-0.5,0.5H93.9c-0.2,0-0.3,0.1-0.3,0.3V359
		c0,0.3-0.2,0.5-0.5,0.5H87c-0.3,0-0.5-0.2-0.5-0.5V327.3z"/>
	<path d="M111.3,353.4c-0.5-1.7-0.8-3.3-0.8-5.6c0-2.3,0.2-3.9,0.8-5.6c1.3-4.2,5.2-6.5,10.1-6.5s8.7,2.3,10.1,6.5
		c0.5,1.7,0.8,3.3,0.8,5.6c0,2.3-0.2,3.9-0.8,5.6c-1.3,4.2-5.2,6.5-10.1,6.5S112.6,357.7,111.3,353.4z M124.9,351.8
		c0.3-1.1,0.4-2,0.4-4c0-2-0.1-2.9-0.4-4c-0.5-1.6-1.8-2.5-3.6-2.5c-1.8,0-3.1,0.9-3.6,2.5c-0.3,1.1-0.4,2-0.4,4c0,2,0.1,2.9,0.4,4
		c0.5,1.6,1.8,2.5,3.6,2.5C123.1,354.3,124.4,353.4,124.9,351.8z"/>
	<path d="M150.8,359.4c-0.3,0-0.5-0.2-0.5-0.5v-13.3c0-2.5-1.2-4.2-3.6-4.2c-2.3,0-3.6,1.7-3.6,4.2V359c0,0.3-0.2,0.5-0.5,0.5h-5.8
		c-0.3,0-0.5-0.2-0.5-0.5v-22.3c0-0.3,0.2-0.5,0.5-0.5h5.8c0.3,0,0.5,0.2,0.5,0.5v1.6h0c1.1-1.4,3-2.6,6-2.6c5.1,0,7.9,3.6,7.9,8.6
		V359c0,0.3-0.2,0.5-0.5,0.5H150.8z"/>
	<path d="M170,359.7c-5.4,0-7.4-2.4-7.4-7.7v-10.6c0-0.2-0.1-0.3-0.3-0.3h-1.4c-0.3,0-0.5-0.2-0.5-0.5v-4c0-0.3,0.2-0.5,0.5-0.5h1.4
		c0.2,0,0.3-0.1,0.3-0.3v-6.2c0-0.3,0.2-0.5,0.5-0.5h5.7c0.3,0,0.5,0.2,0.5,0.5v6.2c0,0.2,0.1,0.3,0.3,0.3h3c0.3,0,0.5,0.2,0.5,0.5
		v4c0,0.3-0.2,0.5-0.5,0.5h-3c-0.2,0-0.3,0.1-0.3,0.3v10.3c0,1.7,0.6,2.3,2.1,2.3h1.2c0.3,0,0.5,0.2,0.5,0.5v4.8
		c0,0.3-0.2,0.5-0.5,0.5H170z"/>
	<path d="M176.2,356.4c-0.2-0.2-0.2-0.5,0-0.7l3.1-3.5c0.2-0.2,0.4-0.2,0.7,0c2.1,1.6,4.7,2.5,7.1,2.5c2.4,0,3.6-0.9,3.6-2.2
		c0-1.1-0.6-1.8-3.3-2l-2.6-0.3c-4.9-0.5-7.6-2.9-7.6-7.1c0-4.6,3.5-7.4,9.6-7.4c3.9,0,7.2,1.2,9.4,2.9c0.2,0.2,0.2,0.5,0,0.7
		l-2.7,3.3c-0.2,0.2-0.4,0.2-0.7,0.1c-1.6-1-3.9-1.9-6.3-1.9c-2,0-2.9,0.8-2.9,1.9c0,1.1,0.6,1.7,3.2,1.9l2.5,0.3
		c5.5,0.5,7.7,3.2,7.7,7.1c0,4.8-3.7,8-10.4,8C181.9,360,178.4,358.3,176.2,356.4z"/>
	<path d="M201.1,342.4v-5.7c0-0.3,0.2-0.5,0.5-0.5h5.8c0.3,0,0.5,0.2,0.5,0.5v5.7c0,0.3-0.2,0.5-0.5,0.5h-5.8
		C201.3,342.9,201.1,342.7,201.1,342.4z M201.1,353.2c0-0.3,0.2-0.5,0.5-0.5h5.8c0.3,0,0.5,0.2,0.5,0.5v5.8c0,0.3-0.2,0.5-0.5,0.5
		h-5.8c-0.3,0-0.5-0.2-0.5-0.5V353.2z"/>
	<path d="M225.3,327.3c0-0.3,0.2-0.5,0.5-0.5H238c5.7,0,9.7,2.4,11.3,7.3c0.6,1.8,0.9,3.6,0.9,9s-0.3,7.2-0.9,9
		c-1.6,4.9-5.6,7.3-11.3,7.3h-12.1c-0.3,0-0.5-0.2-0.5-0.5V327.3z M232.7,353.1h3.7c3.3,0,5.2-1,6-3.6c0.3-1,0.5-2.2,0.5-6.4
		s-0.2-5.5-0.5-6.4c-0.8-2.6-2.8-3.6-6-3.6h-3.7c-0.2,0-0.3,0.1-0.3,0.3v19.5C232.4,353.1,232.5,353.1,232.7,353.1z"/>
	<path d="M255,327.3c0-0.3,0.2-0.5,0.5-0.5h6.1c0.3,0,0.5,0.2,0.5,0.5V359c0,0.3-0.2,0.5-0.5,0.5h-6.1c-0.3,0-0.5-0.2-0.5-0.5V327.3
		z"/>
	<path d="M267.7,327.3c0-0.3,0.2-0.5,0.5-0.5h5.8c0.3,0,0.6,0.1,0.8,0.5l11.5,20.5h0.2v-20.5c0-0.3,0.2-0.5,0.5-0.5h5.4
		c0.3,0,0.5,0.2,0.5,0.5V359c0,0.3-0.2,0.5-0.5,0.5h-5.7c-0.4,0-0.6-0.1-0.8-0.5l-11.6-20.5h-0.2V359c0,0.3-0.2,0.5-0.5,0.5h-5.4
		c-0.3,0-0.5-0.2-0.5-0.5V327.3z"/>
	<path d="M310.5,327.3c0-0.3,0.2-0.5,0.5-0.5h5.8c0.3,0,0.6,0.1,0.8,0.5l11.5,20.5h0.2v-20.5c0-0.3,0.2-0.5,0.5-0.5h5.4
		c0.3,0,0.5,0.2,0.5,0.5V359c0,0.3-0.2,0.5-0.5,0.5h-5.7c-0.4,0-0.6-0.1-0.8-0.5l-11.6-20.5h-0.2V359c0,0.3-0.2,0.5-0.5,0.5h-5.4
		c-0.3,0-0.5-0.2-0.5-0.5V327.3z"/>
	<path d="M340.9,353.3c-0.5-1.4-0.8-3.1-0.8-5.5c0-2.4,0.3-4.1,0.8-5.6c1.3-4.2,5-6.6,10-6.6c5.1,0,8.7,2.4,10,6.5
		c0.5,1.5,0.8,3.2,0.8,7.2c0,0.3-0.2,0.5-0.5,0.5h-14.1c-0.2,0-0.3,0.1-0.3,0.3c0,0.5,0.1,0.9,0.3,1.3c0.6,2,2.4,3.1,4.8,3.1
		c2.3,0,4-0.8,5.3-2.1c0.2-0.2,0.5-0.2,0.7,0l3.2,3c0.2,0.2,0.2,0.5,0,0.7c-2.2,2.4-5.6,3.9-9.9,3.9
		C345.9,360,342.3,357.5,340.9,353.3z M354.7,345.4c0.2,0,0.3-0.1,0.3-0.3c0-0.7-0.1-1.2-0.2-1.7c-0.5-1.6-2-2.5-3.9-2.5
		c-1.9,0-3.4,1-3.9,2.5c-0.1,0.5-0.2,1-0.2,1.7c0,0.2,0.1,0.3,0.3,0.3H354.7z"/>
	<path d="M379.8,359.4c-0.3,0-0.5-0.1-0.7-0.4l-4.2-6.3h0l-4.1,6.3c-0.2,0.3-0.4,0.4-0.8,0.4h-6.2c-0.4,0-0.5-0.2-0.3-0.5l7.8-11.6
		l-7.2-10.7c-0.1-0.2,0-0.5,0.3-0.5h6.2c0.3,0,0.6,0.1,0.8,0.4l3.5,5.5h0l3.6-5.5c0.2-0.3,0.4-0.4,0.8-0.4h6.2
		c0.4,0,0.5,0.2,0.4,0.5l-7.2,10.7l7.8,11.6c0.1,0.2,0,0.5-0.4,0.5H379.8z"/>
	<path d="M398.2,359.7c-5.4,0-7.4-2.4-7.4-7.7v-10.6c0-0.2-0.1-0.3-0.3-0.3h-1.4c-0.3,0-0.5-0.2-0.5-0.5v-4c0-0.3,0.2-0.5,0.5-0.5
		h1.4c0.2,0,0.3-0.1,0.3-0.3v-6.2c0-0.3,0.2-0.5,0.5-0.5h5.7c0.3,0,0.5,0.2,0.5,0.5v6.2c0,0.2,0.1,0.3,0.3,0.3h3
		c0.3,0,0.5,0.2,0.5,0.5v4c0,0.3-0.2,0.5-0.5,0.5h-3c-0.2,0-0.3,0.1-0.3,0.3v10.3c0,1.7,0.6,2.3,2.1,2.3h1.2c0.3,0,0.5,0.2,0.5,0.5
		v4.8c0,0.3-0.2,0.5-0.5,0.5H398.2z"/>
	<path d="M423.2,341.3c-2.4-3-3.5-4.9-3.5-7.3c0-4.5,3.8-7.7,8.6-7.7c5.2,0,8.5,3.5,8.5,7.6c0,3-1.4,5.1-5.5,8.2l4.3,5.4l3.2-3.6
		c0.2-0.2,0.5-0.2,0.7,0l3.3,2.8c0.2,0.2,0.2,0.4,0,0.7l-3.8,4.6l0.9,1.1c0.6,0.8,1.1,1,1.9,1h0.7c0.3,0,0.5,0.2,0.5,0.5v4.6
		c0,0.3-0.2,0.5-0.5,0.5h-2c-2.3,0-3.5-0.5-5.1-2.6l-0.4-0.4c-2.7,2.6-5.1,3.6-8.4,3.6c-6,0-9.4-3.6-9.4-8.8
		C417.1,347.7,418.7,344.8,423.2,341.3z M427,354.3c1.5,0,2.8-0.6,4.6-2.3l-5-6.4c-2.5,2.1-3.3,3.5-3.3,5
		C423.3,352.8,424.6,354.3,427,354.3z M430.9,333.9c0-1.5-1.1-2.6-2.5-2.6c-1.5,0-2.5,1.1-2.5,2.6c0,1,0.5,1.9,2.1,3.9
		C430.3,336,430.9,335.1,430.9,333.9z"/>
	<path d="M457.2,354.5c1.6-1.1,4.1-2.7,6.1-5h-5v-4.9h6.9v-2.2H458v-5h3.5c-0.1-0.5-0.3-2.2-0.8-3.9h-2v-5h6.5V326h5.3v2.4h6v5h-1.8
		c-0.3,1.4-0.4,2.1-0.9,3.9h3v5h-6.4v2.2h6v4.9H472c2.1,2.3,3.2,3.2,3.8,3.6l-2.6,4.8c-1.3-1.4-2-2.3-2.9-3.8v8.1h-5.1v-7.5
		c-2.6,3.4-4.6,4.9-5.7,5.7L457.2,354.5z M465.6,333.5c0.5,2,0.6,3,0.8,3.9h2.6c0.3-1.3,0.6-2.5,0.7-3.9H465.6z M493.9,331.1
		c-3.1,1.3-7.4,2.2-10.8,2.3v3.9h10.8v5.6h-3v19.3h-5.5v-19.3h-2.4v1.5c0,10.7-3.3,15.8-4.6,17.8l-5-3.3c2.5-3.5,4.3-7.3,4.3-14.5
		v-16.1c7.8-0.4,10.6-1.2,13.8-2.5L493.9,331.1z"/>
	<path d="M518.7,330.9l6,6.5v20.8h-27.7v-5.9h21.3v-15.5h-20.9v-5.9H518.7z M521.7,326.7c2,2,3.2,3.8,4.9,6.5l-2.5,2.1
		c-1.6-2.8-2.7-4.4-4.7-6.7L521.7,326.7z M526.7,324.9c1.9,2.1,3,3.7,4.7,6.6l-2.6,2c-1.4-2.8-2.5-4.4-4.5-6.8L526.7,324.9z"/>
</g>
<g>
</g>
<g>
</g>
<g>
</g>
<g>
</g>
<g>
</g>
<g>
</g>
<g>
</g>
<g>
</g>
<g>
</g>
<g>
</g>
<g>
</g>
<g>
</g>
<g>
</g>
<g>
</g>
<g>
</g>
</svg>
