<?xml version="1.0" encoding="utf-8"?>
<!-- Generator: Adobe Illustrator 21.1.0, SVG Export Plug-In . SVG Version: 6.00 Build 0)  -->
<svg version="1.1" id="レイヤー_1" xmlns="http://www.w3.org/2000/svg" xmlns:xlink="http://www.w3.org/1999/xlink" x="0px"
	 y="0px" viewBox="0 0 1417.3 595.3" style="enable-background:new 0 0 1417.3 595.3;" xml:space="preserve">
<g>
	<path d="M-237.3-40.6l-4.1,0.5l-0.9-2.1c-1.2-3.1-3.1-5.6-5.4-7.5h-21v72.4c1.3,1.6,2.9,2.8,5.1,3.5l3.7,1.6v4.4h-28v-4.4l3.7-1.6
		c2.1-0.9,3.9-1.9,5.2-3.5v-72.4h-21.3c-2.1,1.9-4,4.4-5.2,7.5l-1.1,2.1l-4.1-0.5l1.7-16.2c3.7,0.4,7.5,0.7,11.2,0.7h47.2
		c3.7,0,7.5-0.3,11.2-0.7L-237.3-40.6z"/>
	<path d="M-170,28.6v3.7h-23.5v-3.7l2.1-1.2c2.3-0.9,3.9-2.4,5.2-4V2.5c0-12.7-5.6-16.7-11-16.7c-3.2,0-10.4,2.5-15.1,4.5v33.2
		c1.3,1.6,3.1,3.1,5.2,4l2.1,1.2v3.7h-23.5v-3.7l2.1-1.2c2.3-0.9,3.9-2.4,5.2-4V-46c0-1.7-3.2-4.4-7.2-6.8l0.5-2.5
		c4-1.7,7.2-3.5,11.9-6.4l3.5,0.5v48.4c7.4-4.9,14.4-7.4,21-7.4c6.8,0,14,4.9,14,18.9v24.7c1.3,1.6,3.1,3.1,5.2,4L-170,28.6z"/>
	<path d="M-116.8,21l2.4,1.9c-1.2,1.5-11,10.7-21.7,10.7c-8.8,0-25.1-5.4-25-25.8c0.1-18.5,15.7-28.5,28-28.5
		c9.9,0,18.9,8.3,18.9,17.8c0,1.5-0.7,2.4-2,2.4h-35c-0.3,2-0.3,4.1-0.1,6.4c0.5,13.8,10.4,21.8,18.6,21.8
		C-125.9,27.8-119.2,22.8-116.8,21z M-151-4l26.9-0.5c0-6.4-6.2-11.6-12-11.5C-145.3-15.9-149.6-11.4-151-4z"/>
	<path d="M-20,58v3.7h-23.5V58l2.1-1.2c2.1-0.9,3.9-2.4,5.2-4V27.4c-3.1,2.8-9.8,6.2-16.6,6.2c-7.8,0-22.5-4-22.6-24.5
		c-0.1-20.7,17.1-29.8,28.2-29.8c5.9,0,9.5,0.7,13.5,3.2l4.8-3.1l1.5,1.1v72.4c1.3,1.6,3.1,3.1,5.2,4L-20,58z M-36.1,23.8V-11
		c-2.5-3.5-6.2-6-11.4-6c-8.8,0-19.4,3.5-18.7,25.3c0.4,14.4,11.4,19.4,16.5,19.4C-44.7,27.8-39.1,26.5-36.1,23.8z"/>
	<path d="M45.1,28.3c-4.8,1.5-10.2,3.2-14.3,4.7c-0.4,0.1-0.7,0.1-1.1-0.1c-1.5-1.5-2.5-4.4-2.5-7.8v-1.9c-7.6,6.3-14,9.9-20.6,9.9
		C-0.3,33.1-7,28.5-7,14.6v-13h-0.1v-6.3c0-1.7-3.2-4.4-7.2-6.8l0.5-2.5c4-1.7,7.2-3.5,11.9-6.4L1.6-20v11.2h0.1v21
		c0,12.7,5.2,15.1,10.6,15.1c4.4,0,10.6-4.3,14.7-7.8v-2.9h0.1V-4.8c0-1.7-3.2-4.4-7.2-6.8l0.5-2.5c4-1.7,7.2-3.5,11.9-6.4l3.5,0.5
		v37.6h-0.1v6.3c0,1.5,0.7,3.2,1.6,3.2c0.9,0,4.5-0.8,6.3-1.2L45.1,28.3z"/>
	<path d="M76.8,28.6v3.7H53.2v-3.7l2.1-1.2c2.3-0.9,3.9-2.4,5.2-4V-4.8c0-1.7-3.2-4.4-7.2-6.8l0.5-2.5c4-1.7,7.2-3.5,11.9-6.4
		l3.5,0.5v43.5c1.3,1.6,3.1,3.1,5.2,4L76.8,28.6z M56.3-46.9c0-3.7,2.9-6.7,6.7-6.7c3.5,0,6.4,2.9,6.4,6.7s-2.9,6.6-6.4,6.6
		C59.2-40.3,56.3-43.2,56.3-46.9z"/>
	<path d="M130.7-5.6h-3.2l-1.3-5.9c-2.7-2.1-7.9-4.3-13.8-3.9C99.6-14.5,96.8-7.1,97.5,6c0.5,13.8,10.4,21.8,18.6,21.8
		c6.8,0,13.8-4.8,16.2-6.8l2,1.7c-1.2,1.5-10,10.8-21.3,10.8c-8.8,0-25.1-5.4-25-25.8c0.1-18.5,17.7-28.5,30-28.5
		c8.7,0,12.8,2.7,15.1,4.4C132.3-12.9,131.2-9,130.7-5.6z"/>
	<path d="M204.1,31.9c-2.7,0.3-11.5,0.5-14.2,0.5c-4.4-2.4-7.5-5.8-11.1-9.1c-6-5.8-13.9-13.8-20.1-19.4v19.4c1.3,1.6,3.1,3.1,5.2,4
		l2.1,1.2v3.7h-23.4v-3.7l2.1-1.2c2.3-0.9,3.9-2.4,5.2-4V-46c0-1.7-3.2-4.4-7.2-6.8l0.5-2.5c4-1.7,7.2-3.5,11.9-6.4l3.5,0.5V2.2
		c4.3-3.3,11.5-9,16.7-14.2c-0.4-1.2-1.9-2.4-3.9-3.1l-1.7-0.7v-3.7h22.6v3.7l-2.7,0.7c-2.4,0.5-5.4,1.9-7.6,3.1
		C177-7.5,171.5-3.4,167.7,0c9.2,9.5,18.6,18.9,26.6,26.2c2.4,1.2,6.3,2.9,9.2,3.7L204.1,31.9z"/>
	<path d="M294.1,3.3c-0.1,15.9-8.6,30-26.1,30c-8,0-13.2-1.3-17.4-3.7l-3.2,2.8l-0.5,0.4l-1.7-1.1v-71.3H245v-6.3
		c0-1.7-3.2-4.4-7.2-6.8l0.5-2.5c4-1.7,7.2-3.5,11.9-6.4l3.5,0.5v21.4h0.1v27.3c6.2-6,12.2-8,19.1-8
		C282.5-20.6,294.3-11.7,294.1,3.3z M267.4-14.6c-4.7,0-9.5,2.9-13.1,6C254-8.3,254-8.2,254-8.1V20c1.3,5.1,6,9.2,15.2,9.2
		c10.3,0,15.2-9.9,15.5-23.3C284.9-9.9,273.4-14.6,267.4-14.6z"/>
	<path d="M345.4-15.4c-2,1.9-7.1,7.1-7.1,7.1c-1.7-1.7-4.7-4.7-8.3-4.7c-1.7,0-5.5,4.7-8.7,9v27.6c1.3,1.6,3.1,3.1,5.2,4l2.1,1.2
		v3.7h-23.5v-3.7l2.1-1.2c2.3-0.9,3.9-2.4,5.2-4V-4.8c0-1.7-3.2-4.4-7.2-6.8l0.5-2.5c4-1.7,7.2-3.5,11.9-6.4l3.5,0.5v11
		c3.3-5.2,8.4-11.9,11.9-11.9C338-20.8,343.5-17.4,345.4-15.4z"/>
	<path d="M350.5,7.2c0-15.2,11.4-27.8,27.6-27.8c18.5,0,25.4,13.2,25.4,26.5c0,15.2-11.5,27.8-27.7,27.8
		C357.4,33.7,350.5,20.4,350.5,7.2z M393.8,7.2c0-13.2-7.1-24.1-18.1-23.9c-11,0.1-15.5,10.8-15.5,22.6c0,13.2,7,24.1,17.9,23.9
		C389.9,29.7,393.8,18.7,393.8,7.2z"/>
	<path d="M464.4,33.3c-0.4,1.3-1.6,1.2-2,0l-14.2-35l-12.7,34.9c-0.4,1.2-1.5,1.2-1.9,0L416.9-11c-2-1.6-4-3.1-7.2-3.7l-2.5-0.9
		v-3.7h27.7v3.7l-2.1,0.7c-2.5,0.7-4.4,2.1-5.6,3.9l10.4,27.8l12.7-34.2c0.4-1.2,1.5-1.3,1.9,0l14.3,35.7L477.8-11
		c-1.2-1.6-2.9-3.1-5.4-3.9l-1.9-0.7v-3.7h20.2v3.7l-1.9,0.7c-2.9,0.7-5.2,2.1-7.1,4L464.4,33.3z"/>
	<path d="M553.7,28.6v3.7h-23.5v-3.7l2.1-1.2c2.3-0.9,3.9-2.4,5.2-4V2.5c0-12.7-5.6-16.7-11-16.7c-3.2,0-10.4,2.5-15.1,4.5v33.2
		c1.3,1.6,3.1,3.1,5.2,4l2.1,1.2v3.7h-23.5v-3.7l2.1-1.2c2.3-0.9,3.9-2.4,5.2-4V-4.8c0-1.7-3.2-4.4-7.2-6.8l0.5-2.5
		c4-1.7,7.2-3.5,11.9-6.4l3.5,0.5v7.2c7.4-4.9,14.4-7.4,21-7.4c6.8,0,14,4.9,14,18.9v24.7c1.3,1.6,3.1,3.1,5.2,4L553.7,28.6z"/>
	<path d="M637-55.8l-4.8,7.4c-1.2-1.6-5.9-8.3-12.3-8.3c-3.1,0-11,2.7-11,15.4v23.8h15l-2.7,5.9h-12.3v35c1.3,1.6,3.1,3.1,5.2,4
		l2.1,1.2v3.7h-23.5v-3.7l2.1-1.2c2.1-0.9,3.9-2.4,5.2-4v-34.9h-6.4c-0.4,0-0.9-0.3-0.8-0.9l0.3-1.7c0.1-0.5,0.7-1.2,1.3-1.3
		l3.1-0.8c1.7-0.4,2.5-1.6,2.5-3.2v-14.2c0-8.8,3.5-13.4,7.5-18.6c4.3-5.6,10.7-9.8,15.9-9.8C631.4-62,635-57.8,637-55.8z"/>
	<path d="M627.1,7.2c0-15.2,11.4-27.8,27.6-27.8c18.5,0,25.4,13.2,25.4,26.5c0,15.2-11.5,27.8-27.7,27.8
		C634.1,33.7,627.1,20.4,627.1,7.2z M670.3,7.2c0-13.2-7.1-24.1-18.1-23.9c-11,0.1-15.4,10.8-15.4,22.6c0,13.2,7,24.1,17.9,23.9
		C666.6,29.7,670.3,18.7,670.3,7.2z"/>
	<path d="M687.4,28.6l1.9-0.5c3.1-0.8,5.9-1.9,8.6-3.5l13-17.5l-13.2-18.2c-2.5-1.7-5.2-2.8-8.3-3.7l-1.7-0.5v-3.7h24.6v3.7
		l-1.1,0.5c-1.7,0.7-2.9,1.9-3.5,3.3l8.6,12.2l8.4-12c-0.7-1.5-2-2.8-4-3.5l-0.9-0.5v-3.7h19.5v3.7l-1.9,0.5c-2.9,0.9-5.6,2-8.3,3.7
		L718.2,3.4l15,20.7c2.9,1.9,6.2,3.2,9.5,4.4v3.7h-24.5v-3.7l1.3-0.7c1.9-0.5,3.2-1.9,3.9-3.1L713,9.9l-10.8,15.2
		c0.9,1.3,2.4,2.4,4.4,2.9l1.6,0.5v3.7h-20.7L687.4,28.6L687.4,28.6z"/>
	<path d="M795,32.3c0,10.2-4.9,21-19.5,28.4l-1.3-1.3c7.5-7.8,11.9-14.2,11.9-27V1.6h-0.1v-6.3c0-1.7-3.2-4.4-7.2-6.8l0.5-2.5
		c4-1.7,7.2-3.5,11.9-6.4l3.5,0.5V1.6h0.1V15C794.8,21,795,26.1,795,32.3z M781.7-46.9c0-3.7,2.9-6.7,6.7-6.7c3.5,0,6.4,2.9,6.4,6.7
		s-2.9,6.6-6.4,6.6C784.7-40.3,781.7-43.2,781.7-46.9z"/>
	<path d="M868,28.3c-4.8,1.5-10.2,3.2-14.3,4.7c-0.4,0.1-0.7,0.1-1.1-0.1c-1.5-1.5-2.5-4.4-2.5-7.8v-1.9c-7.6,6.3-14,9.9-20.6,9.9
		c-6.8,0-13.5-4.7-13.5-18.6v-13h-0.1v-6.3c0-1.7-3.2-4.4-7.2-6.8l0.5-2.5c4-1.7,7.2-3.5,11.9-6.4l3.5,0.5v11.2h0.1v21
		c0,12.7,5.2,15.1,10.6,15.1c4.4,0,10.6-4.3,14.7-7.8v-2.9h0.1V-4.8c0-1.7-3.2-4.4-7.2-6.8l0.5-2.5c4-1.7,7.2-3.5,11.9-6.4l3.5,0.5
		v37.6h-0.1v6.3c0,1.5,0.7,3.2,1.6,3.2c0.9,0,4.5-0.8,6.3-1.2L868,28.3z"/>
	<path d="M963.9,28.6v3.7h-23.5v-3.7l2.3-1.2c2.1-0.9,3.9-2.4,5.1-4V2.5c0-12.7-5.6-16.7-11-16.7c-2.9,0-9,1.9-13.5,3.9
		c0.9,2.5,1.3,5.6,1.3,9.1v24.7c1.3,1.6,3.1,3.1,5.1,4l2.3,1.2v3.7h-23.5v-3.7l2.3-1.2c2.3-0.9,3.9-2.4,5.1-4v-21
		c0-12.7-5.6-16.7-11-16.7c-2.7,0-7.8,1.6-12.2,3.3v34.2c1.3,1.6,3.1,3.1,5.2,4l2.1,1.2v3.7h-23.5v-3.7l2.1-1.2
		c2.3-0.9,3.9-2.4,5.2-4V-4.8c0-1.7-3.2-4.4-7.2-6.8l0.5-2.5c4-1.7,7.2-3.5,11.9-6.4l3.5,0.5v5.5c6.3-3.9,12.3-5.6,18.1-5.6
		c4.3,0,8.8,2,11.5,7.1c7.2-4.7,14.2-7.1,20.6-7.1c6.8,0,13.9,4.9,13.9,18.9v24.7c1.3,1.6,3.1,3.1,5.2,4L963.9,28.6z"/>
	<path d="M1028.4,3.3c-0.1,15.9-7.8,30.8-26.1,30.8c-6,0-10.6-0.7-14.2-2.4v21.1c1.3,1.6,3.1,3.1,5.1,4l2.3,1.2v3.7H972V58l2.3-1.2
		c2.1-0.9,3.9-2.4,5.1-4V-4.8c0-1.7-3.2-4.4-7.2-6.8l0.5-2.5c4-1.7,7.2-3.5,11.9-6.4l3.6,0.7v6.4c5.6-4.8,11.5-7.2,19.1-7.2
		C1015.8-20.6,1028.5-12.6,1028.4,3.3z M1001.7-14.6c-4.4,0-9.2,1.9-13.4,5.6v29.7c2.4,4.8,6.8,8.7,15.2,8.7
		c10.3,0,15.2-9.9,15.5-23.3C1019-9.9,1007.7-14.6,1001.7-14.6z"/>
	<path d="M1040.7,17.5h3.5l0.7,2.8c0.5,2.1,1.6,4.7,2.8,6.8c1.9,1.3,4.4,2.7,7.5,2.7c6.2,0,11-3.3,10.8-9.1
		c-0.1-4.5-6-7.5-11.5-10.7c-5.8-3.7-11.5-8.6-12-16.7c-0.5-8.3,4.9-14,14.8-14c4.5,0,8.6,1.2,13.2,3.1c-0.1,3.1-0.3,7.4-0.3,10.7
		h-3.9l-0.5-1.9c-0.4-2.4-1.5-4.7-2.7-6.8c-1.3-0.9-4.5-1.6-6.3-1.6c-4.1,0-8.6,1.9-8.3,7c0.3,4.1,6.3,7.6,11.4,10.8
		c5.9,3.5,12.2,8.4,12.7,16.9c0.5,11.5-8.3,16.2-17.8,16.2c-5.8,0-9.6-1.1-14.8-3.5C1040.5,26.5,1040.7,21.1,1040.7,17.5z"/>
	<path d="M1114,7.2c0-15.2,11.4-27.8,27.6-27.8c18.5,0,25.4,13.2,25.4,26.5c0,15.2-11.5,27.8-27.7,27.8
		C1121,33.7,1114,20.4,1114,7.2z M1157.2,7.2c0-13.2-7.1-24.1-18.1-23.9c-11,0.1-15.4,10.8-15.4,22.6c0,13.2,7,24.1,17.9,23.9
		C1153.5,29.7,1157.2,18.7,1157.2,7.2z"/>
	<path d="M1170.6-19.2h24.2v3.7l-1.7,0.5c-2.3,0.9-3.7,1.9-4.7,3.7L1200,18l11.9-29.2c-0.9-1.5-2.3-2.8-4.1-3.5l-1.9-0.7V-19h18.7
		v3.7l-1.5,0.5c-2.7,0.9-4.7,2.1-6.7,4l-18.2,44.1c-0.4,1.2-1.5,1.2-1.9,0l-17.8-44.1c-1.9-1.9-3.9-3.1-6.3-3.9l-1.6-0.7v-3.9
		H1170.6z"/>
	<path d="M1272.7,21l2.4,1.9c-1.2,1.5-11.1,10.7-21.7,10.7c-8.8,0-25.1-5.4-25-25.8c0.1-18.5,15.7-28.5,28-28.5
		c9.9,0,18.9,8.3,18.9,17.8c0,1.5-0.7,2.4-2,2.4h-35c-0.3,2-0.3,4.1-0.1,6.4c0.5,13.8,10.4,21.8,18.6,21.8
		C1263.7,27.8,1270.3,22.8,1272.7,21z M1238.4-4l26.9-0.5c0-6.4-6.2-11.6-12-11.5C1244.2-15.9,1239.9-11.4,1238.4-4z"/>
	<path d="M1325.7-15.4c-2,1.9-7.1,7.1-7.1,7.1c-1.7-1.7-4.7-4.7-8.3-4.7c-1.7,0-5.5,4.7-8.7,9v27.6c1.3,1.6,3.1,3.1,5.2,4l2.1,1.2
		v3.7h-23.5v-3.7l2.1-1.2c2.3-0.9,3.9-2.4,5.2-4V-4.8c0-1.7-3.2-4.4-7.2-6.8l0.5-2.5c4-1.7,7.2-3.5,11.9-6.4l3.5,0.5v11
		c3.3-5.2,8.4-11.9,11.9-11.9C1318.3-20.8,1323.8-17.4,1325.7-15.4z"/>
	<path d="M1388.9,27.4l1.1,2.4c-3.3,2.1-6.3,3.2-10.4,3.2c-8.6,0-13.1-4.5-13-16.1l0.1-8.7v-19.8h-7.2c-0.4,0-0.9-0.3-0.7-0.9
		l0.1-0.4c0.3-2,0.9-2.8,1.9-3.3c5.1-2.9,10.2-9.1,11.4-17.9h3.3v16.7h15l-2.7,5.9h-12.3v27.8c0,4.7,0.1,10.6,5.6,11.6
		C1383.6,28.3,1386,28.3,1388.9,27.4z"/>
	<path d="M1458,28.6v3.7h-23.5v-3.7l2.3-1.2c2.1-0.9,3.9-2.4,5.1-4V2.5c0-12.7-5.6-16.7-11-16.7c-3.2,0-10.4,2.5-15.1,4.5v33.2
		c1.3,1.6,3.1,3.1,5.2,4l2.1,1.2v3.7h-23.5v-3.7l2.1-1.2c2.3-0.9,3.9-2.4,5.2-4V-46c0-1.7-3.2-4.4-7.2-6.8l0.5-2.5
		c4-1.7,7.2-3.5,11.9-6.4l3.5,0.5v48.4c7.4-4.9,14.4-7.4,21-7.4c6.8,0,14,4.9,14,18.9v24.7c1.3,1.6,3.1,3.1,5.1,4L1458,28.6z"/>
	<path d="M1511.1,21l2.4,1.9c-1.2,1.5-11,10.7-21.7,10.7c-8.8,0-25.1-5.4-25-25.8c0.1-18.5,15.7-28.5,28-28.5
		c9.9,0,18.9,8.3,18.9,17.8c0,1.5-0.7,2.4-2,2.4h-35.2c-0.3,2-0.3,4.1-0.1,6.4c0.5,13.8,10.4,21.8,18.6,21.8
		C1502.1,27.8,1508.6,22.8,1511.1,21z M1476.8-4l26.9-0.5c0-6.4-6.2-11.6-12-11.5C1482.6-15.9,1478.3-11.4,1476.8-4z"/>
	<path d="M1576.7,28.6v3.7h-23.5v-3.7l2.1-1.2c2.3-0.9,3.9-2.4,5.2-4V-46c0-1.7-3.2-4.4-7.2-6.8l0.5-2.5c4-1.7,7.2-3.5,11.9-6.4
		l3.5,0.5v84.7c1.3,1.6,3.1,3.1,5.2,4L1576.7,28.6z"/>
	<path d="M1587,23.6c0-4,2.7-7.2,5.4-9.4c4.3-3.7,18.7-8.6,20.9-9.2c0.7-0.3,1.5-0.4,1.9-1.1v-5.5c0-11.4-4.9-13.6-9.4-13.2
		c-4.8,0.4-7.2,5.2-4.8,9.8l-8,4.4c-1.7-4.3-0.3-10.2,1.9-11.9c3.7-3.2,15-8,18.6-8c6.3,0,10.7,3.7,10.7,18.5V24
		c0,2.8,2.5,3.2,4.5,3.2c1.6,0,4.1-0.5,4.9-1.3l1.2,2.3c-4.7,3.7-9.8,5.4-13,5.4c-4.5,0-5.8-2-6.4-5.8c-5.5,3.5-11.9,6.2-17.3,6.2
		C1591.3,33.7,1587,28.9,1587,23.6z M1615.1,24.6V7.2c-7,2.4-18.7,6-18.7,14c0,5.2,4.4,7,8.4,7C1607.5,28.2,1613.3,26.3,1615.1,24.6
		z"/>
	<path d="M1684.8,20.6v12.2c-4.4-0.1-12.4-0.4-16.9-0.4h-29.2c-1.2,0-1.6-0.9-0.9-1.7l33.7-45.3H1649c-2.4,1.3-4.3,2.9-5.9,5.4
		l-1.2,1.3h-3.7L1643-20c3.5,0.4,9.4,0.9,13,0.9h26.4c1.2,0,1.6,0.9,0.9,1.7l-33.7,45.3h26.5c1.7-1.3,3.2-3.1,4.1-5.2l1.1-2.1h3.6
		V20.6z"/>
	<path d="M1710.4-19.2v3.7l-1.5,0.5c-2.1,0.9-3.9,2.1-4.8,3.7l11.6,29.2l12-29.2c-0.9-1.5-2.4-2.8-4.4-3.7l-1.3-0.5v-3.7h19.1v3.7
		l-1.9,0.5c-2.7,0.9-4.8,2.4-7,3.9l-25.4,61.5c-3.1,7.6-10.3,12-13.6,12c-2.3,0-4.8-0.9-6.8-1.9l3.2-9c4.3,2.9,11,2.8,13.5-3.2
		l7.5-18.5l-16.5-40.8c-1.7-1.7-3.9-3.1-6.3-4l-1.6-0.7v-3.7C1686.3-19.2,1710.4-19.2,1710.4-19.2z"/>
	<path d="M1831.3,28.3c-4.8,1.5-10.2,3.2-14.3,4.7c-0.4,0.1-0.7,0.1-1.1-0.1c-1.3-1.3-2.4-3.9-2.5-7c-2.9,3.2-9.8,7.6-16.6,7.6
		c-7.8,0-22.5-4-22.6-24.5c-0.1-20.7,17.1-29.8,28.2-29.8c4.7,0,7.9,1.2,11,3.2V-46c0-1.7-3.2-4.4-7.2-6.8l0.5-2.5
		c4-1.7,7.2-3.5,11.9-6.4l3.5,0.5v84.9c0,1.5,0.7,3.2,1.6,3.2c0.9,0,4.5-0.8,6.3-1.2L1831.3,28.3z M1813.5,22.3v-32.6
		c-2.1-3.9-5.8-6.6-11.4-6.6c-8.8,0-19.4,3.5-18.7,25.3c0.4,14.4,11.4,19.4,16.5,19.4C1804.8,27.8,1810.6,25.7,1813.5,22.3z"/>
	<path d="M1840.9,7.2c0-15.2,11.4-27.8,27.6-27.8c18.5,0,25.4,13.2,25.4,26.5c0,15.2-11.5,27.8-27.7,27.8
		C1847.8,33.7,1840.9,20.4,1840.9,7.2z M1884.1,7.2c0-13.2-7.1-24.1-18.1-23.9c-11,0.1-15.4,10.8-15.4,22.6c0,13.2,7,24.1,17.9,23.9
		C1880.4,29.7,1884.1,18.7,1884.1,7.2z"/>
	<path d="M1951.4,34.3c0,15.7-18.9,22.9-32.1,22.9c-11.4,0-17.4-6.3-17.4-15.2c0-4.3,6.8-8,11.5-10.2c-3.5-0.5-5.9-1.6-6.2-3.2
		c-0.4-2,6-8.4,10.4-13.8c-6.6-2.7-11.5-8.4-11.5-15.7c0-10,9.8-19,19.7-19c4.4,0,8.3,1.3,11.2,3.3h14.4l-1.9,3.3h-8.8
		c3.1,3.7,4.7,8.4,4.7,12.2c0,9.4-8.3,17.3-19.5,17.3c-2,0-4.1-0.3-6-0.9c-1.9,2.1-3.5,4.1-4.5,6.2c-2.5,4.9,23.8,3.1,27.8,3.9
		C1947.7,26.3,1951.4,29.7,1951.4,34.3z M1939.7,32.7c-2.8-0.5-15.2,0.3-23.9-0.8c-2.7,1.6-4.9,3.7-5.5,6.4c0,7.2,6,13,15.7,12.8
		c9.1-0.1,19.5-3.5,19.8-10.8C1945.8,36.8,1943.3,33.4,1939.7,32.7z M1915,0.1c0.9,6.7,5.4,13.2,12.3,12.2c8-1.2,9.1-7.6,8.6-14.7
		s-4.3-14.8-11.9-14C1915.8-15.5,1914.2-7,1915,0.1z"/>
	<path d="M1961.1,27.1c0-3.2,2.7-6.3,6.3-6.3c3.2,0,6.2,2.8,6.2,6c0,3.9-2.5,6.4-5.9,6.4C1963.9,33.3,1961.1,31,1961.1,27.1z"/>
</g>
<g>
	<path d="M-309,130.8c0-4,2.7-7.2,5.4-9.4c4.3-3.7,18.7-8.6,20.9-9.2c0.8-0.3,1.6-0.5,1.9-1.2v-5.4c0-11.4-4.9-13.6-9.4-13.2
		c-4.8,0.4-7.8,5.2-4.8,9.8l-8.2,4.4c-2.9-4.3-0.7-10.2,2.9-12.8c4.1-2.9,13.1-7.2,17.5-7.2c6.3,0,10.7,3.7,10.7,18.5v22.2
		c0,6.3,1.2,7.4,4.5,7.4c2,0,3.3-0.9,4.8-2l1.2,2.1c-4.7,3.7-9.5,5.6-12.8,5.6c-4.5,0-5.8-2-6.4-5.8c-5.5,3.5-11.9,6.2-17.3,6.2
		C-304.8,140.7-309,136-309,130.8z M-280.9,131.7v-17.4c-7.6,1.9-18.7,5.4-18.7,14c0,5.2,4.4,7,8.4,7
		C-288.6,135.3-282.8,133.3-280.9,131.7z"/>
	<path d="M-200.7,110.5c-0.1,15.9-8.6,30-26.1,30c-8.2,0-13.2-1.3-17.4-3.7l-3.2,2.8l-0.5,0.4l-1.7-1.1V61c0-4.1-1.9-6.2-5.9-9.2
		l0.3-1.3c4.7-1.6,7.6-2.9,12.6-5.8l1.9,1.2v48.6c6.2-6,12.2-8,19.1-8C-212.3,86.5-200.5,95.5-200.7,110.5z M-227.6,92.5
		c-4.7,0-9.6,2.9-13.1,6c-0.3,0.3-0.3,0.4-0.3,0.5v22.5c0.1,9.5,4,14.8,15.2,14.8c10.3,0,15.2-9.9,15.5-23.3
		C-210,97.2-221.5,92.5-227.6,92.5z"/>
	<path d="M-147.6,101h-3.2c0-1.5-0.1-2.9-0.1-4.4c-3.2-3.3-9.1-5.4-15-4.8c-12.7,0.9-15.5,8.3-14.8,21.4
		c0.5,13.8,10.4,21.8,18.6,21.8c10.4,0,13.8-4.8,16.2-6.8l1.7,1.2c-1.2,1.5-6.4,11.5-21,11.5c-8.8,0-25.1-5.4-25-25.8
		c0.1-18.5,17.7-28.5,30-28.5c8.7,0,12.8,2.7,15.1,4.4C-146.2,94.3-147.3,97.6-147.6,101z"/>
	<path d="M-79.2,135.5c-5.4,1.2-11.8,3.9-14.3,4.7c-0.4,0.1-0.8,0.1-1.1-0.1c-1.3-1.3-2.4-3.9-2.5-7c-2.9,3.2-9.8,7.6-16.6,7.6
		c-7.8,0-22.5-4-22.6-24.5c-0.1-20.7,17.1-29.8,28.2-29.8c4.7,0,7.9,1.2,11,3.2V61.1c0-4.1-1.9-6.2-5.9-9.2l0.3-1.3
		c4.7-1.6,7.6-2.9,12.6-5.8l1.9,1.2v81.5c0,3.1,0,6.7,2.1,6.7c1.5,0,3.2-0.3,5.8-1.2L-79.2,135.5z M-97,129.5V98.6
		c-1.3-4.5-5.9-8.4-11.4-8.4c-8.8,0-19.4,3.5-18.7,25.3c0.4,14.4,11.4,19.4,16.5,19.4C-105.7,134.8-99.9,132.8-97,129.5z"/>
	<path d="M-60,106.6c-0.3,2-0.3,4.1-0.1,6.4c0.5,13.8,10.4,21.8,18.6,21.8c10.4,0,13.8-4.8,16.2-6.8l1.7,1.2
		c-1.2,1.5-6.4,11.5-21,11.5c-8.8,0-25.1-5.4-25-25.8c0.1-18.5,15.7-28.5,28-28.5c9.9,0,18.9,8.3,18.9,17.8c0,1.5-0.7,2.4-2,2.4H-60
		z M-59.4,103.1h26.9c0-6.4-6.2-12.2-12-12C-53.8,91.2-57.9,95.7-59.4,103.1z"/>
	<path d="M32,51.3l-4.8,7.4c-1.2-1.6-5.9-8.2-12.3-8.2c-3.1,0-11,2.5-11,15.2v23.9h15l-2.7,5.9H3.6v35c0,3.2,1.9,5.2,5.2,5.2h2.1
		v3.7h-23.5v-3.7h2.1c3.2,0,5.2-1.9,5.2-5.2v-35h-6.4c-0.4,0-0.9-0.3-0.7-0.9l0.3-1.1c0.1-0.5,0.7-1.1,1.3-1.3l3.1-1.5
		c1.7-0.9,2.5-1.6,2.5-3.2V73.3c0-8.8,3.7-13.4,7.6-18.6c4.3-5.6,9.1-9.8,15.8-9.8C26.3,45.1,29.9,49.3,32,51.3z"/>
	<path d="M69.3,141.5c0,15.7-18.9,22.9-32.1,22.9c-11.4,0-17.4-6.3-17.4-15.2c0-4.3,6.8-8,11.5-10.2c-3.5-0.5-5.9-1.6-6.2-3.2
		c-0.4-2,6-8.4,10.4-13.8c-6.7-2.7-11.5-8.4-11.5-15.7c0-10,9.8-19,19.7-19c4.4,0,8.3,1.3,11.2,3.3h14.4L67.5,94h-8.8
		c3.1,3.7,4.7,8.4,4.7,12.2c0,9.4-8.3,17.3-19.5,17.3c-2,0-4.1-0.3-6-0.9c-1.9,2.1-3.5,4.1-4.5,6.2c-2.5,4.9,23.8,3.1,27.8,3.9
		C65.7,133.3,69.3,136.8,69.3,141.5z M57.5,139.9c-2.8-0.5-15.2,0.3-23.9-0.8c-2.7,1.6-4.9,3.7-5.5,6.4c0,7.2,6,13,15.7,12.8
		c9.1-0.1,19.5-3.5,19.9-10.8C63.7,143.9,61.2,140.6,57.5,139.9z M32.9,107.3c0.9,6.7,5.4,13.2,12.3,12.2c8.2-1.2,9.1-7.6,8.6-14.7
		s-4.3-14.8-11.9-14C33.7,91.6,32.1,100.2,32.9,107.3z"/>
	<path d="M136,135.7v3.7h-23.5v-3.7h2.1c3.2,0,5.2-1.9,5.2-5.2v-22.5c0-12.7-5.6-15.1-11-15.1c-4.4,0-11,4.4-15.1,7.9v29.7
		c0,3.2,1.9,5.2,5.2,5.2h2.1v3.7H77.6v-3.7h2.1c3.2,0,5.2-1.9,5.2-5.2V61.1c0-4.1-1.9-6.2-5.9-9.2l0.3-1.3c4.7-1.6,7.6-2.9,12.6-5.8
		l1.9,1.2v51.4c7.8-6.4,14.4-10,21-10c6.8,0,14,4.7,14,18.6v24.7c0,3.2,1.9,5.2,5.2,5.2h2V135.7z"/>
	<path d="M169.2,135.7v3.7h-23.5v-3.7h2.1c3.2,0,5.2-1.9,5.2-5.2v-28.2c0-4.1-1.9-6.2-5.9-9.2l0.3-1.3c4.7-1.6,7.6-2.9,12.6-5.8
		l1.9,1.2v43.5c0,3.2,1.9,5.2,5.2,5.2h2.1V135.7z M148.7,60.3c0-3.7,2.9-6.7,6.7-6.7c3.5,0,6.4,2.9,6.4,6.7c0,3.7-2.9,6.6-6.4,6.6
		C151.7,66.9,148.7,63.9,148.7,60.3z"/>
	<path d="M195.8,139.5c0,10.6-2.9,23.5-19.5,28.4l-1.2-1.3c6.8-4.5,11.8-10.4,11.8-27v-37.1c0-4.1-1.9-6.2-5.9-9.2l0.3-1.3
		c4.7-1.6,7.6-2.9,12.6-5.8l1.9,1.2v34.9C195.7,128.1,195.8,133.2,195.8,139.5z M182.6,60.3c0-3.7,2.9-6.7,6.7-6.7
		c3.5,0,6.4,2.9,6.4,6.7c0,3.7-2.9,6.6-6.4,6.6C185.5,66.9,182.6,63.9,182.6,60.3z"/>
	<path d="M274.2,138.3c-2.7,1.2-7.1,2.4-9.8,2.1c-7.8,0-10.7-4.3-15.4-8.6c-4.4-4-16.6-17.3-21.7-20.9v19.5c0,3.2,1.9,5.2,5.2,5.2
		h2.1v3.7h-23.5v-3.7h2.1c3.2,0,5.2-1.9,5.2-5.2V61.1c0-4.1-1.9-6.2-5.9-9.2l0.3-1.3c4.7-1.6,7.6-2.9,12.6-5.8l1.9,1.2v63.5
		c4.1-2.9,10.3-7.8,15.7-13.4c2.4-2.5,1.3-4.5-1.9-4.5h-1.9v-3.7h21.1v3.7h-1.6c-3.7,0-5.6,1.2-8.7,3.9c-5.2,4.4-9.9,8.8-13.5,11.9
		c11,12.2,22.1,23.4,28.2,26.5c2.4,1.2,5.9,2.7,8.8,3.3L274.2,138.3z"/>
	<path d="M301.5,135.7v3.7H278v-3.7h2.1c3.2,0,5.2-1.9,5.2-5.2V61.1c0-4.1-1.9-6.2-5.9-9.2l0.3-1.3c4.7-1.6,7.6-2.9,12.6-5.8
		l1.9,1.2v84.7c0,3.2,1.9,5.2,5.2,5.2h2.1V135.7z"/>
	<path d="M400.9,135.7v3.7h-23.5v-3.7h2.1c3.2,0,5.2-1.9,5.2-5.2v-22.5c0-12.7-5.6-15.1-11-15.1c-3.7,0-8.8,3.1-13,6.2
		c0.4,1.9,0.8,4.1,0.8,6.8v24.7c0,3.2,1.9,5.2,5.1,5.2h2.3v3.7h-23.5v-3.7h2.1c3.2,0,5.2-1.9,5.2-5.2v-22.5c0-12.7-5.6-15.1-11-15.1
		c-3.5,0-8.3,2.8-12.2,5.6v32.1c0,3.2,1.9,5.2,5.2,5.2h2.1v3.7h-23.5V136h2.1c3.2,0,5.2-1.9,5.2-5.2v-28.2c0-4.1-1.9-6.2-5.9-9.2
		l0.3-1.3c4.7-1.6,7.6-2.9,12.6-5.8l1.9,1.2v7.8c6.7-4.9,12.2-7.6,18.1-7.6c4.8,0,9.9,2.4,12.3,8.8c7.2-5.6,13.4-8.8,19.7-8.8
		c6.8,0,14,4.7,14,18.6v24.7c0,3.2,1.9,5.2,5.2,5.2h2V135.7z"/>
	<path d="M469.1,135.7v3.7h-23.5v-3.7h2.1c3.2,0,5.2-1.9,5.2-5.2v-22.5c0-12.7-5.6-15.1-11-15.1c-4.4,0-11,4.4-15.1,7.9v29.7
		c0,3.2,1.9,5.2,5.2,5.2h2.1v3.7h-23.5v-3.7h2.1c3.2,0,5.2-1.9,5.2-5.2v-28.2c0-4.1-1.9-6.2-5.9-9.2l0.3-1.3
		c4.7-1.6,7.6-2.9,12.6-5.8l1.9,1.2v10.2c7.8-6.4,14.4-10,21-10c6.8,0,14,4.7,14,18.6v24.7c0,3.2,1.9,5.2,5.2,5.2h2V135.7z"/>
	<path d="M477.9,114.2c0-15.2,11.4-27.8,27.6-27.8c18.5,0,25.4,13.2,25.4,26.5c0,15.2-11.5,27.8-27.7,27.8
		C484.8,140.7,477.9,127.5,477.9,114.2z M521.2,114.2c0-13.2-7.1-24.1-18.1-23.9c-11,0.1-15.5,10.8-15.5,22.6
		c0,13.2,7,24.1,17.9,23.9C517.3,136.8,521.2,125.8,521.2,114.2z"/>
	<path d="M596.7,110.5c-0.1,15.9-7.8,30.8-26.1,30.8c-6,0-10.6-0.7-14.2-2.4V160c0,3.2,1.9,5.2,5.2,5.2h2.1v3.7h-23.5v-3.7h2.3
		c3.2,0,5.1-1.9,5.1-5.2v-57.7c0-4.1-1.9-6.2-5.9-9.2l0.3-1.3c4.7-1.6,7.6-2.9,12.6-5.8l1.9,1.2v7.4c5.6-5.6,11.5-8,19.1-8
		C584.3,86.5,597,94.5,596.7,110.5z M570,92.5c-4.4,0-9.2,2.1-13.4,6.4v22.6c0,9.5,4,14.8,15.2,14.8c10.3,0,15.2-9.9,15.4-23.3
		C587.5,97.2,576,92.5,570,92.5z"/>
	<path d="M662.5,165.2v3.7H639v-3.7h2.3c3.2,0,5.1-1.9,5.1-5.2v-26.9c-3.1,3.2-9.8,7.6-16.6,7.6c-7.8,0-22.5-4-22.6-24.5
		c-0.1-20.7,17.1-29.8,28.2-29.8c5.4,0,8.8,1.6,12.2,4.1l6.2-4l1.5,1.1V160c0,3.2,1.9,5.2,5.2,5.2H662.5z M646.4,129.5V97.4
		c-1.9-4.1-6-7.2-11.4-7.2c-8.8,0-19.4,3.5-18.7,25.3c0.4,14.4,11.4,19.4,16.5,19.4C637.7,134.8,643.4,132.8,646.4,129.5z"/>
	<path d="M710,91.7c-2,1.9-7.1,6-7.1,6c-1.7-1.7-4.7-3.7-8.3-3.7c-2.7,0-5.9,4.4-8.7,8.7v27.8c0,3.2,1.9,5.2,5.2,5.2h2.1v3.7h-23.5
		v-3.7h2.1c3.2,0,5.2-1.9,5.2-5.2v-28.2c0-4.1-1.9-6.2-5.9-9.2l0.3-1.3c4.7-1.6,7.6-2.9,12.6-5.8l1.9,1.2v10.6
		c3.1-4.9,7.9-11.5,13-11.5C703.7,86.3,708.3,89.7,710,91.7z"/>
	<path d="M717.3,124.5h3.5v1.7c0,3.1,1.3,6,4.1,8c1.9,1.3,3.9,2.4,7,2.4c6.2,0,11-3.3,10.8-9.1c-0.1-4.5-6-7.5-11.5-10.7
		c-5.8-3.7-11.5-8.6-12-16.7c-0.5-8.3,4.9-14,14.8-14c4.5,0,8.6,1.2,13.2,3.1c-0.1,3.1-0.3,7.4-0.3,10.7h-3.9v-1.6
		c0-2.9-1.5-5.9-4-7.4c-1.3-0.7-3.9-1.3-5.6-1.3c-4.1,0-8.6,1.9-8.3,7c0.3,4.1,6.3,7.6,11.4,10.8c5.9,3.5,12.2,8.4,12.7,16.9
		c0.5,11.5-8.3,16.2-17.8,16.2c-5.8,0-9.6-1.1-14.8-3.5C717,133.6,717.3,128.3,717.3,124.5z"/>
	<path d="M789.9,133.7l1.1,2.4c-3.3,2.8-6.3,4.1-10.4,4.1c-8.6,0-13.1-4.5-13-16.1l0.1-8.7V95.6h-7.2c-0.4,0-0.9-0.3-0.7-0.9
		l0.1-0.4c0.3-1.1,0.9-1.7,1.9-2.4c5.1-3.1,10.2-10.2,11.4-19h3.3v16.9h15l-2.7,5.9h-12.3v27.8c0,4.7,0.1,10.4,5.6,11.5
		C784.5,135.3,787,135.2,789.9,133.7z"/>
	<path d="M856.8,135.5c-5.4,1.2-11.8,3.9-14.3,4.7c-0.4,0.1-0.7,0.1-1.1-0.1c-1.5-1.5-2.5-4.4-2.5-7.8v-2c-7.8,6.4-14.2,10-20.7,10
		c-6.8,0-13.5-4.7-13.5-18.6v-19.3c0-4.1-1.9-6.2-5.9-9.2l0.3-1.3c4.7-1.6,7.6-2.9,12.6-5.8l1.9,1.2v32.2c0,12.7,5.2,15.1,10.6,15.1
		c4.4,0,10.7-4.4,14.8-7.8v-24.5c0-4.1-1.9-6.2-5.9-9.2l0.3-1.3c4.7-1.6,7.6-2.9,12.4-5.8l1.9,1.2v40.3c0,3.1,0,6.7,2.1,6.7
		c1.5,0,3.2-0.3,5.8-1.2L856.8,135.5z"/>
	<path d="M857.6,88h23.7v3.7H879c-3.3,0-4.7,1.9-3.2,5.5l11.2,28L898.7,97c1.1-2.7,0.4-5.1-2.4-5.1h-2.8v-3.7h18.1v3.7h-0.9
		c-4.3,0-6,1.7-7.6,5.9l-17.7,42.8c-0.4,1.2-1.5,1.2-1.9,0L866,97.8c-1.7-4.3-3.3-5.9-7.6-5.9h-0.7V88H857.6z"/>
	<path d="M965.8,140.4c-0.4,1.3-1.6,1.2-2,0l-14.2-35l-12.7,34.9c-0.4,1.2-1.5,1.2-1.9,0l-15.9-42.1c-1.5-4-2.5-6.6-8.4-6.6h-2.1
		v-3.7H935v3.7h-1.7c-3.9,0-5.4,2.9-4,6.6l9.6,25.7l12.7-34.2c0.4-1.2,1.5-1.3,1.9,0l14.4,35.6l10.6-27.4c1.3-3.3-0.3-6.3-3.9-6.3
		H973v-3.7h19.1v3.7h-1.3c-4.8,0-7,2.7-8.4,6.4L965.8,140.4z"/>
	<path d="M993,135.7h1.2c4.3,0,7.4-1.6,9.9-4.9l12.3-16.6l-12.7-17.5c-2.5-3.5-5.6-4.9-9.9-4.9h-0.7V88h23.4v3.7h-0.9
		c-3.1,0-4,1.9-2.1,4.4l8.3,11.8l8-11.8c1.7-2.5,0.7-4.4-2.4-4.4h-1.2V88h18.6v3.7h-0.9c-4.3,0-7.4,1.6-9.9,4.9l-10.3,13.8
		l14.7,20.3c2.5,3.5,5.6,4.9,9.9,4.9v3.7h-23.4v-3.7h1.6c3.1,0,4-1.9,2.1-4.4l-10.2-14.4l-10.3,14.4c-1.7,2.5-0.7,4.4,2.4,4.4h1.9
		v3.7h-19.5v-3.7H993z"/>
	<path d="M1071.9,88v3.7h-1.5c-3.3,0-4.4,2.7-3.2,5.5l11.2,28l11.6-28.2c1.1-2.7,0.1-5.1-2.9-5.1h-1.3v-3.7h18.1v3.7h-1.9
		c-3.9,0-5.9,2.4-7.4,5.4l-25,60.6c-5.1,12.3-11.5,12-14.8,12c-1.6,0-4-0.7-5.6-1.9l3.2-9c3.5,2.4,9.8,6,13.5-3.2l7.5-18.5
		l-16.1-39.6c-1.5-3.5-3.5-5.9-7.6-5.9h-0.7v-3.7h22.9V88z"/>
	<path d="M1151.9,127.7v12.2c-4.4-0.1-12.4-0.4-16.9-0.4h-29.2c-1.2,0-1.6-0.9-0.9-1.7l33.7-45.3h-20.7c-4.1,0-7,1.7-8.6,5.6
		l-0.4,1.1h-3.7l4.8-11.9c3.5,0.4,9.4,0.9,13,0.9h26.4c1.2,0,1.6,0.9,0.9,1.7l-33.7,45.3h26.5c3.2,0,5.1-1.9,5.1-5.2v-2.1h3.7V127.7
		z"/>
	<path d="M1183.6,86.8l1.1,3.3l-1.1,0.4c-1.1,0.4-1.9,1.2-1.9,2.5v37.6c0,3.2,2.4,5.2,6.2,5.2h2.7v3.7h-26.5v-3.7h2.7
		c3.9,0,6.2-1.9,6.2-5.2v-32c0-3.1-2-4-4.9-3.7l-6.4,0.7l-1.1-2.4L1183.6,86.8z"/>
	<path d="M1236.6,132.4c2.9,0,4.8-1.3,5.9-4l1.1-2.5l3.3,1.3l-4.9,12.8c-4-0.4-7.9-0.5-12.3-0.5h-27.8l-0.5-0.9
		c9.4-7.5,30.4-20.7,30.4-37.5c0-5.5-4-9.1-10.3-9.1c-7.5,0-12.7,6.4-16.1,10.2l-1.9-1.1c3.5-5.5,8.4-15,22.1-15
		c11.5,0,15.8,6,15.8,14.2c0,11.2-18.6,25.7-26.6,32.2h21.9V132.4z"/>
	<path d="M1258.2,100.7l-1.7-1.2c4.8-6.3,11-13.5,23.5-13.5c9.2,0,17.7,4,17.7,14.4c0,9-10.8,16.7-15.9,18.2
		c9.9-2.7,22.3,3.3,22.3,15.1c0,19.7-21.7,32.8-37.6,32.8c-5.4,0-8.4-1.1-11.5-3.9l5.8-5.8c3.9,3.9,7.1,5.8,12.3,5.8
		c5.6,0,20.5-9,20.5-25.7c0-11.9-10.2-16.1-19.4-15l-0.4-1.2c8.4-5.5,14.4-9.1,14.4-17.5c0-10-7.1-11.6-12.2-11.6
		C1268.7,91.7,1262.4,97,1258.2,100.7z"/>
	<path d="M1313.7,138.6l45.1-55.1c0.4-0.4,0.9-0.1,0.9,0.4v49.4h9.4l-2.7,6.7c-1.6-0.3-3.2-0.3-4.9-0.3h-1.7v26.1l-8.8,3.5v-29.6
		h-36.7C1313.5,139.5,1313.3,139,1313.7,138.6z M1350.8,133.1V98.3l-28.4,34.8H1350.8z"/>
	<path d="M1414.2,88c5.8,0,8.2-2.9,9-4.4l1.7,1.1c-1.5,2.4-3.3,10.7-16.2,10.6l-12-0.1h-7.9v21c1.5-1.1,6.6-4.1,12.8-4.1
		c14.4,0,21.9,7.9,21.9,19.1c0,23.4-34.8,35.4-41.1,38l-1.6-1.9c6.2-3.2,31.8-16.3,31.8-33.7c0-6.8-4.1-15-15.1-15
		c-5.9,0-10,2.4-12.8,3.9V88.1h29.4V88z"/>
	<path d="M1486.2,114.9c0,14-8,26-25.4,26s-23.9-13.5-23.9-28.9c0-32.6,29.8-55.5,42.8-60.6l1.2,2.1c-5.5,2.9-31.8,18.9-34.8,50.6
		c3.9-5.6,10.4-10.4,18.9-10.4C1478.7,93.6,1486.2,103.8,1486.2,114.9z M1476.7,118.2c0-10.8-5.1-19.5-15-19.5
		c-7,0-12.7,5.2-16.1,9.9v1.3c0,16.2,4.7,26.8,17,26.8C1471.5,136.7,1476.7,127.9,1476.7,118.2z"/>
	<path d="M1499.7,88h47.1l-23,51.2c-4.3,9.6-9.8,21.7-10.7,29.7h-5.9c0-1.3,0.4-3.7,0.9-5.2c2.4-7.9,7-17.3,11-25.4l20.7-42.7h-32.9
		c-3.3,0-5.8,1.6-6.7,4.9l-0.4,1.9l-3.5-0.9L1499.7,88z"/>
	<path d="M1608.7,117.4c0,11.2-7.8,23.4-26.2,23.4c-15.8,0-23.7-9.2-23.7-21.8c0-11,11.2-18.9,17.9-23.3
		c-5.1-3.2-15.2-8.7-15.2-24.5c0-10.3,9-20.6,23.4-20.6c16.1,0,20.5,12.6,20.5,20.5c0,12.4-9.9,16.3-17.4,20.1
		C1595.2,95.6,1608.7,105.2,1608.7,117.4z M1600.4,121c0-11.5-14.2-19.3-21.5-23.9c-4.9,4.5-12,11.6-12,19.7
		c0,10,7.6,19.1,17.9,19.1C1593.6,135.9,1600.4,132.3,1600.4,121z M1585.7,89.9c4.9-3.9,11.6-9.2,11.6-17.1c0-11-5.6-17.5-14.8-17.5
		c-8.8,0-13.9,4.7-13.9,13.6C1568.6,78.2,1579.5,86.1,1585.7,89.9z"/>
	<path d="M1623,175.1c17.9-13.1,39.6-35.3,39.6-59.4c0-13.6-4.7-25.1-17.7-25.1c-8.3,0-16.6,6.8-16.6,20.6c0,9.5,4.4,19.4,16.5,19.4
		c7.6,0,11.2-2.9,13.6-5.2l1.5,1.1c-1.9,2-5.9,10.4-19.4,10.4c-15.7,0-20.7-12.2-20.7-23.4c0-11.5,8.4-26.9,27-26.9
		c20.9,0,25.1,16.6,25.1,30.1c0,20.9-18.9,44.9-47.1,59.9L1623,175.1z"/>
</g>
<g>
	<path d="M-204.3,275v0.7h-29.6V275h1.5h7.8l-15.9-40.1h-29.7l-16.6,40.1h6.4h3.9v0.7h-20.2V275h1.6h7.5l37.1-89.6
		c0.4-1.2,1.1-1.1,1.5,0l36,89.6h7.4H-204.3z M-240.7,234.2l-0.9-2.4l-13.2-34.2l-15.1,36.7H-240.7z"/>
	<path d="M-201.3,275h3.7h5.2v-86.8h-5.2h-3.7v-0.8h30.9c25,0,27,15.2,27,20.6c0,14.7-14.6,23.3-24.6,23.3c10,0,30.2,3.9,30.2,19.9
		c0,17.5-14.4,24.6-30.2,24.6h-33.4V275H-201.3z M-154.4,208.4c0-13.2-8.3-20.2-21.1-20.2h-6.6V231h9.8
		C-156.4,231-154.4,219.2-154.4,208.4z M-171.4,275c13,0,22.6-6.3,22.6-23.8c0-12-5.4-19.4-24.5-19.4h-9V275H-171.4z"/>
	<path d="M-44.8,211.1h-0.8c-2.5-7-6.2-12.6-10.2-16.6c-5.4-5.5-12-8.3-19.7-8.3c-24.7,0-36.5,11.8-36.5,43.1
		c0,29.3,7.6,47.5,36,47.5c10.2,0,19.9-4.7,26.5-12.2c3.3-3.9,5.9-8.4,7.4-13.5h0.8l-1.1,21.8c-0.5,0-2-2.4-5.4-2.4
		c-3.1,0-15.7,7.1-29.4,7.1c-19,0-46.8-9.1-46.7-48c0.1-28.8,19.4-44.1,48.4-44.1c18.7,0,21.7,10,30.5,5.4v20.3H-44.8z"/>
	<path d="M-26.6,275h3.7h5.2v-86.8h-5.2h-3.7v-0.8h40.3c24.6,0,45.2,11.5,45.2,44.7c0,33.3-22.5,43.6-46,43.6h-39.5V275z M11.5,275
		c20.6,0,35.6-14.4,35.6-42.9c0-28.5-13.6-43.9-39.7-43.9H-7.5V275H11.5z"/>
	<path d="M72.1,275h3.7H81v-86.8h-5.2h-3.7v-0.8h49.8h5.9c0,5.5,0,13,0,18.5h-0.8c0-11.4-4.3-17.7-14.2-17.7H91.1v42.9h16.9
		c5.8,0,11.5-2.9,11.5-10.6v-0.3h0.7v22.5h-0.7v-0.3c0-7-5.8-10.6-11.5-10.6H91.1V275h12.3h13.1c12.8,0,15.8-7.5,15.8-19.9h0.7v20.6
		c-4,0-9.1,0-13.1,0h-48V275H72.1z"/>
	<path d="M165.9,231.3h18.7c5.8,0,11.5-2.9,11.5-10.6v-0.3h0.8v22.5h-0.8v-0.3c0-7-5.8-10.6-11.5-10.6h-18.7v43.1h5.2h3.7v0.7h-28.1
		v-0.7h3.7h5.2v-86.8h-5.2h-3.7v-0.8h53h5.9c0,5.5,0,13,0,18.5h-0.8c0-12-3.5-17.7-14.2-17.7h-24.9v42.9H165.9z"/>
	<path d="M298.4,211.6c-2.1-5.8-5.9-11.9-11-16.7c-5.5-5.2-12.3-8.7-20.6-8.7c-26.2,0-36.3,13.8-36.3,42.9c0,26.8,7.5,47.6,36,47.6
		c12.2,0,17.4-5.2,22.1-10.3v-25.1h-5.5H279v-0.7h26.6v0.7h-2.8H299v19.4v12c-0.3-0.1-2.1-1.6-6-1.6c-4.8,0-11.6,6.3-27,6.3
		c-17.7,0-47.1-8.8-47.1-48.2c0-28,19.3-44,48.2-44c15.9,0,23.4,10.6,32.2,5.9v20.3h-0.8V211.6z"/>
	<path d="M401.6,275h3.7v0.7h-29.4V275h3.7h5.2v-43.1H336V275h5.1h3.7v0.7h-29.4V275h3.7h5.2v-86.8h-5.2h-3.7v-0.8h29.4v0.8h-3.7
		H336v42.9h48.8v-42.9h-5.4h-3.7v-0.8h29.4v0.8h-3.7h-5.2V275H401.6z"/>
	<path d="M420.7,188.2h-3.7v-0.8H445v0.8h-3.7h-5.2V275h5.2h3.7v0.7h-28V275h3.7h5.2v-86.8H420.7z"/>
	<path d="M445.7,307.4l-0.4-0.4c14.6-10.3,17.5-16.1,17.5-37.1v-81.7h-5.2h-3.7v-0.8h28v0.8h-3.7h-4.9v43.3
		c0.1,13.2,0.3,25.1,0.3,39.9C473.4,282.5,458,299.5,445.7,307.4z"/>
	<path d="M573.6,275v0.7h-20.9c-13.4-14.3-26.5-28.5-39.9-42.8V275h5.2h3.7v0.7h-28V275h3.7h5.2v-86.8h-5.2h-3.7v-0.8h28v0.8h-3.7
		h-5.2v41.5l39.6-41.5c-1.9,0-3.9,0-5.8,0H542v-0.8h22.1v0.8h-3.3h-7.1c-11.4,11.9-22.9,23.8-34.1,35.7c15.8,17.1,31.7,34,47.4,51.1
		H573.6z"/>
	<path d="M633.8,275.8h-50.2v-0.7h3.7h5.2v-86.8h-5.2h-3.7v-0.8h28v0.8h-3.7h-5.2v86.8h12.3h15.2c12.2,0,15.8-5.9,15.8-19.9h0.7
		v20.6H633.8z"/>
	<path d="M660.8,275h6.8l7.9-86.8h-7.2h-3.1v-0.8h15.9h1.1l33.8,77.6l34.8-77.6h1.1h14.8v0.8H761h-4l9.1,86.8h7.1h2.7v0.7h-30.1V275
		h4.3h5.4l-8.4-76.5l-35.7,79.6c-0.1,0.3-0.3,0.3-0.4,0l-35.2-79.6l-7,76.5h5.8h4.5v0.7h-20.3V275H660.8z"/>
	<path d="M801.5,187.5l61.7,75.8v-75H858h-3.6v-0.8h18.5v0.8h-3.7H864v88.8c0,1.3-0.9,1.7-1.7,0.7l-68.5-84V275h5.2h3.7v0.7h-18.5
		V275h3.7h5.1v-86.8H788h-3.7v-0.8h15.9h1.3V187.5z"/>
	<path d="M977,231.9c0,20.5-15,45.3-45.9,45.3c-30.9,0-45.9-24.9-45.9-45.3c0-22.2,15-46.6,45.9-46.6
		C962.1,185.4,977,209.7,977,231.9z M897,231.9c0,23.5,9.1,44.5,34.1,44.5s34.1-21,34.1-44.5s-9.1-45.7-34.1-45.7
		S897,208.4,897,231.9z"/>
	<path d="M1053.3,211.6c0,20.1-18.5,27.6-43.9,23.3V275h5.1h3.7v0.7h-28V275h3.7h5.1v-86.8H994h-3.7v-0.8h33.6
		C1041.9,187.5,1053.3,193.3,1053.3,211.6z M1042.6,212.3c0-21.7-10.6-23.9-23.3-23.9h-9.9v45.9c2.3,0.4,4.9,0.9,6.7,1.1
		C1021.5,235.4,1042.6,238.1,1042.6,212.3z"/>
	<path d="M1120,276.5c-2.8,0.4-5.9,0.8-9.1,0.8c-30.9,0-45.9-24.9-45.9-45.3c0-22.2,15-46.6,45.9-46.6c30.9,0,45.9,24.3,45.9,46.6
		c0,17.7-11.2,38.5-34.1,44c20.3,0.5,32.2,17.1,58.3,11.2l0.1,0.3C1137.4,305,1142.9,281,1120,276.5z M1110.9,276.5
		c25,0,34.1-21,34.1-44.5s-9.1-45.7-34.1-45.7s-34.1,22.2-34.1,45.7S1085.9,276.5,1110.9,276.5z"/>
	<path d="M1247.4,272.9c-2.4,1.6-7.2,2.4-10,2.4c-20.2,0-16.5-37.7-31-39.6c-6,0.8-13,0.4-20.5-0.7v40.1h5.1h3.7v0.7h-28v-0.7h3.7
		h5.1v-86.8h-5.1h-3.7v-0.8h33.6c18.1,0,29.4,5.8,29.4,24.1c0,12.3-7.1,20.1-18.6,23c22.5,1.3,19.4,39.1,30.5,39.1
		c1.3,0,3.9-0.3,5.5-1.2L1247.4,272.9z M1218.9,212.3c0-21.7-10.6-23.9-23.3-23.9h-9.9v45.9c2.3,0.4,4.9,0.9,6.7,1.1
		C1197.9,235.4,1218.9,238.1,1218.9,212.3z"/>
	<path d="M1256,257.3h0.7v1.6c0,4.3,2,7.9,5.4,10.8c4.5,4.3,11.4,6.8,17.4,6.8c14.6,0,21.7-6.8,20.3-19.9
		c-1.2-11.8-11.8-16.2-21.4-21.8c-10.2-5.9-21.3-11.4-21.8-25.3c-0.8-23.8,20.6-24.6,26.5-24.6c10.6,0,12.3,6.6,18.7,2.4
		c0,4.8-0.1,11.2-0.1,16.1h-0.8v-1.3c0-4.5-2.4-8.8-5.9-11.9c-3.2-2.7-7.4-4.3-11.9-4.3c-14.8,0-21.7,9-20.1,19.9
		c1.3,8.7,11.4,12.3,20.3,17.8c10.6,6.4,23.8,12.8,24.6,29.8c0.9,20.1-18.6,23.9-28.4,23.9c-10.2,0-15.8-4.8-23.5-1.6V257.3z"/>
	<path d="M1388,187.5V206h-0.7v-1.1c0-12.3-4.7-16.6-14.2-16.6h-15.4v86.8h5.1h3.7v0.7h-28v-0.7h3.7h5.2v-86.8h-15.7
		c-9.4,0-14.2,4.3-14.2,16.6v1.1h-0.8v-18.5h11.9h47.2H1388z"/>
	<path d="M1478.3,188.2v47.4c0,13.4,0.4,41.6-36.8,41.6c-34.9,0-35.4-22.2-35.4-44.4v-44.5h-5.2h-3.7v-0.8h28v0.8h-3.7h-5.1v51.9
		c0,17.3,5.4,35.7,25.1,35.7c22.3,0,36.1-9.1,36.1-36.3v-51.5h-5.1h-3.7v-0.8h18.5v0.8h-3.7h-5.1V188.2z"/>
	<path d="M1489.3,187.5h32v0.8h-4.8h-6.4l32.2,76.5l31.2-76.5h-6.4h-4.9v-0.8h20.9v0.8h-2.5h-6.2l-36.4,89.4c-0.4,1.2-0.7,1.2-1.2,0
		l-38.4-89.4h-7.8h-1.1v-0.8H1489.3z"/>
	<path d="M1576.9,187.5h32.9v0.8h-6.8h-6.2l24.7,74.6l22.3-77.5c0.5-1.9,1.5-1.9,2.3-0.1l28.2,77.6l25.7-74.6h-6.2h-4.9v-0.8h20.6
		v0.8h-3.9h-4.8l-30.8,89.4c-0.3,1.1-0.7,1.1-1.2,0l-28.4-77.7l-22.5,77.7c-0.3,1.1-0.9,1.1-1.2,0l-30.8-89.4h-7.1h-2.3v-0.8H1576.9
		z"/>
	<path d="M1709.8,275h6.7l32.4-42.9l-29.7-43.9h-6.8h-1.6v-0.8h29.7v0.8h-4.3h-4.3l23.9,36.5l28.1-36.5h-4.4h-4.8v-0.8h19v0.8h-3.1
		h-5.8l-28.5,37.1l34.2,49.8h6.8h2.4v0.7h-31.7V275h3.3h6.3l-28.4-42.4l-32,42.4h5.2h5.8v0.7h-21V275H1709.8z"/>
	<path d="M1880.3,187.5v0.8h-3.9h-4.5l-28.4,45.5v41.3h5.2h3.7v0.7h-28v-0.7h3.7h5.1v-39.5l-26.5-47.4h-5.8h-2.9v-0.8h30v0.8h-5.4
		h-4l24.2,44.5l27.8-44.5h-4.1h-4.8v-0.8H1880.3z"/>
	<path d="M1880.5,274.1l63.8-85.7h-41.7c-9.1,0-14.7,6.2-14.7,16.6v1.1h-0.7v-18.5h16.6h51.5c1.2,0,1.6,0.9,0.9,1.7l-63.9,85.7h47.1
		c11,0,16.9-4.8,16.9-18.5v-1.5h0.8v20.6h-21h-54.4C1880.3,275.8,1879.9,274.9,1880.5,274.1z"/>
	<path d="M1988.8,223.1l1.1,3.3l-1.1,0.4c-1.1,0.4-1.9,1.2-1.9,2.5V275h6.2h2.7v0.7h-26.5V275h2.7h6.2v-40c0-3.1-2-4-4.9-3.7
		l-6.4,0.7l-1.1-2.4L1988.8,223.1z"/>
	<path d="M2041.6,268.7c2.9,0,4.8-1.3,5.9-4l1.1-2.5l3.3,1.3l-4.9,12.8c-4-0.4-7.9-0.5-12.3-0.5h-27.8l-0.5-0.9
		c9.4-7.5,30.4-20.7,30.4-37.5c0-5.5-4-9.1-10.3-9.1c-7.5,0-12.7,6.4-16.1,10.2l-1.9-1.1c3.5-5.5,8.4-15,22.1-15
		c11.5,0,15.8,6,15.8,14.2c0,11.2-18.6,25.7-26.6,32.2h21.9V268.7z"/>
	<path d="M2063.3,237.1l-1.7-1.2c4.8-6.3,11-13.5,23.5-13.5c9.2,0,17.7,4,17.7,14.4c0,9-10.8,16.7-15.9,18.2
		c9.9-2.7,22.3,3.3,22.3,15.1c0,19.7-21.7,32.8-37.6,32.8c-5.4,0-8.4-1.1-11.5-3.9l5.8-5.8c3.9,3.9,7.1,5.8,12.3,5.8
		c5.6,0,20.5-9,20.5-25.7c0-11.9-10.2-16.1-19.4-15l-0.4-1.2c8.4-5.5,14.4-9.1,14.4-17.5c0-10-7.1-11.6-12.2-11.6
		C2073.7,228,2067.4,233.3,2063.3,237.1z"/>
	<path d="M2118.8,274.9l45.1-55.1c0.4-0.4,0.9-0.1,0.9,0.4v49.4h9.4l-2.7,6.7c-1.6-0.3-3.2-0.3-4.9-0.3h-1.7V302l-8.8,3.5v-29.6
		h-36.7C2118.6,275.8,2118.5,275.4,2118.8,274.9z M2155.8,269.5v-34.8l-28.4,34.8H2155.8z"/>
	<path d="M2219.2,224.3c5.8,0,8.2-2.9,9-4.4l1.7,1.1c-1.5,2.4-3.3,10.7-16.2,10.6l-12-0.1h-7.9v21c1.5-1.1,6.6-4.1,12.8-4.1
		c14.4,0,21.9,7.9,21.9,19.1c0,23.4-34.8,35.4-41.1,38l-1.6-1.9c6.2-3.2,31.8-16.3,31.8-33.7c0-6.8-4.1-15-15.1-15
		c-5.9,0-10,2.4-12.8,3.9v-34.2h29.4V224.3z"/>
	<path d="M2291.2,251.2c0,14-8,26-25.4,26c-17.4,0-23.9-13.5-23.9-28.9c0-32.6,29.8-55.5,42.8-60.6l1.2,2.1
		c-5.5,2.9-31.8,18.9-34.8,50.6c3.9-5.6,10.4-10.4,18.9-10.4C2283.7,230.1,2291.2,240.2,2291.2,251.2z M2281.8,254.5
		c0-10.8-5.1-19.5-15-19.5c-7,0-12.7,5.2-16.1,9.9v1.3c0,16.2,4.7,26.8,17,26.8C2276.5,273,2281.8,264.2,2281.8,254.5z"/>
	<path d="M2304.7,224.3h47.1l-23,51.2c-4.3,9.6-9.8,21.7-10.7,29.7h-5.9c0-1.3,0.4-3.7,0.9-5.2c2.4-7.9,7-17.3,11-25.4l20.7-42.7
		h-32.9c-3.3,0-5.8,1.6-6.7,4.9l-0.4,1.9l-3.5-0.9L2304.7,224.3z"/>
	<path d="M2413.7,253.7c0,11.2-7.8,23.4-26.2,23.4c-15.8,0-23.7-9.2-23.7-21.8c0-11,11.2-18.9,17.9-23.3
		c-5.1-3.2-15.2-8.7-15.2-24.5c0-10.3,9-20.6,23.4-20.6c16.1,0,20.5,12.6,20.5,20.5c0,12.4-9.9,16.3-17.4,20.1
		C2400.2,231.9,2413.7,241.7,2413.7,253.7z M2405.6,257.3c0-11.5-14.2-19.3-21.5-23.9c-4.9,4.5-12,11.6-12,19.7
		c0,10,7.6,19.1,17.9,19.1C2398.6,272.2,2405.6,268.6,2405.6,257.3z M2390.9,226.2c4.9-3.9,11.6-9.2,11.6-17.1
		c0-11-5.6-17.5-14.8-17.5c-8.8,0-13.9,4.7-13.9,13.6C2373.6,214.5,2384.7,222.6,2390.9,226.2z"/>
	<path d="M2428.1,311.4c17.9-13.1,39.6-35.3,39.6-59.4c0-13.6-4.7-25.1-17.7-25.1c-8.3,0-16.6,6.8-16.6,20.6
		c0,9.5,4.4,19.4,16.5,19.4c7.6,0,11.2-2.9,13.6-5.2l1.5,1.1c-1.9,2-5.9,10.4-19.4,10.4c-15.7,0-20.7-12.2-20.7-23.4
		c0-11.5,8.4-26.9,27-26.9c20.9,0,25.1,16.6,25.1,30.1c0,20.9-18.9,44.9-47.1,59.9L2428.1,311.4z"/>
</g>
<g>
	<path d="M-238.4,303.4v17.5h-4.4v-0.8c0-5.9-2.4-10.4-8.3-10.4h-17.7v77.6h5.1h3.7v4.4h-28v-4.4h3.7h5.2v-77.6h-17.9
		c-5.9,0-8.3,4.5-8.3,10.4v0.8h-4.3v-17.5h11.9h47.2H-238.4z"/>
	<path d="M-170,387.9v3.7h-23.5v-3.7h2.1h5.2v-27.7c0-12.7-1.5-16.7-10.3-16.7c-5.8,0-11.9,3.7-15.9,8.8v35.6h5.2h2.1v3.7h-23.4
		v-3.7h2.1h5.2v-84.8c-1.5-0.1-6.6-0.8-8-1.1v-2.8c6.2,0,9.4-0.8,15.7-2.5l1.3,1.3v49.9c4.4-4.8,11.9-8.6,17.5-8.6
		c9.9,0,17.5,4.7,17.5,18.6v29.8h5.2h1.9V387.9z"/>
	<path d="M-151.7,361c-0.1,1.3,0,2.8,0,4.3c0.5,13.8,4.9,23.7,17.1,23.7c10.4,0,15.8-6.8,17.7-8.7l1.7,1.2
		c-1.2,1.5-7.4,11.5-21,11.5c-8.8,0-25.1-5.4-25-25.8c0.1-18.5,12.7-28.5,25-28.5c14.3,0,21.8,9.1,21.8,20.1c0,1.5-0.7,2.4-2,2.4
		h-35.3V361z M-151.6,357.5h28.1c0-7.5-3.1-15.4-12.8-15.4C-146.2,342-150.5,348.3-151.6,357.5z"/>
	<path d="M-17.3,392.2c-3.3,0.5-7.2,0.9-11.4,0.9c-27.8,0-44.7-17.4-44.7-45.6c0-16.6,7.9-46.2,47.2-46.2
		c27.3,0,44.5,15.2,44.5,46.8c0,12.2-3.2,32-23.1,40.7c19.3,4.7,19.9,17.3,47.2,14.3l0.4,1.9C6.3,418.5,5.9,397.3-17.3,392.2z
		 M-26.1,388.7c22.2,0,32.8-15,32.8-38.8c0-24.7-10.6-44.1-35.3-44.1c-23,0-32.9,18.6-32.9,40.1C-61.6,372.1-49,388.7-26.1,388.7z"
		/>
	<path d="M86.4,387.9v3.7H71.9c-1.2,0-2.3,0-3.3,0v-7.2v-2c-7.8,6.4-14.2,10-20.7,10c-6.8,0-13.5-4.7-13.5-18.6v-29.4
		c-1.5-0.1-6.7-0.7-8.2-1.1v-2.8c6.2,0,9.4-0.7,15.7-2.5l1.3,1.3v32.2c0,12.7,5.2,15.1,10.6,15.1c4.4,0,10.7-4.4,14.8-7.8v-34.6
		c-1.5-0.1-6.7-0.7-8-1.1v-2.8c6.2,0,9.4-0.7,15.7-2.5l1.3,1.3v40.3v8.3h8.8V387.9z"/>
	<path d="M118,387.9v3.7H94.4v-3.7h2.1h5.2v-43.6c-1.5-0.1-6.6-0.7-8-1.1v-2.8c6.2,0,9.4-0.7,15.7-2.5l1.3,1.3v48.6h5.2h2V387.9z
		 M97.5,312.5c0-3.7,2.9-6.7,6.7-6.7c3.5,0,6.4,2.9,6.4,6.7s-2.9,6.7-6.4,6.7C100.4,319.1,97.5,316.2,97.5,312.5z"/>
	<path d="M175.5,356.3l-8.4-2.9c0.5-0.9,4.1-4.8,0.9-7.9c-1.3-1.3-4.7-2.9-10.6-2.9c-13.4,0-19.5,9.8-19,22.7
		c0.5,13.8,7.2,23.7,17.1,23.7c10.4,0,15.8-6.8,17.7-8.7l1.7,1.2c-1.2,1.5-7.4,11.5-21,11.5c-8.8,0-25.1-5.4-25-25.8
		c0.1-18.5,15.4-28.5,29.3-28.5c9.1,0,13.9,4.7,15.8,6.8C177.5,349.5,176,355.5,175.5,356.3z"/>
	<path d="M244.5,387.9v3.7h-15.7c-3.2-3.1-6.3-6.2-9.6-9.2l-19.4-18.9V388h5.2h2.1v3.7h-23.5V388h2.1h5.2v-84.8
		c-1.5-0.1-6.6-0.8-8-1.1v-2.8c6.2,0,9.4-0.8,15.7-2.5l1.3,1.3v63.4c7.1-5.9,13.8-11.9,20.9-17.8h-6.7h-2.7V340h23.3v3.7h-2h-6.2
		c-5.9,5.4-11.6,10.4-17.5,15.8c8.7,8.7,20.6,19.7,29.3,28.4H244.5z"/>
	<path d="M278.4,387.2h3.7h5.2v-79.5h-5.2h-3.7v-4.4h30.9c25,0,27,15.1,27,20.5c0,12-7.8,18.7-15.8,21c5.2,0.7,21.4,4.7,21.4,22.2
		c0,17.5-15.9,24.6-31.7,24.6h-32v-4.4H278.4z M325.3,324.1c0-11.8-8.7-16.3-21.1-16.3c-2.1,0-4.4,0.1-6.6,0.4v35h13
		C320.2,343.2,325.3,334.7,325.3,324.1z M308.2,387.2c11,0,22.6-6.2,22.6-20.2c0-15.8-10.8-19.4-28-19.4h-5.5v39.6H308.2z"/>
	<path d="M393,348.2l-8.8,4.9c-0.1-2.5-0.9-10.8-5.8-10.8c-4.4,0-7.8,8.6-7.8,17.4v28.2h5.2h2.1v3.7h-23.5v-3.7h2.1h5.2v-43.6
		c-1.5-0.1-6.6-0.7-8-1.1v-2.8c6.2,0,9.4-0.7,15.7-2.5l1.3,1.3v8.4c1.5-4.9,4.5-8.7,11.2-8.7C388,339.1,391.9,341.9,393,348.2z"/>
	<path d="M399.6,365.8c0-13.2,6.4-27.3,26.5-27.3c20.1,0,26.5,14,26.5,27.3c0,13.2-6.4,27-26.5,27
		C406,392.9,399.6,379.1,399.6,365.8z M442.9,365.8c0-5.2-0.4-23.7-17.3-23.7c-16.9,0-16.3,18.6-16.3,23.7c0,5.1,0.4,23.5,17.3,23.5
		C443.4,389.4,442.9,371.1,442.9,365.8z"/>
	<path d="M513.4,392.7c-0.4,1.3-1.6,1.2-2,0l-14.2-35l-12.7,34.9c-0.4,1.2-1.5,1.2-1.9,0L464,343.9h-5.8h-2.1v-3.7h26.5v3.7h-1.7
		h-6.6l12.2,32.4l12.7-34.2c0.4-1.2,1.5-1.3,1.9,0l14.4,35.6l13.1-33.7h-6.3h-1.6v-3.7h19.1v3.7h-1.3h-5.9L513.4,392.7z"/>
	<path d="M602.6,387.9v3.7h-23.5v-3.7h2.1h5.2v-27.7c0-12.7-1.5-16.7-10.3-16.7c-5.8,0-11.9,3.7-15.9,8.8v35.6h5.2h2.1v3.7H544v-3.7
		h2.1h5.2v-43.6c-1.5-0.1-6.6-0.7-8-1.1v-2.8c6.2,0,9.4-0.7,15.7-2.5l1.3,1.3v8.7c4.4-4.8,11.9-8.6,17.5-8.6
		c9.9,0,17.5,4.7,17.5,18.6v29.8h5.2h2V387.9z"/>
	<path d="M660.8,343.4h25c3.2,0,5.1-1.7,5.1-4.7v-3.2h4.4v20.3h-4.4v-3.3c0-2.8-1.9-4.5-5.1-4.5h-25v39.5h5.1h3.7v4.4h-28v-4.4h3.7
		h5.1v-79.6h-5.1h-3.7v-4.4h50h9.6c0,5.5,0,11,0,16.5h-4.4c0-9.2-4.4-12-9.8-12h-26.4L660.8,343.4L660.8,343.4z"/>
	<path d="M711.4,365.8c0-13.2,6.4-27.3,26.5-27.3s26.5,14,26.5,27.3c0,13.2-6.4,27-26.5,27S711.4,379.1,711.4,365.8z M754.7,365.8
		c0-5.2-0.4-23.7-17.3-23.7s-16.3,18.6-16.3,23.7c0,5.1,0.4,23.5,17.3,23.5C755.3,389.4,754.7,371.1,754.7,365.8z"/>
	<path d="M771.6,387.9h1.2h6.2l16.1-21.7l-16.3-22.5h-6.2h-0.7V340h23.4v3.7h-0.9H789l11.4,16.2l11.2-16.2h-5.5h-1.2V340h18.6v3.7
		h-0.9h-6.2l-14,18.9l18.5,25.3h6.2v3.7h-23.4v-3.7h1.6h5.4L797.3,369l-13.4,18.9h5.5h1.9v3.7h-19.5v-3.7H771.6z"/>
	<path d="M853.8,424.2l-0.9-1.3c11-7.8,17.5-18.2,17.5-37.1v-78h-5.2h-3.7v-4.4h28v4.4h-3.7h-5.1v39.6c0.1,13.2,0.3,25.1,0.3,39.9
		C881.1,402.8,866.3,418.7,853.8,424.2z"/>
	<path d="M959.4,387.9v3.7h-14.4c-1.2,0-2.1,0-3.3,0v-7.2v-2c-7.8,6.4-14.2,10-20.7,10c-6.8,0-13.5-4.7-13.5-18.6v-29.4
		c-1.5-0.1-6.7-0.7-8-1.1v-2.8c6.2,0,9.4-0.7,15.7-2.5l1.3,1.3v32.2c0,12.7,5.1,15.1,10.6,15.1c4.4,0,10.7-4.4,14.8-7.8v-34.6
		c-1.5-0.1-6.7-0.7-8.2-1.1v-2.8c6.2,0,9.4-0.7,15.7-2.5l1.3,1.3v40.3v8.3h8.8V387.9z"/>
	<path d="M1055.2,387.9v3.7h-23.5v-3.7h2.3h5.1v-27.7c0-12.7-1.5-16.7-10.3-16.7c-4.8,0-10.2,2.7-14,6.7c0.5,2.3,1.1,4.8,1.1,7.9
		v29.8h5.1h2.3v3.7h-23.5v-3.7h2.3h5.1v-27.7c0-12.7-1.5-16.7-10.3-16.7c-4.4,0-9.2,2.3-13,5.6v38.8h5.2h2.1v3.7h-23.5v-3.7h2.1h5.2
		v-43.6c-1.5-0.1-6.7-0.7-8.2-1.1v-2.8c6.2,0,9.4-0.7,15.7-2.5l1.3,1.3v6c4.4-3.5,10.2-5.9,14.6-5.9c6.6,0,12.3,2.3,15.2,7.8
		c4.5-4.5,11.5-7.8,16.7-7.8c9.9,0,17.5,4.7,17.5,18.6v29.8h5.2h2.3V387.9z"/>
	<path d="M1119.6,364.8c0,16.9-7.8,28.6-26.1,28.6c-5.6,0-11-1.6-14.2-4.7v28.8h5.1h2.3v3.7h-23.5v-3.7h2.3h5.1v-73
		c-1.5-0.1-6.7-0.7-8-1.1v-2.8c6.2,0,9.4-0.7,15.7-2.5l1.3,1.3v6.3c3.2-3.1,7.5-7.1,17.8-7.1
		C1107.3,338.7,1119.6,345.2,1119.6,364.8z M1094.8,343.1c-7.8,0-15.2,4.7-15.2,15.1v13c0,14.6,6.2,17.8,15.2,17.8
		c10.3,0,15.2-10.2,15.5-23.5C1110.3,349.4,1102,343.1,1094.8,343.1z"/>
	<path d="M1131.8,376.8h3.5v1.7c0,3.1,1.3,6,4.1,8c1.9,1.3,3.9,2.4,7,2.4c6.2,0,11.8-2.7,11.6-9.1c-0.1-5.4-6.8-7.5-12.2-10.7
		c-5.8-3.7-11.5-8.6-12-16.7c-0.5-8.3,4.9-14,14.8-14c7.5,0,7.9,4.7,13,1.7v12h-3.9v-1.6c0-2.9-1.5-5.9-4-7.4
		c-1.3-0.7-3.9-1.3-5.6-1.3c-4.1,0-8.8,1.3-8.7,7c0.1,4.8,6.8,7.6,11.8,10.8c5.9,3.5,12.2,8.4,12.7,16.9
		c0.5,11.5-8.3,16.2-17.8,16.2c-7.6,0-10.2-4.7-14.3-1.2L1131.8,376.8L1131.8,376.8z"/>
	<path d="M1299.2,348c0,16.1-5.6,45.1-47.1,45.1c-27.8,0-44.7-17.4-44.7-45.6c0-16.6,7.9-46.2,47.2-46.2
		C1281.8,301.2,1299.2,316.6,1299.2,348z M1219,345.9c0,26.2,12.6,42.8,35.4,42.8c22.2,0,32.8-15,32.8-38.8
		c0-24.7-10.6-44.1-35.3-44.1C1229.1,305.6,1219,324.2,1219,345.9z"/>
	<path d="M1305.1,340.1h23.7v3.7h-2.3h-5.5l13.4,33.4l13.6-33.4h-4.4h-2.8v-3.7h18.1v3.7h-1.1h-5.4l-20.1,48.7
		c-0.4,1.2-1.5,1.2-1.9,0l-19.7-48.7h-5.4h-0.7v-3.7H1305.1z"/>
	<path d="M1372.1,361c-0.1,1.3,0,2.8,0,4.3c0.5,13.8,4.9,23.7,17.1,23.7c10.4,0,15.8-6.8,17.7-8.7l1.7,1.2
		c-1.2,1.5-7.4,11.5-21,11.5c-8.8,0-25.1-5.4-25-25.8c0.1-18.5,12.7-28.5,25-28.5c14.3,0,21.8,9.1,21.8,20.1c0,1.5-0.8,2.4-2,2.4
		h-35.3V361z M1372.2,357.5h28.1c0-7.5-3.1-15.4-12.8-15.4C1377.6,342,1373.3,348.3,1372.2,357.5z"/>
	<path d="M1458.2,348.2l-8.8,4.9c-0.1-2.5-0.9-10.8-5.8-10.8c-4.4,0-7.8,8.6-7.8,17.4v28.2h5.2h2.1v3.7h-23.5v-3.7h2.1h5.2v-43.6
		c-1.5-0.1-6.7-0.7-8.2-1.1v-2.8c6.2,0,9.4-0.7,15.7-2.5l1.3,1.3v8.4c1.5-4.9,4.5-8.7,11.2-8.7
		C1453.1,339.1,1457.1,341.9,1458.2,348.2z"/>
	<path d="M1564.3,303.4v17.5h-4.4v-0.8c0-5.9-2.4-10.4-8.3-10.4h-17.7v77.6h5.1h3.7v4.4h-28v-4.4h3.7h5.2v-77.6h-17.9
		c-5.9,0-8.3,4.5-8.3,10.4v0.8h-4.4v-17.5h11.9h47.2H1564.3z"/>
	<path d="M1632.7,387.9v3.7h-23.5v-3.7h2.3h5.1v-27.7c0-12.7-1.5-16.7-10.3-16.7c-5.8,0-11.9,3.7-15.9,8.8v35.6h5.2h2.1v3.7h-23.5
		v-3.7h2.1h5.2v-84.8c-1.5-0.1-6.7-0.8-8.2-1.1v-2.8c6.2,0,9.4-0.8,15.7-2.5l1.3,1.3v49.9c4.4-4.8,11.9-8.6,17.5-8.6
		c9.9,0,17.5,4.7,17.5,18.6v29.8h5.1h2.3V387.9z"/>
	<path d="M1651,361c-0.1,1.3,0,2.8,0,4.3c0.5,13.8,4.9,23.7,17.1,23.7c10.4,0,15.8-6.8,17.7-8.7l1.7,1.2c-1.2,1.5-7.4,11.5-21,11.5
		c-8.8,0-25.1-5.4-25-25.8c0.1-18.5,12.7-28.5,25-28.5c14.3,0,21.8,9.1,21.8,20.1c0,1.5-0.8,2.4-2,2.4H1651V361z M1651.1,357.5h28.1
		c0-7.5-3.1-15.4-12.8-15.4C1656.3,342,1652.2,348.3,1651.1,357.5z"/>
	<path d="M1751.4,387.9v3.7h-23.5v-3.7h2.1h5.2v-84.8c-1.5-0.1-6.7-0.8-8.2-1.1v-2.8c6.2,0,9.4-0.8,15.7-2.5l1.3,1.3v89.8h5.2h2.1
		V387.9z"/>
	<path d="M1761.7,382.7c0-4.1,2.7-7.9,5.4-10.2c4.3-3.7,18.7-8.4,20.9-9.2c0.7-0.3,1.6-0.5,1.9-1.2v-4.3c0-11.4-2-15.7-8.2-15.7
		c-7,0-8.7,5.4-8.7,11.2l-9.4,2.4c0-4.3,1.1-7.1,2.8-9.4c3.5-4.7,10.2-7.2,15.2-7.2c8.2,0,17,3.2,17,17.9v22.3c0,6.3,0.7,8,4.1,8
		c2.3,0,3.9-1.6,5.4-2.8l1.2,2.1c-4.7,3.7-9.5,5.6-12.8,5.6c-4.5,0-5.8-2.3-6.4-5.9c-4.9,3.5-11.9,6.3-17.3,6.3
		C1765.9,393,1761.7,388.3,1761.7,382.7z M1789.8,384v-19.4c-6.7,3.7-18.7,4.7-18.7,15c0,5.5,3.7,8,7.9,8
		C1782.2,387.6,1788.4,385.1,1789.8,384z"/>
	<path d="M1859.4,379.9v11.8h-16.9h-29.2c-1.2,0-1.6-0.9-0.9-1.7l33.7-45.3h-20.7c-4.1,0-6.4,1.5-6.4,5.6v1.1h-3.7v-11h15.2h26.4
		c1.2,0,1.6,0.9,0.9,1.7l-33.7,45.3h26.1c4.1,0,5.6-1.7,5.6-5.2V380h3.6V379.9z"/>
	<path d="M1887.8,340.1v3.7h-1.5h-5.5l13.4,33.4l13.6-33.4h-4.9h-1.3v-3.7h18.1v3.7h-1.9h-5.2l-27.8,67.3
		c-4.1,9.9-11.2,10.7-13.9,10.7c-1.6,0-11.4,0.8-11.4-12h9.4c0,10,8.3,9.8,11.5,1.6l8.8-22.1l-18.5-45.5h-5.4h-0.7v-3.7H1887.8z"/>
	<path d="M2009.6,387.9v3.7h-14.4c-1.2,0-2.3,0-3.3,0v-7.1c-2.7,3.9-10,7.9-16.6,7.9c-7.8,0-22.5-3.5-22.6-23.9
		c-0.1-20.7,14.4-29.8,25.6-29.8c6,0,10.6,1.3,13.6,4.8v-40.3c-1.5-0.1-6.7-0.8-8-1.1v-2.8c6.2,0,9.4-0.8,15.7-2.5l1.3,1.3v81.5v8.3
		L2009.6,387.9L2009.6,387.9z M1991.8,376.8v-20.3c0-8.7-6.3-13.6-12.2-13.6c-8.8,0-18.6,3.1-17.8,24.9c0.4,14.4,7.6,20.1,15.2,20.1
		C1982.6,387.6,1991.8,382,1991.8,376.8z"/>
	<path d="M2019.1,365.8c0-13.2,6.4-27.3,26.5-27.3s26.5,14,26.5,27.3c0,13.2-6.4,27-26.5,27S2019.1,379.1,2019.1,365.8z
		 M2062.3,365.8c0-5.2-0.4-23.7-17.3-23.7c-16.9,0-16.3,18.6-16.3,23.7c0,5.1,0.4,23.5,17.3,23.5
		C2062.9,389.4,2062.3,371.1,2062.3,365.8z"/>
	<path d="M2129.2,395.3c0,13.4-10.4,21.1-27,21.1c-8.3,0-22.1-2.3-22.1-13.8c0-8.7,6.8-11.2,11.5-12.3c-3.7-1.5-6.2-3.9-6.2-7.5
		c0-2.9,2.5-7.9,7.8-10c-5.2-2.9-8.8-8-8.8-14.8c0-10.6,9.6-18.6,20.1-18.6c4.7,0,8.7,1.2,11.8,3.3h13.5l-1.9,3.3h-7.9
		c2.5,3.1,3.9,7.2,3.9,11.8c0,11-7.4,17.7-19.3,17.7c-3.1,0-6.2-0.5-9-1.7c-2.8,1.5-4.7,3.2-4.7,6c0,7.9,23,4.8,26.8,4.8
		C2125.1,384.7,2129.2,390.6,2129.2,395.3z M2124.1,400.9c0-5.6-3.3-8-7.9-8c-2.5,0-12.7,0.5-20.6-1.2c-3.3,1.1-7.4,2.9-7.4,10.3
		c0,9.1,9.5,10.7,17.3,10.7C2116.2,412.7,2124.1,406.5,2124.1,400.9z M2093.2,357.9c0,7.2,3.3,14.4,10.8,14.4
		c8,0,10.6-7.2,10.6-14.4c0-7.6-2.5-15.8-10.6-15.8C2096.7,342.2,2093.2,350.3,2093.2,357.9z"/>
	<path d="M2139.1,386.4c0-3.2,2.7-6.3,6.3-6.3c3.2,0,6.2,2.8,6.2,6c0,3.9-2.5,6.4-5.9,6.4C2141.9,392.7,2139.1,390.3,2139.1,386.4z"
		/>
</g>
<g>
	<path d="M-309,501.2c0-4.1,2.7-7.9,5.4-10.2c4.3-3.7,18.7-8.4,20.9-9.2c0.8-0.3,1.6-0.5,1.9-1.2v-4.3c0-11.4-1.6-16.7-8-16.7
		c-7.4,0-8.7,6.4-8.7,12.3l-9.4,2.4c0-4.3,1.1-7.1,2.8-9.4c3.5-4.7,10.2-7.2,15.2-7.2c8,0,16.9,3.2,16.9,17.9v23.4
		c0,6.3,1.2,8.4,4.3,8.4c2.1,0,4.3-2,5.6-3.2l0.7,1.3c-3.7,3.1-7.9,5.6-11.6,5.6c-4.5,0-7-2.3-7.6-5.9c-4.9,3.5-11.9,6.3-17.3,6.3
		C-304.9,511.5-309,506.8-309,501.2z M-280.9,503.5v-21.1c-4.9,2.9-18.7,4.3-18.7,15.8c0,5.5,2.5,9.5,8.2,9.5
		C-288.6,507.6-282.3,504.7-280.9,503.5z"/>
	<path d="M-198.9,483.6c-0.1,15.9-8.8,27.7-26.4,27.7c-9,0-13.2-1.9-17.4-4.3l-3.9,3.3l-0.5,0.4l-1.2-0.4v-90.2
		c-1.5,0-6.7-0.1-8.2-0.4V418c6.2,0,9.4-0.8,15.7-2.5l1.3,1.3v48c4.9-6,11.4-7.5,17.9-7.5C-210,457.2-198.8,468.6-198.9,483.6z
		 M-223.3,459.9c-7,0-13.5,2.8-15.8,9.9c-0.3,1.2-0.4,2.5-0.4,3.9v21.4c0,12.2,6.6,13.9,15.2,13.9c11.8,0,15.1-11.5,15.1-24.9
		C-208.8,466.4-215.1,459.9-223.3,459.9z"/>
	<path d="M-142.4,474.9l-8.4-2.9c0.7-1.1,3.2-4.3,1.3-7.5c-1.1-1.9-4.1-4.9-11-4.9c-15.2,0-19.3,11.4-19,24.5
		c0.3,13.8,5.4,25.3,16.7,25.3c10.6,0,16.6-7.5,18.6-10l1.2,0.9c-1.2,1.5-7.4,11.5-21,11.5c-11,0-25-7.1-25-25.7
		c0.1-18.5,14.6-28.5,29-28.5c9.1,0,14,4.7,15.8,6.8C-141,467.6-141.8,473.8-142.4,474.9z"/>
	<path d="M-77.9,507.9v2.1h-14.4c-1.2,0-2.1,0-3.3,0v-7.2v-1.1c-2.4,4.5-8.4,9.4-16.2,9.4c-11.2,0-23-7.6-23.1-25.4
		c0-18.1,12.3-28.5,24.7-28.5c6.4,0,11.8,2.1,14.6,6.8v-43.9c-1.5,0-6.7-0.1-8.2-0.4V418c6.2,0,9.4-0.8,15.7-2.5l1.3,1.3v82.9v8.3h9
		V507.9z M-95.7,496.3v-23c0-8.7-7-13.8-13.4-13.8c-11,0-16.9,7.1-16.6,25.3c0.3,13.1,6.2,23.5,15.2,23.5
		C-103.6,508.4-95.8,502.1-95.7,496.3z"/>
	<path d="M-58.9,478.9v4.9c0.3,12.8,3.2,25.3,16.7,25.3c11,0,17.1-8.3,18.6-9.9l1.2,0.7c-1.2,1.5-7.1,11.5-21,11.5
		c-11.2,0-25-7.2-25-25.7c0.1-17.3,12-28.5,25-28.5c15.5,0,21.8,10.3,21.8,20.5c-0.4,0.7-1.1,1.2-2,1.2H-58.9z M-58.7,476.6h27.8
		c0-7.5-1.9-17.4-12.6-17.4C-54.1,459.2-57.8,466.7-58.7,476.6z"/>
	<path d="M31.8,425.1l-9.8,4.1c-0.4-3.3-0.4-11.4-7.9-11.4c-7,0-10,5.9-10,18.7v23.9h13.6v2.3H4.1V508h5.2h2.1v2.1h-23.5V508h2.1
		h5.2v-45.2h-7.2v-0.7v-1.5h1.6h5.6v-21.8c0-6,2.1-12.8,5.9-16.5c4-3.9,9-6.6,15.7-6.6C24.6,415.9,29.8,418.8,31.8,425.1z"/>
	<path d="M69.4,513.8c0,13.4-10.4,21.1-27,21.1c-8.3,0-22.1-2.3-22.1-13.8c0-8.7,7.8-10.8,12.6-11.9c-4.3-1.5-7.2-4-7.2-7.9
		c0-2.9,2.5-7.9,7.8-10c-5.4-2.9-8.8-8-8.8-14.8c0-10.6,9.5-18.6,20.1-18.6c4.4,0,8.4,1.2,11.6,3.3h13.6l-1.9,3.3l-8.8-0.9
		c3.2,3.2,5.2,7.6,5.2,12.7c0,11-8.3,17.7-19.7,17.7c-3.5,0-7-0.7-9.9-2c-2.9,1.3-4.9,3.3-4.9,6.3c0,7.6,24.1,4.8,28,4.8
		C65.3,503.2,69.4,509.1,69.4,513.8z M65.7,519.4c0-5.6-4.5-8.2-9.1-8.2c-2.5,0-13.2,0.8-21.4-1.3c-3.5,1.2-6.7,3.3-6.7,10.4
		c0,9.1,9.6,12.2,17.3,12.2C56.4,532.6,65.7,526.5,65.7,519.4z M33.7,476.5c0,7.2,2.5,15.7,10.7,15.7c8.6,0,10.7-8.4,10.7-15.7
		c0-7.6-2.1-16.7-10.7-16.7C36.2,459.7,33.7,468.8,33.7,476.5z"/>
	<path d="M136.6,507.9v2.1H113v-2.1h2.1h5.2v-29.2c0-12.7-2-18.5-11.2-18.5c-5.9,0-11.6,4-15,8.6v39.1h5.2h2.1v2.1H78v-2.1h2.1h5.2
		v-87.8c-1.5,0-6.6-0.1-8-0.4V418c6.2,0,9.4-0.8,15.7-2.5l1.3,1.3v49.8c3.9-4.4,10.3-8.4,16.6-8.4c10.2,0,18.5,4.7,18.5,18.6V508
		h5.2h2V507.9z"/>
	<path d="M169.6,507.9v2.1h-23.5v-2.1h2.1h5.2v-46.7c-1.5,0-6.6-0.1-8-0.4v-1.7c6.2,0,9.4-0.7,15.7-2.5l1.3,1.3v50h5.2L169.6,507.9
		L169.6,507.9z M149.1,431c0-3.7,2.9-6.7,6.7-6.7c3.5,0,6.4,2.9,6.4,6.7s-2.9,6.6-6.4,6.6C152.1,437.7,149.1,434.7,149.1,431z"/>
	<path d="M195.2,510.2c0,10.6-5.4,21.7-19.5,28.4l-0.8-0.7c11-6.7,11.4-10,11.4-27.7v-48.8c-1.5,0-6.6-0.1-8-0.4v-1.7
		c6.2,0,9.4-0.7,15.7-2.5l1.3,1.3v34.9C194.9,498.8,195.2,504,195.2,510.2z M181.9,431c0-3.7,2.9-6.7,6.7-6.7c3.5,0,6.4,2.9,6.4,6.7
		s-2.9,6.6-6.4,6.6C184.9,437.7,181.9,434.7,181.9,431z"/>
	<path d="M272.7,507.9v2.1h-17.1c-3.2-3.1-6.3-6.2-9.6-9.2l-19.4-18.9v26h5.2h2.1v2.1h-23.5v-2.1h2.1h5.2v-87.8
		c-1.5,0-6.6-0.1-8-0.4V418c6.2,0,9.4-0.8,15.7-2.5l1.3,1.3v63.4c7.6-6.4,15.1-13,22.9-19.3h-6.7h-2.7v-2.3h20.9v2.3h-2h-6.2
		c-6.6,5.8-11.6,10.2-18.2,15.9c10.2,10,21.8,21.1,32,31.2h6V507.9z"/>
	<path d="M300,507.9v2.1h-23.5v-2.1h2.1h5.2v-87.8c-1.5,0-6.6-0.1-8-0.4V418c6.2,0,9.4-0.8,15.7-2.5l1.3,1.3V508h5.2h2V507.9z"/>
	<path d="M399.4,507.9v2.1h-23.5v-2.1h2.1h5.2v-29.2c0-12.7-2-18.5-11.2-18.5c-5.2,0-10.2,3.1-13.6,7c1.1,2.5,1.6,5.6,1.6,9.2v31.3
		h5.2h2.3v2.1h-23.5v-2.1h2.1h5.2v-29.2c0-12.7-2-18.5-11.2-18.5c-4.4,0-8.7,2.1-12,5.4v42.3h5.2h2.1v2.1h-23.5v-2.1h2.1h5.2v-46.7
		c-1.5,0-6.6-0.1-8-0.4v-1.7c6.2,0,9.4-0.7,15.7-2.5l1.3,1.3v5.6c3.9-3.1,8.8-5.5,13.6-5.5c7,0,12.8,2.3,16.1,7.8
		c3.9-4.3,10-7.8,16.1-7.8c10.2,0,18.5,4.7,18.5,18.6v31.3h5.2h1.9V507.9z"/>
	<path d="M467.6,507.9v2.1h-23.5v-2.1h2.1h5.2v-29.2c0-12.7-2-18.5-11.2-18.5c-5.9,0-11.6,4-15,8.6v39.1h5.2h2.1v2.1h-23.5v-2.1h2.1
		h5.2v-46.7c-1.5,0-6.6-0.1-8-0.4v-1.7c6.2,0,9.4-0.7,15.7-2.5l1.3,1.3v8.6c3.9-4.4,10.3-8.4,16.6-8.4c10.2,0,18.5,4.7,18.5,18.6
		v31.3h5.2L467.6,507.9L467.6,507.9z"/>
	<path d="M476.3,484.4c0-13.2,6.4-27.2,26.5-27.2s26.5,13.9,26.5,27.2c0,13.2-6.4,27-26.5,27S476.3,497.6,476.3,484.4z M519.5,484.4
		c0-5.1,0-25.1-16.9-25.1c-17.1,0-16.6,20.1-16.6,25.1c0,5.2,0,24.9,17.1,24.9C519.9,509.2,519.5,489.6,519.5,484.4z"/>
	<path d="M595,483.3c0,15.4-6.2,28.8-25.3,28.8c-6.8,0-11.9-3.2-14.8-7.1v32.5h5.2h2.1v2.1h-23.5v-2.1h2.3h5.1v-76.1
		c-1.5,0-6.6-0.1-8-0.4v-1.7c6.2,0,9.4-0.7,15.7-2.5l1.3,1.3v8c2.7-3.3,7.2-8.8,17.5-8.8C584.2,457.2,595,465.6,595,483.3z
		 M570.9,459.7c-7.8,0-16.1,5.4-16.1,15.8v15.9c0,12.7,6.2,17.9,15.5,17.9c10.8,0,15.1-11.9,15.2-25.3
		C585.8,467.9,578.9,459.7,570.9,459.7z"/>
	<path d="M660.5,537.3v2.1H637v-2.1h2.3h5.1v-35.6c-2.4,4.5-8.4,9.4-16.2,9.4c-11.2,0-23-7.6-23.1-25.4c0-18.1,12.3-28.5,24.7-28.5
		c6.4,0,11.8,2.1,14.6,6.8v-2.7l7.9-4l0.9,0.7v79.3h5.1H660.5z M644.4,496.3v-23c0-8.7-7-13.8-13.4-13.8c-11,0-17,7.1-16.6,25.3
		c0.3,13.1,6.2,23.5,15.2,23.5C636.3,508.4,644.2,502.1,644.4,496.3z"/>
	<path d="M706.4,466.7l-8.8,4.9c-0.1-2.5-0.4-12-5.4-12s-8.3,8.4-8.3,16.7v31.4h5.2h2.1v2.1h-23.5v-2.1h2.1h5.2v-46.7
		c-1.5,0-6.7-0.1-8.2-0.4v-1.7c6.2,0,9.4-0.7,15.7-2.5l1.3,1.3v9.5c1.3-5.1,4-9.9,11-9.9C701.2,457.6,705.4,460.4,706.4,466.7z"/>
	<path d="M715.3,495.3h2v1.7c0,3.2,1.3,6.3,3.7,8.6c2.3,2,5.2,3.3,9,3.3c7.9,0,12.2-3.2,12-10c0-5.5-7.6-8.4-12.8-11.4
		c-5.8-3.7-11.5-8.6-12-16.7c-0.5-8.3,4.9-14,14.8-14c7.4,0,8.3,4.5,13,1.7v12h-2.4V469c0-3.1-1.3-6.2-4-8.2c-1.6-1.2-4.3-2-7.1-2
		c-5.1,0-9.2,1.7-9.1,7.5c0,5.5,7.2,8.6,12.2,11.8c5.9,3.5,12.2,8.4,12.7,17c0.5,11.5-8,16.2-17.7,16.2c-7.6,0-10.3-4.7-14.4-1.2
		v-14.7H715.3z"/>
	<path d="M788.8,506.8c-3.3,2.8-6.3,4.1-10.4,4.1c-8.6,0-13.1-4.5-13-16.1l0.1-8.7v-23.4h-7.9v-0.5v-1.6h1.2
		c9.6,0,12.3-10.6,13.5-19.4h2v19.4h13.8v2.3h-13.8v31.3c0,5.9-0.5,14.7,5.6,14.7c3.1,0,6.3-1.9,8.2-3.5L788.8,506.8z"/>
	<path d="M856.2,507.9v2.1h-14.4c-1.2,0-2.1,0-3.3,0v-7.2v-1.6c-5.5,5.1-11.9,9.5-18.6,9.5c-7.6,0-15.8-4.7-15.8-18.6v-31
		c-1.5,0-6.7-0.1-8-0.4v-1.7c6.2,0,9.4-0.7,15.7-2.5l1.3,1.3V490c0,12.7,4.1,17.4,10.6,17.4c4.8,0,11-4.5,14.8-8.3v-38
		c-1.5,0-6.7-0.1-8.2-0.4v-1.7c6.2,0,9.4-0.7,15.7-2.5l1.3,1.3v41.7v8.3h9V507.9z"/>
	<path d="M856.4,458.7h23.7v2.3h-2.1h-5.5l14.8,37.2l15.2-37.2H898h-2.8v-2.3h16.3v2.3h-0.9h-5.4l-20.6,50.2c-0.4,1.2-1.5,1.2-1.9,0
		l-20.3-50.3h-5.4h-0.7V458.7z"/>
	<path d="M965.8,511.2c-0.4,1.3-1.6,1.2-2,0l-14.2-36.8l-13.2,36.7c-0.4,1.2-1.5,1.2-1.9,0l-19.1-50.2h-5.8h-2.3v-2.3h26.5v2.3h-1.7
		h-6.7l13.5,35.9l13.4-36.4c0.4-1.2,1.5-1.3,1.9,0l14.3,37.1l13.4-36.7h-6.3H974v-2.3h17.7v2.3h-1.3h-5.9L965.8,511.2z"/>
	<path d="M991.5,507.9h1.2h6.2l16.7-22.9l-17.7-24.2h-6.2h-0.7v-2.3h23.4v2.3h-0.9h-5.4l12.7,17.9l13-17.9h-5.5h-1.2v-2.3h16.6v2.3
		h-0.9h-6.2l-14.6,19.5l20.1,27.6h6.2v2.1h-23.4v-2.1h1.6h5.4l-15-21.1l-15.1,21.1h5.5h1.9v2.1h-17.7V507.9z"/>
	<path d="M1071.8,458.7v2.3h-1.5h-5.5l15.1,37.2l15.2-37.2h-4.9h-1.3v-2.3h16.2v2.3h-1.9h-5.1l-28.5,68.8
		c-2.9,7.4-8.3,10.7-12.2,10.7c-1.6,0-11.5,0.8-11.5-12h9.4c0,11.6,7.4,11.8,11.6,1.6l8-19.8l-20.2-49.1h-5.4h-0.8v-2.3h23.1V458.7z
		"/>
	<path d="M1152.6,497.6V510h-16.9h-29.2c-1.2,0-1.6-0.9-0.9-1.7l35-47.2h-22.1c-5.8,0-7.9,2.7-7.9,8.3v1.1h-2.3v-11.8h15.2h26.4
		c1.2,0,1.6,0.9,0.9,1.7l-35,47.1h27.4c5.6,0,7.1-2.7,7.1-7.6v-2.1h2.1V497.6z"/>
	<path d="M1184.4,457.5l1.1,3.3l-1.1,0.4c-1.1,0.4-1.9,1.2-1.9,2.5v44.1h6.2h2.7v2.1h-26.6v-2.1h2.7h6.2v-38.5c0-3.1-2-4-4.9-3.7
		l-6.4,0.7l-1.1-2.4L1184.4,457.5z"/>
	<path d="M1237.4,503.1c2.9,0,4.8-1.3,5.9-4l1.1-2.5l3.3,1.3l-4.9,12.8c-4-0.4-7.9-0.5-12.3-0.5h-27.8l-0.5-0.9
		c9.4-7.5,30.4-20.7,30.4-37.5c0-5.5-4-9.1-10.3-9.1c-7.5,0-12.7,6.4-16.1,10.2l-1.9-1.1c3.5-5.5,8.4-15,22.1-15
		c11.5,0,15.8,6,15.8,14.2c0,11.2-18.6,25.7-26.6,32.2h21.9V503.1z"/>
	<path d="M1258.9,471.5l-1.7-1.2c4.8-6.3,11-13.5,23.5-13.5c9.2,0,17.7,4,17.7,14.4c0,9-10.8,16.7-15.9,18.2
		c9.9-2.7,22.3,3.3,22.3,15.1c0,19.7-21.7,32.8-37.6,32.8c-5.4,0-8.4-1.1-11.5-3.9l5.8-5.8c3.9,3.9,7.1,5.8,12.3,5.8
		c5.6,0,20.5-9,20.5-25.7c0-11.9-10.2-16.1-19.4-15l-0.4-1.2c8.4-5.5,14.4-9.1,14.4-17.5c0-10-7.1-11.6-12.2-11.6
		C1269.3,462.4,1263,467.6,1258.9,471.5z"/>
	<path d="M1314.4,509.2l45.1-55.1c0.4-0.4,0.9-0.1,0.9,0.4v49.4h9.4l-2.7,6.7c-1.6-0.3-3.2-0.3-4.9-0.3h-1.7v26.1l-8.8,3.5v-29.6
		h-36.7C1314.3,510.2,1314.1,509.8,1314.4,509.2z M1351.5,503.9v-34.8l-28.4,34.8H1351.5z"/>
	<path d="M1414.9,458.7c5.8,0,8.2-2.9,9-4.4l1.7,1.1c-1.5,2.4-3.3,10.7-16.2,10.6l-12-0.1h-7.9v21c1.5-1.1,6.6-4.1,12.8-4.1
		c14.4,0,21.9,7.9,21.9,19.1c0,23.4-34.8,35.4-41.1,38l-1.6-1.9c6.2-3.2,31.8-16.3,31.8-33.7c0-6.8-4.1-15-15.1-15
		c-5.9,0-10,2.4-12.8,3.9v-34.2h29.4V458.7z"/>
	<path d="M1486.8,485.6c0,14-8,26-25.4,26c-17.4,0-23.9-13.5-23.9-28.9c0-32.6,29.8-55.5,42.8-60.6l1.2,2.1
		c-5.5,2.9-31.8,18.9-34.8,50.6c3.9-5.6,10.4-10.4,18.9-10.4C1479.4,464.4,1486.8,474.6,1486.8,485.6z M1477.5,488.9
		c0-10.8-5.1-19.5-15-19.5c-7,0-12.7,5.1-16.1,9.9v1.3c0,16.2,4.7,26.8,17,26.8C1472.1,507.4,1477.5,498.5,1477.5,488.9z"/>
	<path d="M1500.4,458.7h47.1l-23,51.2c-4.3,9.6-9.8,21.7-10.7,29.7h-5.9c0-1.3,0.4-3.7,0.9-5.1c2.4-7.9,7-17.3,11-25.4l20.7-42.7
		h-32.9c-3.3,0-5.8,1.6-6.7,4.9l-0.4,1.9l-3.5-0.9L1500.4,458.7z"/>
	<path d="M1609.5,488.1c0,11.2-7.8,23.4-26.2,23.4c-15.8,0-23.7-9.2-23.7-21.8c0-11,11.2-18.9,17.9-23.3
		c-5.1-3.2-15.2-8.7-15.2-24.5c0-10.3,9-20.6,23.4-20.6c16.1,0,20.5,12.4,20.5,20.5c0,12.4-9.9,16.3-17.4,20.1
		C1595.9,466.3,1609.5,476.1,1609.5,488.1z M1601.2,491.7c0-11.5-14.2-19.3-21.5-23.9c-4.9,4.5-12,11.6-12,19.7
		c0,10,7.6,19.1,17.9,19.1C1594.3,506.6,1601.2,502.9,1601.2,491.7z M1586.5,460.5c4.9-3.9,11.6-9.2,11.6-17.1
		c0-11-5.6-17.5-14.8-17.5c-8.8,0-13.9,4.7-13.9,13.6C1569.2,448.9,1580.4,456.9,1586.5,460.5z"/>
	<path d="M1623.7,545.8c17.9-13.1,39.6-35.3,39.6-59.4c0-13.6-4.7-25.1-17.7-25.1c-8.3,0-16.6,6.8-16.6,20.6
		c0,9.5,4.4,19.4,16.5,19.4c7.6,0,11.2-2.9,13.6-5.1l1.5,1.1c-1.9,2-5.9,10.4-19.4,10.4c-15.7,0-20.7-12.2-20.7-23.4
		c0-11.5,8.4-26.9,27-26.9c20.9,0,25.1,16.6,25.1,30.1c0,20.9-18.9,44.8-47.1,59.9L1623.7,545.8z"/>
</g>
<g>
	<path d="M-531.2,642.1v4.4h-31.2v-4.4l4-0.4c3.3-0.4,4.9-2.5,4.5-5.5l-11-28.2h-27.4l-11.2,28.1c-0.5,3.1,1.2,5.2,4.4,5.6l3.7,0.4
		v4.4h-25.4v-4.4l2-0.4c4.5-0.4,7.8-2.4,9.9-6.3l32.8-79.2c0.4-1.2,1.1-1.1,1.5,0l31.8,79.1c2.4,4,5.6,6.2,10.2,6.7L-531.2,642.1z
		 M-567.2,602.6v-0.1l-11.4-29.4l-11.8,29.6H-567.2z"/>
	<path d="M-526.8,642.1l3.7-0.5c2.9-0.3,4.7-1.9,5.2-4.5v-69.2c-0.4-2.7-2.1-4.4-5.2-4.5l-3.7-0.5v-4.4h30.9c25,0,27,15.1,27,20.5
		c0,12-7.8,18.6-15.8,20.9c5.2,0.8,21.4,4.8,21.4,22.3c0,17.5-15.9,24.6-31.7,24.6h-32v-4.5H-526.8z M-480,578.9
		c0-11.4-8-16.7-21.1-16.5c-2.4,0-5.4,0.5-6.6,0.9v34.5h14.3C-486,597.9-480,589.5-480,578.9z M-497,642.1c11,0,22.6-6.2,22.6-20.2
		c0-15.8-10.8-19.4-28-19.4h-5.5v31C-507,639-505.4,642.1-497,642.1z"/>
	<path d="M-367.8,581.7l-4.7-0.7c-2.8-5.8-6-10.4-9.5-14.2c-5.2-4.3-11.9-6.8-19-7c-20.5-0.7-36.3,13.4-36.5,40
		c-0.3,21.1,10.8,44.5,36,44c14-0.3,23-5.6,26.9-9.2c2.8-3.7,5.4-9.8,6.2-13h3.7l-1.5,18.2c-0.5,0-1.7,0-2.5,0.3
		c-14.2,6.2-22.7,7.8-34,7.9c-19,0.1-46.8-9.1-46.7-48c0.1-28.8,19.4-43.9,48.4-44.1c15.1-0.1,25.1,4.3,31.8,8.4L-367.8,581.7z"/>
	<path d="M-352.2,642.1l3.7-0.5c2.9-0.3,4.7-1.9,5.2-4.5v-69.2c-0.4-2.7-2.1-4.4-5.2-4.5l-3.7-0.5v-4.4h40.4
		c24.6,0,45.2,11.5,45.2,44.7c0,33.3-22.5,43.6-46,43.6h-39.6V642.1z M-312.6,642.1c16.9,0,34.1-10.7,34.1-39.3
		c0-28.5-17.9-40.3-38.3-40.3c-3.2,0-11.5,0.3-16.3,1.7v68C-331.9,640.6-328.2,642.1-312.6,642.1z"/>
	<path d="M-253.5,642.1l3.7-0.5c2.9-0.3,4.7-1.9,5.2-4.5v-69.2c-0.4-2.7-2.1-4.4-5.2-4.5l-3.7-0.5v-4.4h46.8c4.4,0,7.2-0.1,9.5-0.3
		c-0.1,5.8-1.5,12.7-2.4,16.7l-3.2-0.4c-0.1-7-2.1-10.6-6.6-11.6h-25v35.6h23.4c2.7-0.4,4.4-2,4.5-4.7l0.4-3.2h4.4v20.3h-4.4
		l-0.4-3.3c-0.3-2.5-1.9-4.3-4.5-4.5h-23.4V634c0.5,6.4,5.2,8.3,12.3,8.3h19.7c3.9-0.9,6.8-4.4,9.4-11.2l3.3,0.3
		c-0.9,5.4-2.4,10.6-4.1,15.8c-3.3-0.3-7.9-0.4-11.9-0.4h-47.8V642.1z"/>
	<path d="M-159.7,598.2h25.1c2.7-0.4,4.3-2,4.5-4.7l0.4-3.2h4.4v20.3h-4.4l-0.4-3.3c-0.3-2.5-1.9-4.3-4.5-4.5h-25.1V637
		c0.4,2.7,2.1,4.4,5.2,4.5l3.7,0.5v4.4h-28v-4.4l3.7-0.5c2.9-0.3,4.7-1.9,5.2-4.5v-69.2c-0.4-2.7-2.1-4.4-5.2-4.5l-3.7-0.5v-4.4
		h49.8c4.4,0,7.2-0.1,9.6-0.3c-0.3,5.8-1.6,12.7-2.4,16.7l-3.3-0.4c-0.1-7-2.3-10.6-6.7-11.6h-27.8v35.4H-159.7z"/>
	<path d="M-28.6,581.6c-2.5-6-6.2-11-10.4-14.7c-5.5-4.3-12.8-6.4-19.7-6.3c-20.5,0.5-36.1,12.4-36.3,39.3
		c-0.1,24.1,12.3,44.3,36,44.1c10.6,0,17-2.4,22.1-6.8v-16.3c-0.4-2.7-2.4-4.4-5.6-4.5l-4.1-0.5v-4.4h26.6v4.4l-2.8,0.5
		c-2.3,0.3-3.5,1.9-3.9,4.5v10.6c0,2.8,0.1,5.4,0.3,7.2c0,0.1,0,0.3-0.3,0.4c-12.7,6.4-22.1,9-33.2,9.1
		c-17.7,0.3-47.1-8.8-47.1-48.2c0-28,19.3-43.5,48.2-44c15-0.3,26,4,33.4,9l1.5,17.3L-28.6,581.6z"/>
	<path d="M81.8,641.5l3.7,0.5v4.4H56.2v-4.4l3.7-0.5c2.9-0.3,4.7-1.9,5.2-4.5v-34.2H10.3V637c0.4,2.7,2.1,4.4,5.1,4.5l3.7,0.5v4.4
		h-29.4v-4.4l3.7-0.5c2.9-0.3,4.7-1.9,5.2-4.5v-69.2c-0.4-2.7-2.1-4.4-5.2-4.5l-3.7-0.5v-4.4h29.4v4.4l-3.7,0.5
		c-2.9,0.3-4.7,1.9-5.1,4.5v30.5H65v-30.5c-0.4-2.7-2.1-4.4-5.2-4.5l-3.7-0.5v-4.4h29.4v4.4l-3.7,0.5c-2.9,0.3-4.7,1.9-5.2,4.5V637
		C77.2,639.5,78.9,641.4,81.8,641.5z"/>
	<path d="M101,563.3l-3.7-0.5v-4.4h28.1v4.4l-3.7,0.5c-2.9,0.3-4.7,1.9-5.2,4.5V637c0.4,2.7,2.1,4.4,5.2,4.5l3.7,0.5v4.4h-28v-4.4
		l3.7-0.5c2.9-0.3,4.7-1.9,5.2-4.5v-69.2C105.7,565.2,103.9,563.4,101,563.3z"/>
	<path d="M126.5,679l-0.9-1.3c9.8-6.8,17.5-21.7,17.5-37.1v-72.9c-0.4-2.7-2.1-4.4-5.2-4.5l-3.7-0.5v-4.4h28v4.4l-3.7,0.5
		c-2.9,0.3-4.7,1.9-5.2,4.5v34.4c0.1,13.2,0.3,25.4,0.3,40.1C153.7,660.4,138.7,675.1,126.5,679z"/>
	<path d="M258,646.8c-3.9,0.4-7.4,0.5-10.7,0.5c-21.5-3.5-31.8-24.1-54.2-44v33.6c0.4,2.7,2.1,4.4,5.2,4.5l3.7,0.5v4.4h-28v-4.4
		l3.7-0.5c2.9-0.3,4.7-1.9,5.2-4.5v-69.2c-0.4-2.7-2.1-4.4-5.2-4.5l-3.7-0.5v-4.4h28v4.4l-3.7,0.5c-2.9,0.3-4.7,1.9-5.2,4.5v33.2
		c9.2-7.9,24.1-21.8,32.1-33.8c0.8-2-0.5-3.9-3.2-4.1l-4.1-0.3v-4.4h28.8v4.4l-3.3,0.3c-3.5,0.3-6.3,1.5-9,4.1
		c-10.2,12-21.3,23.8-31.6,32.8c12.8,10.2,25.4,28,42.4,39.3c4,2,8,3.9,12.6,5.4L258,646.8z"/>
	<path d="M313.3,646.5h-49.5v-4.4l3.7-0.5c2.9-0.3,4.7-1.9,5.2-4.5v-69.2c-0.4-2.7-2.1-4.4-5.2-4.5l-3.7-0.5v-4.4h28v4.4l-3.7,0.5
		c-2.9,0.3-4.7,1.9-5.2,4.5v66.1c0.7,6.4,5.2,8.3,12.3,8.3h21.5c3.9-0.9,6.8-4.4,9.4-11.2l3.3,0.3c-0.9,5.4-2.4,10.6-4.1,15.8
		C321.8,646.6,317.3,646.5,313.3,646.5z"/>
	<path d="M336.4,641.8c4.1-0.4,6.7-2.5,7.6-6.3l6.3-69c-0.1-1.9-1.5-3.1-3.5-3.2l-4.5-0.5v-4.4H361c0.5,0,1.2,0.1,1.5,0.9l31.4,71.4
		l31.8-71.4c0.3-0.5,0.9-0.9,1.5-0.9h19.7v4.4l-5.5,0.5c-2.1,0.1-3.3,1.3-3.5,3.2l7.2,69c1.1,3.9,3.9,5.9,7.8,6.2l2.7,0.4v4.4h-30.1
		v-4.4l4.3-0.8c2.9-0.1,4.7-1.9,4.7-4.7l-7.4-67.4l-35.9,79.7c-0.1,0.3-0.3,0.3-0.4,0L356.5,572l-5.9,64.7c0.1,2.9,2,4.5,4.9,4.8
		l3.5,0.5v4.4h-25v-4.4L336.4,641.8z"/>
	<path d="M482.8,559.3l57.5,68.8v-60.2c-0.4-2.7-2.3-4.4-5.2-4.5l-3.7-0.5v-4.4h24.6v4.4l-3.7,0.5c-2.9,0.3-4.7,1.9-5.1,4.5v80
		c0,1.3-0.9,1.7-1.7,0.7l-65.1-76.7v65c0.4,2.7,2.3,4.4,5.2,4.5l3.7,0.5v4.4h-24.6v-4.4l3.7-0.5c2.9-0.3,4.7-1.9,5.1-4.5v-69.2
		c-0.4-2.7-2.3-4.4-5.1-4.5l-3.7-0.5v-4.4h15.9C481.4,558.2,482.1,558.5,482.8,559.3z"/>
	<path d="M660.3,603c0,16.1-5.6,45.1-47.1,45.1c-27.8,0-44.7-17.4-44.7-45.6c0-16.6,7.9-46.2,47.2-46.2
		C642.9,556.2,660.3,571.4,660.3,603z M580.3,600.7c0,26.2,12.6,42.8,35.4,42.8c22.2,0,32.8-15,32.8-38.8
		c0-24.7-10.6-44.1-35.3-44.1C590.3,560.6,580.3,579.1,580.3,600.7z"/>
	<path d="M736.5,582.4c0,20.1-17.8,30.4-43.9,26.9V637c0.4,2.7,2.3,4.4,5.1,4.5l3.7,0.5v4.4h-28v-4.4l3.7-0.5
		c2.9-0.3,4.7-1.9,5.1-4.5v-69.2c-0.4-2.7-2.3-4.4-5.1-4.5l-3.7-0.5v-4.4h33.6C725.2,558.2,736.5,563.9,736.5,582.4z M725.8,582.9
		c0-22.5-16.5-20.7-23.3-20.5c-3.7,0.1-7.4,0.9-9.9,2v39.5c2.3,1.2,5.1,1.6,6.7,1.6C702.8,605.6,725.8,606.9,725.8,582.9z"/>
	<path d="M804.3,647.2c-3.3,0.5-7.2,0.9-11.4,0.9c-27.8,0-44.7-17.4-44.7-45.6c0-16.6,7.9-46.2,47.2-46.2
		c27.2,0,44.5,15.2,44.5,46.8c0,12.2-3.2,32-23.1,40.7c19.4,4.5,21.1,16.7,47.1,14l0.5,2.1C828,674.2,827.5,652.1,804.3,647.2z
		 M795.5,643.5c22.2,0,32.8-15,32.8-38.8c0-24.7-10.6-44.1-35.3-44.1c-23,0-32.9,18.6-32.9,40.1C760.1,627,772.6,643.5,795.5,643.5z
		"/>
	<path d="M936.2,644.9v2c-3.9,0.3-7.2,0.5-11.2,0.5c-16.7-3.2-28.8-24.1-40.7-38c-4.5,0.5-9.8,0.4-15.2-0.3v27.7
		c0.4,2.7,2.3,4.4,5.1,4.5l3.7,0.5v4.4h-28v-4.4l3.7-0.5c2.9-0.3,4.7-1.9,5.1-4.5v-69.2c-0.4-2.7-2.3-4.4-5.1-4.5l-3.7-0.5v-4.4
		h33.6c18.1,0,29.4,5.8,29.4,24.1c0,12.3-6.8,21-18.1,25c4.5,5.9,15.4,19.1,23.9,27.4C925.4,640.2,931.3,643.1,936.2,644.9z
		 M902.3,582.9c0-21.8-14.8-21-23.3-20.5c-3.9,0.3-7.4,1.1-9.9,2v39.5c2.3,1.2,5.1,1.6,6.7,1.6C879.3,605.6,902.3,606.9,902.3,582.9
		z"/>
	<path d="M939.2,628.2h4.4l0.1,1.6c0.4,5.4,2.9,9.2,7.4,11.6c3.9,1.6,7.4,2.4,11.5,2.4c5.4,0,18.2-3.1,17.9-16.2
		c-0.3-11.8-9.4-16.2-19-21.8c-10.2-5.9-19.8-11.4-20.3-25.3c-0.7-23.8,20.2-24.9,26.6-24.6c7.1,0.3,11.5,1.5,17.8,3.7
		c-0.5,6-0.9,10.6-0.9,14.7h-4.3l-0.1-1.5c-0.3-5.5-2.8-9.1-6.2-11c-2.5-1.2-5.5-1.5-7.9-1.5c-10.6,0-16.7,5.4-16.2,16.2
		c0.4,8.7,7.5,12.3,16.5,17.8c10.6,6.4,22.3,12.8,23.1,29.8c0.9,20.1-17.1,23.9-26.9,23.9c-7.9,0-17.3-1.9-24.5-4.3
		C938.9,637.9,939.2,634.3,939.2,628.2z"/>
	<path d="M1072.3,573.7l-4.1,0.5l-0.4-2.1c-0.9-4.4-3.3-7-7.5-7.5H1041V637c0.4,2.7,2.1,4.4,5.1,4.5l3.7,0.5v4.4h-28v-4.4l3.7-0.5
		c2.9-0.3,4.7-1.9,5.2-4.5v-72.4h-19.4c-4.1,0.5-6.4,3.1-7.4,7.5l-0.5,2.1l-4.1-0.5l1.7-16.2c3.7,0.4,7.5,0.7,11.2,0.7h47.2
		c3.7,0,7.5-0.3,11.2-0.7L1072.3,573.7z"/>
	<path d="M1161.5,567.8v38.5c0,13.4,0.4,41.6-36.8,41.6c-34.9,0-35.4-22.2-35.4-44.4v-35.7c-0.4-2.7-2.3-4.4-5.2-4.5l-3.7-0.5v-4.4
		h28v4.4l-3.7,0.5c-2.9,0.3-4.7,1.9-5.1,4.5v43.1c0,17.3,5.4,32.6,25.1,32.6c19.1,0,29.4-10.6,29.4-30.1v-45.6
		c-0.4-2.7-2.1-4.4-5.1-4.5l-3.7-0.5v-4.4h25v4.4l-3.7,0.5C1163.7,563.5,1161.9,565.2,1161.5,567.8z"/>
	<path d="M1174,558.2h32v4.4l-4.1,0.3c-3.5,0.4-5.4,2.7-4.7,5.8l25.4,60.1l24.1-60.1c0.5-3.1-1.3-5.4-4.8-5.8l-4.3-0.3v-4.4h26.9
		v4.4l-2.5,0.3c-3.9,0.4-6.7,2.1-8.6,5.5l-32.5,79.9c-0.4,1.2-0.7,1.2-1.2,0l-33.8-78.5c-2.4-4.3-5.6-6.3-10.4-6.8l-1.5-0.3v-4.4
		H1174z"/>
	<path d="M1261.6,558.2h32.9v4.4l-5.9,0.4c-3.3,0.4-5.4,2.5-5.1,5.6l19.3,58.7l24.5-71.2c0.5-1.9,1.5-1.9,2.3-0.1l26.1,71.3
		l20.6-58.9c0.4-3.1-1.3-5.1-4.5-5.5l-4.5-0.4v-4.4h26.2v4.4l-3.7,0.4c-3.2,0.3-5.4,1.7-6.8,4.5l-28.8,80.7c-0.4,1.1-0.7,1.1-1.2,0
		l-26.4-72.5l-25.1,72.5c-0.3,1.1-0.9,1.1-1.2,0l-27-79.1c-1.7-3.7-4.7-5.8-8.8-6l-2.7-0.5L1261.6,558.2L1261.6,558.2z"/>
	<path d="M1398.4,641.7c4.3-0.3,7.4-1.9,10.2-4.9l25.3-33.8l-23.5-34.5c-2.7-3.3-5.9-4.8-10-5.1l-2.3-0.4v-4.4h30.5v4.4l-3.9,0.4
		c-2.1,0.3-3.2,1.7-2.8,3.5l18.2,28l20.9-28.2c0.8-1.7-0.3-3.1-2.5-3.2l-4.3-0.4v-4.4h25.4v4.4l-3.2,0.3c-3.5,0.3-6.3,1.5-8.8,4.1
		l-23.8,32l25.4,37.5c2.8,3.2,5.9,4.8,10.2,5.2l2.8,0.4v4.4h-32.4v-4.4l3.3-0.5c3.2-0.1,4.5-2.3,3.5-4.7l-19.5-29.4l-22.5,30.4
		c-0.8,1.9,0.4,3.7,2.9,4l5.2,0.4v4.4h-27.6v-4.4L1398.4,641.7z"/>
	<path d="M1562.4,558.2v4.4l-3.7,0.3c-3.1,0.3-5.5,1.5-7.2,3.9l-23.7,38.7v31.4c0.4,2.7,2.1,4.4,5.1,4.5l3.7,0.5v4.4h-28v-4.4
		l3.7-0.5c2.9-0.3,4.7-1.9,5.2-4.5v-30.6l-21.5-38.7c-2.1-2.9-4.8-4.4-8.6-4.7l-3.1-0.3v-4.4h30.5v4.4l-4.7,0.3
		c-2,0.3-3.2,1.6-2.9,3.5l18.1,33.3l20.5-33.3c0.4-1.9-0.5-3.2-2.8-3.5l-4.1-0.3v-4.4H1562.4z"/>
	<path d="M1564.2,644.7l60.1-80.7h-45.6c-2.7,0.3-4.5,1.7-5.9,4.4l-1.7,3.5h-4.3l5.9-14.7c4.5,0.5,10.2,0.9,14.8,0.9h51.5
		c1.2,0,1.6,0.9,0.9,1.7l-60.1,80.7h51.2c2.8-0.4,4.4-2.4,4.7-5.4l0.4-3.5h4.4V647c-6.7-0.3-17.4-0.5-21-0.5h-54.4
		C1563.9,646.5,1563.5,645.7,1564.2,644.7z"/>
	<path d="M1672.4,593.8l1.1,3.3l-1.1,0.7c-0.9,0.4-1.7,1.2-1.9,2.5v37.2c0.5,2.7,2.8,4.4,6.2,4.7l2.7,0.4v3.7h-26.5v-3.7l2.7-0.4
		c3.5-0.3,5.6-2,6.2-4.7v-31.4c0-2.7-1.5-3.5-3.7-3.5l-7.8,0.5l-1.1-2.7L1672.4,593.8z"/>
	<path d="M1725.4,639.4c2.9,0,4.8-1.3,5.9-4l1.1-2.5l3.3,1.3l-4.9,12.8c-4-0.4-7.9-0.5-12.3-0.5h-28l-0.5-0.9
		c9.4-7.5,30.4-20.7,30.4-37.5c0-5.5-4-9.1-10.3-9.1c-7.5,0-12.7,6.4-16.1,10.2l-1.9-1.1c3.5-5.5,8.4-15,22.1-15
		c11.5,0,15.8,6,15.8,14.2c0,11.2-18.6,25.7-26.6,32.2h22.1V639.4z"/>
	<path d="M1747,607.8l-1.7-1.2c4.8-6.3,11-13.5,23.5-13.5c9.2,0,17.7,4,17.7,14.4c0,9-10.8,16.7-15.9,18.2
		c9.9-2.7,22.3,3.3,22.3,15.1c0,19.7-21.7,32.8-37.6,32.8c-5.4,0-8.4-1.1-11.5-3.9l5.8-5.8c3.9,3.9,7.1,5.8,12.3,5.8
		c5.6,0,20.5-9,20.5-25.7c0-11.9-10.2-16.1-19.4-15l-0.4-1.2c8.4-5.5,14.4-9.1,14.4-17.5c0-10-7.1-11.6-12.2-11.6
		C1757.5,598.9,1751,603.9,1747,607.8z"/>
	<path d="M1802.4,645.7l45.1-55.1c0.4-0.4,0.9-0.1,0.9,0.4v49.2h9.4l-2.7,6.7c-1.6-0.3-3.2-0.3-4.9-0.3h-1.7v26.1l-8.8,3.5v-29.6
		h-36.7C1802.3,646.5,1802.1,646.1,1802.4,645.7z M1839.6,640.2v-34.8l-28.4,34.8H1839.6z"/>
	<path d="M1903,595c5.8,0,8.2-2.9,9-4.4l1.7,1.1c-1.5,2.4-3.3,10.7-16.2,10.6l-12-0.1h-7.9v21c1.5-1.1,6.6-4.1,12.8-4.1
		c14.4,0,21.9,7.9,21.9,19.1c0,23.4-34.8,35.4-41.1,38l-1.6-1.9c6.2-3.2,31.8-16.3,31.8-33.7c0-6.8-4.1-15-15.1-15
		c-5.9,0-10,2.4-12.8,3.9v-34.2h29.4V595z"/>
	<path d="M1975,621.9c0,14-8,26-25.4,26c-17.4,0-23.9-13.5-23.9-28.9c0-32.6,29.8-55.5,42.8-60.6l1.2,2.3
		c-5.5,2.9-31.8,18.9-34.8,50.6c3.9-5.6,10.4-10.4,18.9-10.4C1967.4,600.7,1975,610.9,1975,621.9z M1965.5,625.3
		c0-10.8-5.1-19.5-15-19.5c-7,0-12.7,5.2-16.1,9.9v1.3c0,16.2,4.7,26.8,17,26.8C1960.3,643.7,1965.5,634.8,1965.5,625.3z"/>
	<path d="M1988.5,595h47.1l-23,51.2c-4.3,9.6-9.8,21.7-10.7,29.7h-5.9c0-1.3,0.4-3.7,0.9-5.2c2.4-7.9,7-17.3,11-25.4l20.7-42.7
		h-32.9c-3.3,0-5.8,1.6-6.7,4.9l-0.4,1.9l-3.5-0.9L1988.5,595z"/>
	<path d="M2097.5,624.4c0,11.2-7.8,23.4-26.2,23.4c-15.8,0-23.7-9.2-23.7-21.8c0-11,11.2-18.9,17.9-23.3
		c-5.1-3.2-15.2-8.7-15.2-24.5c0-10.3,9-20.6,23.4-20.6c16.1,0,20.5,12.6,20.5,20.5c0,12.4-9.9,16.3-17.4,20.1
		C2084,602.6,2097.5,612.4,2097.5,624.4z M2089.2,628.2c0-11.5-14.2-19.3-21.5-23.9c-4.9,4.5-12,11.6-12,19.7
		c0,10,7.6,19.1,17.9,19.1C2082.4,643,2089.2,639.3,2089.2,628.2z M2074.5,596.9c4.9-3.9,11.6-9.2,11.6-17.1
		c0-11-5.6-17.5-14.8-17.5c-8.8,0-13.9,4.7-13.9,13.6C2057.4,585.4,2068.3,593.2,2074.5,596.9z"/>
	<path d="M2111.7,682.1c17.9-13.1,39.6-35.3,39.6-59.4c0-13.6-4.7-25.1-17.7-25.1c-8.3,0-16.6,6.8-16.6,20.6
		c0,9.6,4.4,19.4,16.5,19.4c7.6,0,11.2-2.9,13.6-5.2l1.5,1.1c-1.9,2-5.9,10.4-19.4,10.4c-15.7,0-20.7-12.2-20.7-23.4
		c0-11.5,8.4-26.9,27-26.9c20.9,0,25.1,16.6,25.1,30.1c0,20.9-18.9,44.9-47.1,59.9L2111.7,682.1z"/>
</g>
</svg>
