<?xml version="1.0" encoding="utf-8"?>
<!-- Generator: Adobe Illustrator 21.0.2, SVG Export Plug-In . SVG Version: 6.00 Build 0)  -->
<svg version="1.1" id="レイヤー_1" xmlns="http://www.w3.org/2000/svg" xmlns:xlink="http://www.w3.org/1999/xlink" x="0px"
	 y="0px" viewBox="0 0 100 100" style="enable-background:new 0 0 100 100;" xml:space="preserve">
<style type="text/css">
	.st0{fill:#1C8B9C;}
</style>
<g>
	<path class="st0" d="M94.8,48.5l-33-33L51,4.7c-0.6-0.6-1.5-0.6-2,0l-1,1c0,0,0,0,0,0L5.2,48.5c-1.1,1.1-0.7,2,0.8,2h14.1H26
		c0.8,0,1.9,0.5,2.4,1l10.8,10.8c0.6,0.6,1.6,1,2.4,1h16.8c0.8,0,1.9-0.5,2.4-1l10.8-10.8c0.6-0.6,1.3-1,1.6-1h2h11.4H94
		C95.6,50.5,96,49.6,94.8,48.5z"/>
	<path class="st0" d="M70.6,85.7L52,67.1l-1-1c-0.6-0.6-1.5-0.6-2,0l-1,1L29.4,85.7l-1,1c-0.6,0.6-1,1.6-1,2.4v5.2
		c0,0.8,0.6,1.4,1.4,1.4h42.3c0.8,0,1.4-0.6,1.4-1.4v-5.2c0-0.8-0.5-1.9-1-2.4L70.6,85.7z"/>
</g>
<path class="st0" d="M50,50"/>
</svg>
