<?xml version="1.0" encoding="utf-8"?>
<!-- Generator: Adobe Illustrator 21.0.2, SVG Export Plug-In . SVG Version: 6.00 Build 0)  -->
<svg version="1.1" id="レイヤー_1" xmlns="http://www.w3.org/2000/svg" xmlns:xlink="http://www.w3.org/1999/xlink" x="0px"
	 y="0px" viewBox="0 0 415 105" style="enable-background:new 0 0 415 105;" xml:space="preserve">
<style type="text/css">
	.st0{fill:#231815;}
	.st1{fill:#1C8B9C;}
	.st2{fill:#FFFFFF;}
</style>
<g>
	<path class="st0" d="M114.2,84.8c-0.4-0.4-0.7-1.2-0.1-1.9l8.3-9.5c0.4-0.5,1.1-0.5,1.6-0.1c4.9,3.9,11.5,7.6,19.4,7.6
		c7.7,0,12.1-3.6,12.1-8.8c0-4.4-2.6-7.1-11.4-8.3l-3.9-0.5c-15-2.1-23.4-9.1-23.4-22.2c0-13.6,10.2-22.7,26.2-22.7
		c9.8,0,19,2.9,25.2,7.7c0.7,0.4,0.8,0.9,0.2,1.6l-6.6,9.9c-0.4,0.5-1,0.7-1.5,0.3c-5.7-3.7-11.1-5.7-17.2-5.7
		c-6.5,0-9.9,3.4-9.9,8.1c0,4.2,3,7,11.5,8.2l3.9,0.5c15.2,2.1,23.3,9,23.3,22.4c0,13.4-9.9,23.3-29.1,23.3
		C131.1,94.9,119.9,90.3,114.2,84.8z"/>
	<path class="st0" d="M215.1,93.7c-0.7,0-1.1-0.4-1.1-1.1V62.4c0-5.8-2.7-9.6-8.2-9.6c-5.2,0-8.3,3.8-8.3,9.6v30.3
		c0,0.7-0.4,1.1-1.1,1.1h-13.1c-0.7,0-1.1-0.4-1.1-1.1V20.7c0-0.7,0.4-1.1,1.1-1.1h13.1c0.7,0,1.1,0.4,1.1,1.1v25.1h0.1
		c2.4-3.3,6.9-6,13.6-6c11.7,0,18,8.1,18,19.6v33.2c0,0.7-0.4,1.1-1.1,1.1H215.1z"/>
	<path class="st0" d="M243.7,32.6c-0.7,0-1.1-0.4-1.1-1.1V20.7c0-0.7,0.4-1.1,1.1-1.1h13.1c0.7,0,1.1,0.4,1.1,1.1v10.8
		c0,0.7-0.4,1.1-1.1,1.1H243.7z M243.7,93.7c-0.7,0-1.1-0.4-1.1-1.1V42.1c0-0.7,0.4-1.1,1.1-1.1h13.1c0.7,0,1.1,0.4,1.1,1.1v50.5
		c0,0.7-0.4,1.1-1.1,1.1H243.7z"/>
	<path class="st0" d="M274.6,93.7c-0.7,0-1.1-0.4-1.1-1.1V52.9c0-0.4-0.2-0.7-0.7-0.7h-3.3c-0.7,0-1.1-0.4-1.1-1.1v-9
		c0-0.7,0.4-1.1,1.1-1.1h3.3c0.4,0,0.7-0.2,0.7-0.7v-2.5c0-12.9,6-18.2,18.5-18.2h6c0.7,0,1.1,0.4,1.1,1.1V31c0,0.7-0.4,1.1-1.1,1.1
		h-3.4c-4.8,0-6,1.2-6,5.7v2.6c0,0.4,0.2,0.7,0.7,0.7h8.6c0.7,0,1.1,0.4,1.1,1.1v9c0,0.7-0.4,1.1-1.1,1.1h-8.6
		c-0.4,0-0.7,0.2-0.7,0.7v39.8c0,0.7-0.4,1.1-1.1,1.1H274.6z"/>
	<path class="st0" d="M326.3,94.4c-12.2,0-16.8-5.4-16.8-17.5v-24c0-0.4-0.2-0.7-0.7-0.7h-3.3c-0.7,0-1.1-0.4-1.1-1.1v-9
		c0-0.7,0.4-1.1,1.1-1.1h3.3c0.4,0,0.7-0.2,0.7-0.7V26.2c0-0.7,0.4-1.1,1.1-1.1h13c0.7,0,1.1,0.4,1.1,1.1v14.2
		c0,0.4,0.2,0.7,0.7,0.7h6.8c0.7,0,1.1,0.4,1.1,1.1v9c0,0.7-0.4,1.1-1.1,1.1h-6.8c-0.4,0-0.7,0.2-0.7,0.7v23.3
		c0,3.9,1.3,5.2,4.8,5.2h2.6c0.7,0,1.1,0.4,1.1,1.1v10.8c0,0.7-0.4,1.1-1.1,1.1H326.3z"/>
	<path class="st1" d="M362.5,20.7c0.2-0.7,0.7-1.1,1.4-1.1h13.7c0.8,0,1.2,0.4,1.4,1.1l25.1,71.9c0.2,0.7,0,1.1-0.8,1.1h-14.2
		c-0.8,0-1.2-0.3-1.4-1.1l-4.2-13h-25.9l-4.1,13c-0.2,0.8-0.7,1.1-1.4,1.1h-14.3c-0.8,0-1-0.4-0.8-1.1L362.5,20.7z M379.2,66.1
		l-8.4-25.9h-0.3l-8.4,25.9H379.2z"/>
</g>
<path class="st0" d="M320.2,41h-21.4c2.2,1.3,3.8,3.2,3.8,5.6c-1.1,2.2-2.2,4.4-5.2,5.6h22.8V41z"/>
<path class="st0" d="M302.6,46.6c0-2.4-1.7-4.3-3.8-5.6h-28.2v11.2h26.9C300.4,50.9,301.5,48.8,302.6,46.6z"/>
<path class="st2" d="M296.8,55l-1.7-1.7l6.7-6.7l-6.7-6.7l1.7-1.7l7.6,7.6c0.2,0.2,0.3,0.5,0.3,0.8c0,0.3-0.1,0.6-0.3,0.8L296.8,55z
	"/>
<g>
	<path class="st1" d="M100.6,49.6l-33-33L56.8,5.8c-0.6-0.6-1.5-0.6-2,0l-1,1c0,0,0,0,0,0L10.9,49.6c-1.1,1.1-0.7,2,0.8,2h14.1h5.9
		c0.8,0,1.9,0.5,2.4,1L45,63.4c0.6,0.6,1.6,1,2.4,1h16.8c0.8,0,1.9-0.5,2.4-1l10.8-10.8c0.6-0.6,1.3-1,1.6-1h2h11.4h7.4
		C101.4,51.6,101.7,50.7,100.6,49.6z"/>
	<path class="st1" d="M76.4,86.7L57.8,68.2l-1-1c-0.6-0.6-1.5-0.6-2,0l-1,1L35.2,86.7l-1,1c-0.6,0.6-1,1.6-1,2.4v5.2
		c0,0.8,0.6,1.4,1.4,1.4H77c0.8,0,1.4-0.6,1.4-1.4v-5.2c0-0.8-0.5-1.9-1-2.4L76.4,86.7z"/>
</g>
<g>
</g>
<g>
</g>
<g>
</g>
<g>
</g>
<g>
</g>
<g>
</g>
<g>
</g>
<g>
</g>
<g>
</g>
<g>
</g>
<g>
</g>
<g>
</g>
<g>
</g>
<g>
</g>
<g>
</g>
</svg>
